<?xml version="1.0" encoding="UTF-8" standalone="no"?>
<svg
   xmlns:dc="http://purl.org/dc/elements/1.1/"
   xmlns:cc="http://creativecommons.org/ns#"
   xmlns:rdf="http://www.w3.org/1999/02/22-rdf-syntax-ns#"
   xmlns:svg="http://www.w3.org/2000/svg"
   xmlns="http://www.w3.org/2000/svg"
   xmlns:sodipodi="http://sodipodi.sourceforge.net/DTD/sodipodi-0.dtd"
   xmlns:inkscape="http://www.inkscape.org/namespaces/inkscape"
   width="100mm"
   height="100mm"
   viewBox="0 0 100 100"
   version="1.1"
   id="svg8"
   inkscape:version="1.0.1 (3bc2e813f5, 2020-09-07)"
   sodipodi:docname="base.svg">
  <defs
     id="defs2" />
  <sodipodi:namedview
     id="base"
     pagecolor="#ffffff"
     bordercolor="#666666"
     borderopacity="1.0"
     inkscape:pageopacity="0.0"
     inkscape:pageshadow="2"
     inkscape:zoom="1.4"
     inkscape:cx="135.29573"
     inkscape:cy="250.99875"
     inkscape:document-units="mm"
     inkscape:current-layer="layer1"
     inkscape:document-rotation="0"
     showgrid="false"
     inkscape:window-width="1366"
     inkscape:window-height="728"
     inkscape:window-x="0"
     inkscape:window-y="0"
     inkscape:window-maximized="0" />
  <metadata
     id="metadata5">
    <rdf:RDF>
      <cc:Work
         rdf:about="">
        <dc:format>image/svg+xml</dc:format>
        <dc:type
           rdf:resource="http://purl.org/dc/dcmitype/StillImage" />
        <dc:title></dc:title>
      </cc:Work>
    </rdf:RDF>
  </metadata>
  <g
     inkscape:label="Layer 1"
     inkscape:groupmode="layer"
     id="layer1"
     style="display:inline" />
  <g
     inkscape:groupmode="layer"
     id="layer2"
     inkscape:label="top"
     style="display:none">
    <path
       style="fill:#000000;stroke-width:0.0846667"
       d="m 46.444,93.264077 c -0.372533,-0.06149 -1.001184,-0.155507 -1.397,-0.208906 -0.395817,-0.0534 -1.119717,-0.15544 -1.608667,-0.226754 -0.498764,-0.07275 -1.213961,-0.114817 -1.629296,-0.09583 -0.655677,0.02998 -0.745821,0.01643 -0.788632,-0.118449 -0.02658,-0.08376 -0.0286,-0.184226 -0.0045,-0.223266 0.02413,-0.03904 0.08582,-0.334653 0.13709,-0.65692 0.05128,-0.322275 0.167344,-0.711954 0.257933,-0.865962 0.09554,-0.162408 0.164708,-0.435881 0.164708,-0.651163 0,-0.20414 0.0381,-0.394716 0.08467,-0.423494 0.04657,-0.02878 0.08467,-0.236195 0.08467,-0.460926 0,-0.342595 -0.03425,-0.431038 -0.21203,-0.547522 -0.116615,-0.07641 -0.33569,-0.163119 -0.486833,-0.192693 -0.151142,-0.02957 -0.499572,-0.157633 -0.774289,-0.284599 -0.404109,-0.186766 -0.549613,-0.216289 -0.762,-0.154609 -0.144383,0.04194 -0.414915,0.05475 -0.601182,0.0285 -0.245385,-0.03459 -0.420288,-0.0026 -0.635,0.116104 -1.071316,0.592387 -1.637503,0.860747 -1.81601,0.860747 -0.112732,0 -0.306008,0.03841 -0.429503,0.08537 -0.383206,0.145694 -3.157253,0.115815 -3.822194,-0.04117 -0.779914,-0.184125 -1.491406,-0.392718 -1.594627,-0.467512 -0.04657,-0.03374 -0.180464,-0.08412 -0.29755,-0.111955 -0.117086,-0.02784 -0.555236,-0.340326 -0.973667,-0.694419 -0.418431,-0.354085 -0.886835,-0.697501 -1.040899,-0.763135 -0.154062,-0.06564 -0.378276,-0.196562 -0.498251,-0.290932 -0.119974,-0.09437 -0.268456,-0.171585 -0.329958,-0.171585 -0.0615,0 -0.244988,-0.09036 -0.407746,-0.200821 -0.185598,-0.12595 -0.526327,-0.235534 -0.913927,-0.293946 -0.54618,-0.0823 -0.630302,-0.07677 -0.723836,0.04767 -0.05821,0.07744 -0.105833,0.164321 -0.105833,0.193082 0,0.02875 0.295275,0.139556 0.656167,0.246236 0.586376,0.173321 0.707587,0.247345 1.139619,0.69596 0.535811,0.556379 0.61584,0.779205 0.60475,1.683817 -0.0076,0.616289 -0.285513,1.344719 -0.634323,1.662354 -0.2293,0.208797 -1.229826,0.729403 -1.76409,0.917905 -0.648569,0.228829 -1.531557,0.09533 -2.088827,-0.315815 -0.357977,-0.264109 -0.87663,-0.957165 -0.87663,-1.171406 0,-0.09579 -0.0381,-0.245364 -0.08467,-0.332376 -0.107094,-0.200109 0.11332,-1.310733 0.296474,-1.493892 0.06978,-0.06977 0.126864,-0.18459 0.126864,-0.255152 0,-0.383701 1.524686,-1.468281 2.064094,-1.468281 0.251394,0 0.30614,-0.06987 0.226489,-0.289077 -0.05149,-0.141698 -0.166149,-0.166379 -0.911624,-0.196224 -0.469002,-0.01877 -0.999707,0.0049 -1.179345,0.05267 -0.179638,0.04774 -1.031464,0.149555 -1.892947,0.226246 -0.861484,0.0767 -1.630504,0.173558 -1.708935,0.215248 -0.07843,0.04169 -0.21664,0.0758 -0.307132,0.0758 -0.09049,0 -0.210249,0.05508 -0.266125,0.122411 -0.07551,0.09099 -0.155657,0.101854 -0.312212,0.04233 -0.115841,-0.04404 -0.293864,-0.08018 -0.395608,-0.08031 -0.101743,0 -0.356439,-0.148226 -0.565989,-0.329108 l -0.381,-0.328879 0.003,-0.919726 0.003,-0.919725 0.368781,-0.592667 c 0.406224,-0.652843 0.609728,-0.934923 1.22109,-1.692567 0.225794,-0.279822 0.617942,-0.765941 0.871439,-1.080266 0.253497,-0.314325 0.488872,-0.5715 0.523055,-0.5715 0.065,0 2.425463,-2.31408 3.032899,-2.973298 0.406014,-0.440624 1.385071,-1.902621 1.385071,-2.068284 0,-0.06181 0.163532,-0.352916 0.363405,-0.6469 0.199871,-0.293986 0.450271,-0.676815 0.556443,-0.850731 l 0.193038,-0.316213 -0.624258,0.01949 c -0.475755,0.01485 -0.677909,-0.01566 -0.849797,-0.128288 -0.124043,-0.08128 -0.278121,-0.14778 -0.342392,-0.14778 -0.06427,0 -0.183663,-0.07382 -0.265314,-0.164044 -0.115945,-0.128117 -0.136085,-0.24401 -0.09196,-0.529167 0.09535,-0.616194 0.311332,-1.187572 0.649943,-1.719394 0.178032,-0.279617 0.441354,-0.746588 0.585161,-1.037712 0.143805,-0.291124 0.307082,-0.576875 0.362836,-0.635 0.05576,-0.05813 0.241856,-0.299096 0.41356,-0.535489 0.171704,-0.236393 0.590325,-0.693593 0.93027,-1.016 0.630182,-0.597669 1.482319,-1.539065 1.626746,-1.797141 0.04404,-0.07869 0.211978,-0.285642 0.373206,-0.459898 0.315557,-0.341056 0.691119,-0.8645 0.691119,-0.963254 0,-0.03341 0.13335,-0.341688 0.296333,-0.685057 0.162983,-0.343368 0.296333,-0.635535 0.296333,-0.64926 0,-0.03297 -0.217491,-0.01097 -0.646631,0.0654 -0.699925,0.124567 -1.647719,-0.318312 -1.978987,-0.924727 -0.160293,-0.293431 -0.18552,-0.433707 -0.142826,-0.794192 0.05865,-0.49523 0.372151,-1.124979 0.794133,-1.595243 0.157022,-0.174987 0.427352,-0.527707 0.600735,-0.783824 0.173384,-0.256117 0.464299,-0.667816 0.646478,-0.914887 0.18218,-0.247071 0.42983,-0.635439 0.550334,-0.863039 0.120504,-0.227601 0.415383,-0.659986 0.655288,-0.960856 0.239903,-0.300871 0.54354,-0.731653 0.674746,-0.957295 0.131208,-0.225641 0.395548,-0.604276 0.587424,-0.841412 0.191876,-0.237134 0.471851,-0.694334 0.622164,-1.016 0.150314,-0.321665 0.299289,-0.625766 0.331054,-0.67578 0.03177,-0.05001 0.221655,-0.335201 0.421976,-0.633748 l 0.364221,-0.542813 -0.388162,-0.09902 c -0.213489,-0.05446 -0.449499,-0.150275 -0.524468,-0.212919 -0.07497,-0.06264 -0.292794,-0.191527 -0.484059,-0.286407 -0.472623,-0.234453 -0.741668,-0.775451 -0.794419,-1.597422 -0.03404,-0.530365 -0.01141,-0.66322 0.175115,-1.028231 0.11781,-0.230544 0.303304,-0.512671 0.41221,-0.626948 0.108904,-0.114277 0.300639,-0.335893 0.426077,-0.492481 0.125439,-0.156586 0.481373,-0.5655 0.790967,-0.908697 0.517463,-0.573627 0.670391,-0.796407 1.048771,-1.527817 0.07344,-0.141958 0.277678,-0.465808 0.453863,-0.719667 0.401168,-0.578028 0.90733,-1.431636 0.90733,-1.530152 0,-0.04093 0.0347,-0.07441 0.07712,-0.07441 0.04242,0 0.265906,-0.352425 0.496645,-0.783167 0.230739,-0.430742 0.557985,-1.03871 0.727213,-1.351041 0.169229,-0.312332 0.307689,-0.588557 0.307689,-0.613834 0,-0.02528 -0.09154,-0.04596 -0.203434,-0.04596 -0.153448,0 -0.28347,-0.119619 -0.529167,-0.486833 -0.288326,-0.430926 -0.325574,-0.545171 -0.324353,-0.994833 8.46e-4,-0.304266 0.06244,-0.643824 0.153643,-0.846667 0.223888,-0.49797 0.490635,-0.99833 0.609346,-1.143 0.05732,-0.06985 0.17125,-0.26035 0.253184,-0.423334 0.08194,-0.162983 0.233779,-0.382103 0.337432,-0.486933 0.103652,-0.10483 0.29647,-0.35248 0.428484,-0.550333 0.132015,-0.197854 0.305748,-0.435934 0.386075,-0.529067 0.08033,-0.09313 0.288056,-0.436033 0.461621,-0.762 0.173566,-0.325967 0.385576,-0.660447 0.471134,-0.743289 0.08556,-0.08284 0.218432,-0.273343 0.295278,-0.423333 0.07684,-0.149991 0.164232,-0.291762 0.194193,-0.315045 0.131575,-0.10225 1.699897,-2.649403 1.699897,-2.760848 0,-0.123705 0.406482,-0.909271 0.730429,-1.411625 0.203631,-0.315777 0.370238,-0.606387 0.370238,-0.645801 0,-0.03941 0.05904,-0.120655 0.131191,-0.180538 0.07216,-0.05988 0.209779,-0.283624 0.305829,-0.4972 0.366512,-0.81497 0.958414,-2.00979 1.14574,-2.312806 0.107382,-0.1737 0.19524,-0.33383 0.19524,-0.355844 0,-0.02201 -0.1905,-0.01746 -0.423333,0.01011 l -0.423333,0.05014 0.002,-0.54096 c 0.0011,-0.297528 0.04258,-0.69336 0.09215,-0.879627 0.04957,-0.186266 0.126696,-0.529166 0.171391,-0.762 0.04469,-0.232833 0.136898,-0.670983 0.204898,-0.973666 0.068,-0.302684 0.123314,-0.639235 0.122923,-0.747894 -4.23e-4,-0.108658 0.0703,-0.489658 0.157088,-0.846667 0.476963,-1.961982 0.470926,-1.923471 0.348999,-2.22653 -0.06312,-0.156884 -0.383943,-0.656109 -0.712946,-1.10939 -1.740014,-2.397292 -2.59693,-3.695855 -2.648471,-4.013468 -0.03369,-0.20761 -0.01454,-0.28518 0.07071,-0.286421 0.0643,-9.4e-4 0.364562,-0.03892 0.667245,-0.08442 0.302683,-0.04549 0.836083,-0.103639 1.185333,-0.129215 0.34925,-0.02557 0.76835,-0.0798 0.931334,-0.120495 0.162983,-0.0407 0.505883,-0.09981 0.762,-0.13137 0.58187,-0.07169 1.474229,-0.312076 1.96599,-0.529605 0.429713,-0.190084 0.909851,-0.7323789 1.155198,-1.3047519 0.09219,-0.2150627 0.284882,-0.5529089 0.428212,-0.7507704 0.143327,-0.1978613 0.260597,-0.4115722 0.260597,-0.474913 0,-0.063341 0.140698,-0.3147993 0.312663,-0.5587968 0.171965,-0.2439974 0.420446,-0.6027887 0.552181,-0.7973138 0.131734,-0.1945253 0.40061,-0.5309585 0.597503,-0.7476293 0.339043,-0.3731004 0.369326,-0.387987 0.572279,-0.2813179 0.486981,0.2559505 0.765218,0.5666626 1.089841,1.2170476 0.339275,0.6797407 0.43405,0.9710728 0.813238,2.4998546 0.256647,1.0347259 0.642985,1.7742509 1.094582,2.0952399 0.385981,0.27435 2.430856,0.946089 3.538115,1.162265 1.035319,0.202131 1.389192,0.351802 1.507586,0.637631 0.09026,0.217914 0.06859,0.300392 -0.214542,0.816496 -0.285459,0.520345 -1.155007,1.606615 -1.601003,2.000031 -0.646585,0.570356 -1.108489,0.956471 -1.231456,1.029398 -0.370162,0.219531 -0.945148,0.78174 -1.071218,1.047412 -0.120531,0.254 -0.130773,0.460779 -0.07363,1.486482 0.03651,0.655292 0.08325,1.32479 0.10388,1.487773 0.02063,0.162984 0.05553,1.143684 0.07755,2.179334 l 0.04005,1.883 -0.212821,0.09697 c -0.279254,0.127237 -0.32672,0.273789 -0.181224,0.559528 0.06558,0.128794 0.257757,0.519921 0.427057,0.869171 0.47511,0.980106 1.111362,1.972263 1.725394,2.69054 1.30521,1.526797 2.024554,2.609987 2.795711,4.209794 0.70298,1.458366 0.799015,1.792351 0.739449,2.571612 -0.07906,1.034304 -0.260841,1.814367 -0.565652,2.427332 l -0.284123,0.571364 0.199328,0.347513 c 0.10963,0.191131 0.341842,0.538012 0.516028,0.770846 0.174185,0.232833 0.429032,0.651933 0.566325,0.931333 0.980608,1.995595 1.709718,3.097294 2.680653,4.050512 0.292149,0.286819 0.75312,0.845339 1.024379,1.241155 0.27126,0.395817 0.695868,1.011718 0.943574,1.368668 0.247706,0.356951 0.488667,0.737951 0.535468,0.846667 0.0468,0.108716 0.120929,0.254815 0.164728,0.324665 0.115381,0.184009 0.39099,0.838328 0.507374,1.204554 0.159871,0.503061 -0.04394,1.725652 -0.350876,2.104733 -0.189152,0.233615 -0.773448,0.557175 -1.124083,0.622472 -0.185913,0.03462 -0.361416,0.07741 -0.390009,0.09508 -0.04376,0.02704 0.05531,0.364063 0.284709,0.968498 0.02651,0.06985 0.129769,0.41275 0.229468,0.762 0.0997,0.34925 0.233764,0.749873 0.297926,0.890272 0.06416,0.140398 0.155959,0.358645 0.203996,0.48499 0.0812,0.213573 0.921147,1.511274 1.407298,2.174248 0.116896,0.159413 0.564994,0.654713 0.995774,1.100667 1.308012,1.354086 1.838526,2.307984 1.838526,3.305785 0,0.330446 -0.05305,0.723412 -0.117891,0.873258 -0.166527,0.384843 -0.689686,0.885407 -0.995593,0.952596 -0.225804,0.04959 -0.253137,0.0855 -0.213926,0.281022 0.02473,0.12329 0.194227,0.548013 0.376671,0.94383 0.182444,0.395816 0.437166,0.976798 0.566047,1.291071 0.26515,0.646555 0.981387,1.644498 1.258739,1.753813 0.26112,0.102918 1.615144,1.520709 2.267019,2.373783 0.643098,0.841587 0.912755,1.361459 1.261329,2.431716 0.28203,0.865942 0.309603,1.23683 0.133937,1.801617 -0.416241,1.338266 -0.795535,1.650408 -1.996331,1.642895 -0.256117,-0.0016 -0.608542,-0.03399 -0.783167,-0.07198 -0.247358,-0.05381 -0.316915,-0.04324 -0.314853,0.04784 0.0032,0.142171 0.337237,0.835234 0.485835,1.008078 0.330476,0.384395 0.442851,0.540294 0.442851,0.614372 0,0.04545 0.507221,0.582541 1.127158,1.193545 0.619936,0.611004 1.244539,1.282367 1.388005,1.491917 0.143467,0.20955 0.363528,0.47625 0.489025,0.592666 0.125497,0.116417 0.439118,0.554567 0.696934,0.973667 0.257816,0.4191 0.589887,0.93345 0.737936,1.143 0.628551,0.889661 0.876815,2.677067 0.479899,3.455086 -0.258868,0.507424 -0.86011,0.790711 -1.692251,0.797349 -0.354405,0.0028 -0.853922,-0.05539 -1.110039,-0.129371 -0.256117,-0.07399 -0.618067,-0.178232 -0.804333,-0.231657 -0.186267,-0.05343 -0.374862,-0.131699 -0.4191,-0.173939 -0.04424,-0.04224 -0.139489,-0.07704 -0.211667,-0.07733 -0.07218,0 -0.226483,-0.04969 -0.3429,-0.109787 -0.116417,-0.0601 -0.440267,-0.177216 -0.719667,-0.260257 -0.2794,-0.08304 -0.60325,-0.185395 -0.719667,-0.227449 -0.31023,-0.11209 -1.394561,-0.224239 -1.570692,-0.16245 -0.116599,0.04089 -0.0652,0.08767 0.222722,0.202676 0.567715,0.226754 1.031486,0.655006 1.352817,1.249197 0.277193,0.512572 0.289326,0.571796 0.274633,1.340595 -0.01239,0.648157 -0.05566,0.894749 -0.222873,1.27 -0.25014,0.561357 -0.616075,1.033857 -1.131103,1.4605 -0.377888,0.313039 -0.393556,0.317492 -1.114889,0.316671 -1.121152,-0.0013 -1.715196,-0.350808 -2.428803,-1.42914 -0.209005,-0.315832 -0.220399,-0.383083 -0.178036,-1.050806 0.02489,-0.392363 0.121426,-0.930089 0.214518,-1.194952 0.17985,-0.511708 0.944209,-1.536328 1.208716,-1.620283 0.08561,-0.02717 0.155657,-0.08901 0.155657,-0.137422 0,-0.05116 -0.06205,-0.06188 -0.148167,-0.0256 -0.08149,0.03433 -0.323725,0.09241 -0.538297,0.129058 -0.606358,0.103572 -1.106396,0.266082 -1.430203,0.46482 -0.162983,0.100033 -0.334433,0.197383 -0.381,0.216349 -0.04657,0.01896 -0.599017,0.37487 -1.227667,0.790913 -1.004655,0.664879 -1.224982,0.774802 -1.820333,0.908152 -0.372534,0.08344 -0.803841,0.15262 -0.958461,0.153729 -0.337393,0.0025 -1.697594,-0.238269 -1.880652,-0.332782 -0.07138,-0.03686 -0.261879,-0.09489 -0.423333,-0.128981 -0.161455,-0.0341 -0.513668,-0.134942 -0.782694,-0.224113 -0.79363,-0.263051 -1.432558,-0.426161 -1.839194,-0.469502 -0.20955,-0.02234 -0.51435,-0.07678 -0.677333,-0.120972 -0.51908,-0.140758 -1.874516,-0.185928 -2.286001,-0.07617 -0.20955,0.05589 -0.55245,0.126349 -0.762,0.156575 l -0.381,0.05496 -0.0045,0.381 c -0.0025,0.20955 -0.05411,0.771601 -0.11479,1.249011 -0.06068,0.477402 -0.09626,1.177773 -0.07907,1.556377 0.03121,0.68718 0.03074,0.688933 -0.268063,1.015822 l -0.299323,0.327457 -1.94548,-0.0079 c -1.17477,-0.0047 -2.21381,-0.05218 -2.622814,-0.11971 z m 7.58634,-9.816425 c 0.145363,-0.246373 0.234248,-0.301001 0.568644,-0.349489 0.451932,-0.06553 0.65462,-0.153094 0.925517,-0.399833 0.246783,-0.224776 0.240991,-0.465992 -0.01967,-0.819302 -0.229235,-0.310711 -0.392239,-0.731527 -0.550354,-1.420813 -0.05616,-0.244816 -0.179444,-0.60519 -0.273966,-0.80083 -0.09581,-0.198311 -0.135059,-0.367976 -0.08869,-0.383433 0.321261,-0.107087 0.399962,-0.270406 0.431528,-0.895497 l 0.03214,-0.636554 -0.269091,-0.139152 c -0.291869,-0.150932 -0.665855,-0.116502 -0.994587,0.09156 -0.252087,0.159556 -0.392436,0.149754 -0.720599,-0.05033 -0.304424,-0.185608 -0.664138,-0.21775 -0.917779,-0.082 -0.142111,0.07606 -0.163767,0.182418 -0.163767,0.804333 0,0.5523 0.02675,0.716688 0.116633,0.716688 0.06415,0 0.160567,0.05294 0.214263,0.117637 0.07577,0.0913 0.04965,0.207868 -0.116633,0.52061 -0.139404,0.262183 -0.214428,0.539077 -0.214735,0.79253 -6.78e-4,0.547993 -0.13056,0.953076 -0.424034,1.322366 -0.139055,0.174978 -0.252827,0.404766 -0.252827,0.51064 0,0.354173 0.73576,0.798218 1.325136,0.799745 0.118129,3.39e-4 0.243582,0.104614 0.356979,0.296806 0.154253,0.26144 0.215391,0.296333 0.519218,0.296333 0.302858,0 0.365151,-0.03521 0.516673,-0.292017 z m 4.710979,-10.773399 c 0.524264,-0.246983 0.952935,-0.926029 0.951716,-1.507585 -6.78e-4,-0.327029 -0.391756,-1.015759 -0.694585,-1.22326 l -0.298782,-0.204728 0.15835,-0.259673 c 0.210058,-0.344467 0.200083,-0.556479 -0.04304,-0.914742 -0.182386,-0.268761 -0.186501,-0.293641 -0.04233,-0.255941 0.126431,0.03306 0.159691,-0.0044 0.159691,-0.179781 0,-0.163207 -0.04347,-0.221541 -0.165108,-0.221541 -0.141613,0 -0.168721,-0.06928 -0.1905,-0.486834 l -0.02539,-0.486833 -0.517834,-0.02491 -0.517834,-0.02491 -0.05367,0.26833 c -0.02952,0.147581 -0.05367,0.377867 -0.05367,0.511746 0,0.133879 -0.0381,0.243417 -0.08467,0.243417 -0.04657,0 -0.08467,0.0762 -0.08467,0.169333 0,0.103795 0.05644,0.169333 0.145839,0.169333 0.122105,0 0.11627,0.02071 -0.03585,0.127263 -0.09993,0.07 -0.226073,0.261739 -0.280318,0.4261 -0.08384,0.254025 -0.0745,0.347604 0.06228,0.624052 l 0.160903,0.325214 -0.286472,0.154274 c -0.573946,0.309092 -0.881643,1.061833 -0.702312,1.718125 0.27734,1.014976 1.447181,1.520458 2.438254,1.053557 z M 41.717875,71.335104 c 0.424089,-0.177196 0.528389,-0.349264 0.538329,-0.888102 l 0.0086,-0.465667 0.123566,0.401829 c 0.170748,0.555258 0.402281,0.69269 1.065646,0.632538 0.635178,-0.0576 0.946965,-0.262262 0.984972,-0.646564 0.032,-0.323537 -0.178608,-0.684136 -0.399563,-0.684136 -0.08636,0 -0.194694,-0.04762 -0.240746,-0.105834 -0.157094,-0.198563 -0.534807,-1.475595 -0.479258,-1.620353 0.03046,-0.07938 0.250657,-0.241827 0.489321,-0.360985 0.889651,-0.444172 1.210301,-0.988796 0.814934,-1.384162 -0.214362,-0.214362 -0.520677,-0.21411 -1.145737,9.4e-4 -0.638127,0.219548 -0.727536,0.134173 -0.416072,-0.397299 0.472437,-0.806153 0.241108,-1.664103 -0.563094,-2.088402 -0.401134,-0.21164 -0.519949,-0.235698 -0.96543,-0.195491 -0.673419,0.06078 -1.051261,0.22985 -1.416054,0.633631 -0.562596,0.622727 -0.500042,1.429734 0.160441,2.069825 0.201637,0.195411 0.366613,0.384431 0.366613,0.420044 0,0.03561 -0.248874,0.06475 -0.553053,0.06475 -0.694174,0 -1.114648,0.164725 -1.190346,0.466331 -0.124075,0.494352 0.212961,0.79007 1.108399,0.972516 0.2794,0.05693 0.555625,0.142142 0.613833,0.189363 0.0715,0.058 0.105833,0.352401 0.105833,0.907399 0,0.76684 -0.01409,0.834781 -0.211666,1.020392 -0.138468,0.130083 -0.211667,0.290629 -0.211667,0.464242 0,0.617455 0.675279,0.901102 1.412209,0.593193 z M 48.264333,45.301 c 0.273169,-0.273169 0.202981,-0.508719 -0.40446,-1.357364 -0.315586,-0.4409 -0.740059,-1.094425 -0.94327,-1.452277 -0.203213,-0.357852 -0.515004,-0.792743 -0.69287,-0.966424 -0.275034,-0.268564 -0.392198,-0.32149 -0.78353,-0.353942 -0.572091,-0.04744 -1.215631,0.152671 -1.512866,0.470436 -0.399146,0.426716 -0.513298,0.75936 -0.469699,1.368712 0.05976,0.835192 0.473789,1.470738 1.025557,1.574251 0.253825,0.04762 0.335232,0.02154 0.524887,-0.168111 0.263157,-0.263157 0.236598,-0.522862 -0.09361,-0.915285 -0.113406,-0.134776 -0.230195,-0.340678 -0.25953,-0.457559 -0.0748,-0.298004 0.205956,-0.655839 0.540886,-0.689394 0.228672,-0.02291 0.295693,0.02679 0.570858,0.423334 0.576876,0.831338 0.844791,1.236755 1.217408,1.842216 0.529354,0.86014 0.902756,1.058885 1.280234,0.681407 z m 5.03032,-22.502647 c -0.02284,-0.312962 -0.09509,-0.873822 -0.160547,-1.246355 -0.196219,-1.116701 -0.221964,-1.383581 -0.262674,-2.722857 l -0.03901,-1.283524 0.446457,-0.511495 c 0.245552,-0.281322 0.771212,-0.751486 1.168134,-1.04481 1.127348,-0.833106 2.326325,-1.994401 2.326325,-2.253214 0,-0.09614 -0.10592,-0.159832 -0.338667,-0.203641 -1.168404,-0.219926 -1.764659,-0.303687 -1.871087,-0.262846 -0.06689,0.02567 -0.244762,-0.0018 -0.395267,-0.06112 -0.325101,-0.128059 -1.312633,-0.569615 -1.52133,-0.680234 -0.08086,-0.04286 -0.184895,-0.07793 -0.231189,-0.07793 -0.0463,0 -0.290884,-0.132232 -0.543532,-0.293849 -0.359433,-0.229927 -0.487973,-0.372664 -0.5909,-0.656166 -0.185325,-0.510458 -0.314289,-0.977795 -0.392037,-1.420652 -0.234607,-1.33634 -0.530667,-2.4046915 -0.724471,-2.6143029 -0.09015,-0.097501 -0.169667,-0.05302 -0.4847,0.2711248 -0.351766,0.3619412 -0.760466,1.105556 -1.460857,2.6579831 -0.406853,0.901796 -0.867943,1.179676 -2.494964,1.503614 -0.996866,0.198475 -2.481185,0.62648 -2.606208,0.751503 -0.08794,0.08794 -0.101975,0.183965 -0.04945,0.338425 0.09831,0.289104 0.930381,1.454175 1.306084,1.828779 0.959585,0.956777 1.187143,1.661023 0.850399,2.631809 -0.08828,0.254503 -0.204969,0.691332 -0.259307,0.970732 -0.05434,0.2794 -0.150558,0.7747 -0.213823,1.100667 -0.142747,0.735488 -0.298997,1.872906 -0.298252,2.171108 3.39e-4,0.123077 0.04819,0.241996 0.106393,0.264265 0.148426,0.05679 1.567471,-0.391554 2.476501,-0.782437 0.4191,-0.180213 1.16205,-0.459334 1.651,-0.62027 1.080666,-0.355698 1.574388,-0.332494 2.221768,0.104417 0.401056,0.27067 0.741565,0.634306 0.741565,0.791931 0,0.04721 0.172356,0.299252 0.383015,0.560082 0.210657,0.260831 0.559516,0.691878 0.775241,0.957884 0.215725,0.266006 0.422535,0.464916 0.459577,0.442022 0.03704,-0.02289 0.04866,-0.297684 0.02582,-0.610647 z"
       id="path847" />
  </g>
  <g
     inkscape:groupmode="layer"
     id="layer3"
     inkscape:label="tStop"
     style="display:none">
    <path
       style="display:inline;fill:#000000;stroke-width:0.0846667"
       d="M 53.090334,83.570336 C 52.9972,83.477203 52.921,83.348761 52.921,83.28491 c 0,-0.0759 -0.151646,-0.136209 -0.437978,-0.174192 -0.484129,-0.06422 -0.69563,-0.153205 -0.980188,-0.412388 -0.266317,-0.242567 -0.238279,-0.478213 0.110107,-0.925381 0.269136,-0.345448 0.308662,-0.463901 0.377529,-1.131403 0.05443,-0.52753 0.127457,-0.813912 0.249727,-0.979291 0.22831,-0.308805 0.217954,-0.446834 -0.04243,-0.565471 -0.206984,-0.09431 -0.214284,-0.123107 -0.1905,-0.751485 0.02312,-0.610935 0.03966,-0.661776 0.254322,-0.781976 0.183246,-0.102609 0.277245,-0.109087 0.465667,-0.0321 0.776557,0.31731 0.774226,0.316783 0.972247,0.219507 0.544425,-0.267445 0.787504,-0.302806 1.07161,-0.155889 0.269355,0.139289 0.274849,0.153561 0.25811,0.670597 -0.02192,0.677051 -0.10229,0.884293 -0.368893,0.951206 -0.118432,0.02972 -0.215331,0.06972 -0.215331,0.08888 0,0.01916 0.08897,0.176955 0.197714,0.350655 0.108742,0.173699 0.244053,0.55416 0.300689,0.845467 0.114295,0.587874 0.294282,1.031369 0.581097,1.431836 0.23525,0.328472 0.238066,0.452874 0.01662,0.734392 -0.170188,0.216359 -0.48022,0.337674 -1.117291,0.437197 -0.178875,0.02794 -0.3175,0.09772 -0.3175,0.159807 0,0.06062 -0.07114,0.192238 -0.158098,0.292497 -0.203105,0.234182 -0.630225,0.240632 -0.857902,0.01295 z m 4.074273,-10.931592 c -0.977907,-0.496482 -1.157665,-1.879252 -0.334358,-2.572019 0.136594,-0.114937 0.309075,-0.242958 0.383292,-0.284491 0.123074,-0.06888 0.122681,-0.09302 -0.0045,-0.274546 -0.239686,-0.3422 -0.148141,-0.892401 0.191923,-1.153494 0.121115,-0.09299 0.119755,-0.103405 -0.01383,-0.105833 -0.183526,-0.0033 -0.204486,-0.341359 -0.02117,-0.341359 0.0975,0 0.127,-0.108186 0.127,-0.465667 v -0.465667 h 0.550334 0.550333 v 0.508 c 0,0.451555 0.01881,0.508 0.169333,0.508 0.09407,0 0.169334,0.05644 0.169334,0.127 0,0.08077 -0.08125,0.127 -0.223212,0.127 h -0.223213 l 0.223213,0.223212 c 0.28298,0.282981 0.313891,0.853814 0.05874,1.084725 -0.161124,0.145815 -0.157242,0.154324 0.190501,0.417579 0.44303,0.335391 0.651007,0.73857 0.651177,1.262358 2.54e-4,0.885749 -0.622005,1.51177 -1.554905,1.564222 -0.409166,0.02301 -0.597921,-0.01072 -0.890025,-0.15902 z M 40.522988,71.18002 c -0.298467,-0.298467 -0.285357,-0.636156 0.03668,-0.944685 0.2446,-0.234341 0.254,-0.270962 0.254,-0.989507 0,-0.898403 -0.08966,-1.029979 -0.762665,-1.119256 -0.73128,-0.09701 -1.121168,-0.365809 -1.121168,-0.77297 0,-0.399235 0.236419,-0.547267 0.874031,-0.547267 0.925857,0 1.025579,-0.09665 0.539811,-0.523156 -0.409426,-0.35948 -0.546009,-0.656818 -0.546009,-1.188653 0,-0.537272 0.245575,-0.957886 0.738006,-1.264038 0.274931,-0.17093 0.429213,-0.199153 1.088645,-0.199153 0.716175,0 0.790047,0.01656 1.088484,0.243994 0.615887,0.46936 0.727742,1.213567 0.295857,1.968424 -0.324025,0.566337 -0.240866,0.622406 0.557427,0.375839 0.31208,-0.09639 0.622286,-0.175257 0.689348,-0.175257 0.178617,0 0.537567,0.388834 0.537567,0.582322 0,0.252906 -0.358165,0.62561 -0.816701,0.849853 -0.801747,0.392089 -0.81864,0.445583 -0.467825,1.481388 0.208333,0.615117 0.251089,0.67803 0.522873,0.769362 0.332452,0.111721 0.480438,0.394641 0.391589,0.748645 -0.07043,0.280628 -0.41392,0.460299 -1.015041,0.530949 -0.441967,0.05194 -0.482789,0.04061 -0.724528,-0.201126 -0.166548,-0.166548 -0.278554,-0.385193 -0.320146,-0.62495 l -0.06397,-0.368776 -0.05145,0.576312 c -0.0689,0.771699 -0.222287,0.927193 -0.961032,0.974233 -0.497536,0.03168 -0.565906,0.01534 -0.763773,-0.182527 z m 7.17525,-25.774595 c -0.125945,-0.02049 -0.328873,-0.2603 -0.635,-0.750396 -0.426401,-0.682649 -0.616414,-0.971062 -1.263319,-1.917544 -0.152064,-0.222483 -0.364906,-0.426707 -0.472983,-0.453833 -0.292577,-0.07343 -0.600675,0.168681 -0.667423,0.524483 -0.04776,0.254573 -0.0149,0.360674 0.20771,0.670649 0.433941,0.604253 0.284586,1.060216 -0.347286,1.060216 -0.388906,0 -0.76652,-0.409064 -0.950969,-1.030174 -0.234999,-0.791326 -0.123023,-1.33508 0.378142,-1.836244 0.307923,-0.307924 0.708374,-0.434464 1.376948,-0.43511 0.456097,-4.23e-4 0.514296,0.0231 0.871727,0.352566 0.210652,0.194172 0.520696,0.603747 0.688988,0.910167 0.168291,0.306421 0.566589,0.926185 0.885106,1.377255 0.398537,0.564392 0.579121,0.897773 0.579121,1.069133 0,0.343 -0.255508,0.523151 -0.650762,0.458832 z M 52.853714,22.974634 C 52.206944,22.251351 51.651,21.520195 51.651,21.39287 c 0,-0.211649 -0.383032,-0.591518 -0.858075,-0.850993 C 50.411379,20.333474 50.2438,20.294066 49.746,20.295689 c -0.406248,0.0013 -0.712507,0.05527 -0.973667,0.171515 -0.20955,0.09327 -0.5334,0.218271 -0.719666,0.277778 -0.186267,0.05951 -0.491067,0.175757 -0.677334,0.258334 -0.808585,0.35847 -1.023433,0.44557 -1.143,0.463376 -0.06985,0.0104 -0.2794,0.07769 -0.465666,0.149518 -0.64894,0.250259 -1.144987,0.348668 -1.246386,0.247269 -0.180832,-0.180832 0.273693,-2.817029 0.819774,-4.754605 0.07828,-0.277765 0.108573,-0.581807 0.07551,-0.758028 -0.06838,-0.364476 -0.820024,-1.50049 -1.038734,-1.569907 -0.08847,-0.02808 -0.181814,-0.105662 -0.207426,-0.172406 -0.02561,-0.06674 -0.276782,-0.423182 -0.558154,-0.792084 -0.595158,-0.780299 -0.66817,-1.113012 -0.278755,-1.270263 0.333183,-0.134545 2.106224,-0.580367 2.583375,-0.649576 0.221764,-0.03217 0.424037,-0.09219 0.449496,-0.133382 0.02546,-0.04119 0.137498,-0.0749 0.248975,-0.0749 0.525734,0 1.260367,-0.555854 1.58136,-1.196523 0.125238,-0.249963 0.310407,-0.6640276 0.411485,-0.9201443 0.101079,-0.2561166 0.236737,-0.5258164 0.301461,-0.5993333 0.06473,-0.073517 0.117681,-0.1829782 0.117681,-0.2432482 0,-0.06027 0.171571,-0.3500155 0.381267,-0.6438793 0.355874,-0.4987119 0.655346,-0.7221229 0.789281,-0.5888145 0.108266,0.1077611 0.367638,0.9333669 0.439178,1.397942 0.07027,0.4563229 0.196671,1.0333982 0.459922,2.0996976 0.141583,0.573479 0.346518,1.032969 0.460712,1.032969 0.03887,0 0.202143,0.08922 0.362823,0.198255 0.160679,0.10904 0.461271,0.258491 0.667981,0.332113 0.20671,0.07362 0.680637,0.269692 1.05317,0.435711 0.449525,0.200331 0.805476,0.302013 1.058334,0.302325 0.536088,6.78e-4 1.88145,0.260449 2.024015,0.39083 0.100488,0.0919 0.05436,0.176554 -0.296334,0.543803 -0.228441,0.239227 -0.464142,0.479584 -0.52378,0.534128 -0.05964,0.05454 -0.250138,0.233026 -0.423333,0.396629 -0.173196,0.163604 -0.531051,0.442453 -0.795233,0.619666 -0.532628,0.357286 -1.597596,1.35552 -1.750055,1.640392 -0.12194,0.227848 -0.131411,2.249193 -0.01383,2.951432 0.04626,0.276311 0.144202,0.845284 0.217637,1.264384 0.07344,0.4191 0.121307,0.983086 0.106381,1.253303 l -0.02714,0.491302 z"
       id="path884" />
  </g>
  <g
     inkscape:groupmode="layer"
     id="layer4"
     inkscape:label="tPlace"
     style="display:none">
    <path
       style="display:inline;fill:#000000;stroke-width:0.0846667"
       d="m 51.047034,93.116503 c -0.0062,-0.151341 -0.0019,-1.09054 0.0097,-2.087101 0.0186,-1.608006 0.0062,-1.806262 -0.110404,-1.761524 -0.07225,0.02773 -0.295675,0.09285 -0.496496,0.144738 -0.200821,0.05187 -0.480324,0.146922 -0.621118,0.211226 -0.250386,0.114343 -1.013463,0.295741 -2.030011,0.482567 -0.2794,0.05134 -1.13665,0.09716 -1.905,0.101811 l -1.397001,0.0085 -0.907098,-0.372999 -0.907099,-0.373008 -0.165175,0.203674 c -0.09085,0.112014 -0.208582,0.356066 -0.261636,0.542333 -0.05305,0.186267 -0.237282,0.785876 -0.409394,1.332467 l -0.312931,0.993792 -0.359833,10e-4 c -0.197909,8.47e-4 -0.359834,-0.01366 -0.359834,-0.03162 0,-0.01796 0.05692,-0.141783 0.126479,-0.275167 0.06956,-0.133384 0.126713,-0.302421 0.127,-0.37564 2.54e-4,-0.07322 0.115476,-0.345373 0.255976,-0.604783 0.204424,-0.377427 0.275664,-0.652492 0.356621,-1.376959 l 0.101166,-0.905316 -0.208454,-0.160231 c -0.11465,-0.08813 -0.341804,-0.184176 -0.504788,-0.213437 -0.162983,-0.02926 -0.487686,-0.141401 -0.721562,-0.249199 -0.353242,-0.162822 -0.54674,-0.192955 -1.143,-0.177986 -0.467822,0.01174 -0.806222,0.06548 -0.971771,0.154313 -1.210091,0.649377 -1.596745,0.830394 -1.773677,0.830394 -0.112732,0 -0.30713,0.03885 -0.431998,0.08632 -0.376075,0.142985 -3.214622,0.112945 -3.788623,-0.04009 -0.27003,-0.07199 -0.544264,-0.130895 -0.609408,-0.130895 -0.06514,0 -0.437112,-0.115307 -0.826596,-0.256243 -0.576011,-0.208424 -0.858467,-0.380272 -1.513689,-0.920945 -0.443046,-0.365591 -0.897894,-0.692811 -1.010774,-0.72716 -0.11288,-0.03434 -0.281436,-0.129879 -0.37457,-0.21231 -0.09313,-0.08243 -0.264583,-0.1783 -0.381,-0.213047 -0.116416,-0.03474 -0.321822,-0.140792 -0.456456,-0.235669 -0.232376,-0.163763 -1.353109,-0.401541 -1.562925,-0.331597 -0.198451,0.06615 -0.102396,0.352645 0.135548,0.404283 0.128058,0.0278 0.309033,0.08183 0.402167,0.120074 0.09313,0.03824 0.290853,0.115147 0.439378,0.170891 0.337585,0.126713 0.905095,0.692362 1.093966,1.09038 0.233909,0.49293 0.199194,1.550179 -0.06985,2.127352 -0.119387,0.256117 -0.307012,0.547675 -0.416946,0.647903 -0.478195,0.435983 -1.895585,1.04543 -2.431355,1.04543 -0.441108,0 -1.102882,-0.208449 -1.431505,-0.450892 -0.383688,-0.283083 -0.866687,-0.939622 -0.866687,-1.178094 0,-0.109898 -0.04171,-0.241529 -0.0927,-0.292515 -0.100875,-0.100872 0.117938,-1.373666 0.251204,-1.461212 0.03875,-0.02546 0.135146,-0.184014 0.214202,-0.352357 0.178383,-0.379832 0.36925,-0.587417 0.834334,-0.907407 0.442575,-0.304495 0.947545,-0.52219 1.211304,-0.52219 0.239281,0 0.29112,-0.07426 0.206849,-0.296333 -0.05883,-0.155033 -0.142022,-0.169316 -0.984893,-0.16913 -0.506348,0 -1.415933,0.06481 -2.0213,0.143772 -0.605366,0.07895 -1.443566,0.181043 -1.862666,0.226856 -0.982975,0.107468 -1.286674,0.173567 -1.394534,0.30353 -0.131197,0.158081 -0.815704,-0.02587 -1.249134,-0.335695 -0.416483,-0.297705 -0.498646,-0.609532 -0.423257,-1.606355 0.03972,-0.525205 0.09567,-0.690579 0.404292,-1.194939 0.410229,-0.670414 0.600804,-0.932961 1.307966,-1.801925 0.2794,-0.343329 0.625304,-0.781586 0.768676,-0.973906 0.143371,-0.192319 0.391021,-0.450482 0.550333,-0.573694 0.286971,-0.221946 2.33591,-2.23937 3.010921,-2.964611 0.402665,-0.432629 1.38507,-1.89693 1.38507,-2.064485 0,-0.06181 0.163532,-0.352916 0.363405,-0.6469 0.199872,-0.293986 0.450271,-0.676815 0.556443,-0.850731 l 0.193038,-0.316213 -0.624257,0.01949 c -0.475756,0.01485 -0.67791,-0.01566 -0.849797,-0.128288 -0.124048,-0.08128 -0.278126,-0.14778 -0.342397,-0.14778 -0.06427,0 -0.183663,-0.07382 -0.265314,-0.164044 -0.115945,-0.128117 -0.136085,-0.24401 -0.09196,-0.529167 0.09535,-0.616194 0.311332,-1.187572 0.649943,-1.719394 0.178032,-0.279617 0.441354,-0.746588 0.585161,-1.037712 0.143805,-0.291124 0.307082,-0.576875 0.362836,-0.635 0.05576,-0.05813 0.240117,-0.296183 0.409693,-0.529017 0.169576,-0.232833 0.587896,-0.693757 0.929598,-1.024275 0.735568,-0.711493 1.250636,-1.275114 1.516782,-1.659762 0.106288,-0.153613 0.358141,-0.458944 0.559673,-0.678513 0.218514,-0.238072 0.537047,-0.760988 0.789121,-1.29546 0.232486,-0.492934 0.4227,-0.908122 0.4227,-0.922641 0,-0.02629 -0.06619,-0.01861 -0.730962,0.08484 -0.653726,0.101732 -1.575146,-0.355705 -1.894656,-0.940595 -0.360695,-0.660284 -0.13881,-1.396378 0.786652,-2.609692 0.243082,-0.318688 0.529765,-0.699688 0.637074,-0.846667 0.107309,-0.146978 0.259709,-0.345663 0.338666,-0.441521 0.233332,-0.283274 0.474338,-0.650545 0.653277,-0.995537 0.09219,-0.177736 0.364778,-0.577786 0.605755,-0.889 0.240976,-0.311213 0.563136,-0.775392 0.71591,-1.031509 0.152775,-0.256117 0.435288,-0.659686 0.627809,-0.896822 0.192519,-0.237134 0.47302,-0.694334 0.623333,-1.016 0.150314,-0.321665 0.299289,-0.625626 0.331054,-0.67547 0.03177,-0.04984 0.218861,-0.335595 0.415769,-0.635 l 0.358014,-0.544375 -0.381954,-0.09777 c -0.210076,-0.05377 -0.443293,-0.149023 -0.518262,-0.211667 -0.07497,-0.06264 -0.292794,-0.192735 -0.484059,-0.289092 -0.49506,-0.249406 -0.733259,-0.715269 -0.790155,-1.545363 -0.04003,-0.584037 -0.02167,-0.701116 0.168736,-1.076058 0.117509,-0.231395 0.303357,-0.518411 0.412994,-0.637813 0.109636,-0.119403 0.376322,-0.424203 0.592634,-0.677334 0.216312,-0.253131 0.551056,-0.631688 0.743874,-0.841238 0.192818,-0.20955 0.487951,-0.62865 0.65585,-0.931333 0.167899,-0.302684 0.503351,-0.855134 0.745449,-1.227667 0.733931,-1.129355 0.890532,-1.389589 0.890532,-1.479851 0,-0.04756 0.03493,-0.08648 0.07763,-0.08648 0.06347,0 1.076371,-1.780751 1.179897,-2.074334 0.01642,-0.04657 0.101534,-0.227542 0.189141,-0.402167 l 0.159285,-0.3175 h -0.252641 c -0.138952,0 -0.252641,-0.03619 -0.252641,-0.08042 0,-0.04423 -0.123825,-0.263307 -0.275167,-0.486833 -0.235394,-0.347669 -0.274968,-0.479838 -0.273787,-0.914411 8.46e-4,-0.304266 0.06244,-0.643824 0.153643,-0.846667 0.223888,-0.49797 0.490635,-0.99833 0.609346,-1.143 0.05732,-0.06985 0.17125,-0.26035 0.253184,-0.423334 0.08194,-0.162983 0.233779,-0.382103 0.337432,-0.486933 0.103652,-0.10483 0.29647,-0.35248 0.428484,-0.550333 0.132015,-0.197854 0.30668,-0.436328 0.388144,-0.529944 0.08146,-0.09362 0.286745,-0.436516 0.45618,-0.762 0.169435,-0.325484 0.380514,-0.65957 0.469065,-0.742412 0.08855,-0.08284 0.223873,-0.273343 0.300719,-0.423333 0.07684,-0.149991 0.164232,-0.291762 0.194193,-0.315045 0.164096,-0.127522 1.193712,-1.846342 1.704926,-2.846168 0.325111,-0.635847 0.704629,-1.324288 0.843374,-1.52987 0.138746,-0.205581 0.252264,-0.389015 0.252264,-0.407629 0,-0.01861 0.107782,-0.19768 0.239515,-0.397922 0.131733,-0.200243 0.326691,-0.572003 0.43324,-0.826134 0.106548,-0.254131 0.399255,-0.853963 0.650458,-1.33296 l 0.456734,-0.870904 -0.40314,0.02063 -0.40314,0.02063 -0.02566,-0.398554 c -0.01411,-0.219205 0.01716,-0.600205 0.0695,-0.846667 0.05234,-0.246462 0.132771,-0.695762 0.178736,-0.998446 0.04596,-0.302683 0.138512,-0.768833 0.205661,-1.035888 0.06715,-0.267056 0.122089,-0.564496 0.122089,-0.660981 0,-0.09648 0.13538,-0.716184 0.300844,-1.377112 0.186906,-0.746571 0.282693,-1.300336 0.25292,-1.462161 -0.04369,-0.237471 -0.48536,-0.91011 -1.663564,-2.533525 -0.236572,-0.325967 -0.570909,-0.805212 -0.74297,-1.06499 -0.172061,-0.259777 -0.456381,-0.667867 -0.631821,-0.906865 -0.342365,-0.466394 -0.506001,-1.032505 -0.29932,-1.035514 0.0643,-9.4e-4 0.364561,-0.03892 0.667245,-0.08442 0.302683,-0.04549 0.836083,-0.103639 1.185333,-0.129215 0.34925,-0.02557 0.76835,-0.0798 0.931333,-0.120495 0.162984,-0.0407 0.505884,-0.09981 0.762,-0.13137 0.58187,-0.07169 1.47423,-0.312076 1.96599,-0.529605 0.416291,-0.184146 0.918216,-0.7398643 1.132064,-1.2533914 0.07607,-0.1826768 0.164516,-0.3511889 0.196543,-0.3744722 0.09411,-0.068418 0.618741,-0.9564579 0.63649,-1.077385 0.02266,-0.154361 0.973933,-1.5117458 1.374545,-1.9613473 0.31416,-0.3525781 0.34195,-0.3656658 0.539318,-0.254 0.630068,0.3564766 0.926863,0.747976 1.302746,1.7184382 0.198261,0.5118743 0.579043,1.8518754 0.687953,2.4209608 0.03119,0.1629833 0.18806,0.5485779 0.348596,0.8568779 0.352246,0.676467 0.805449,1.034068 1.597626,1.260609 0.302442,0.08649 0.749372,0.231855 0.993179,0.323032 0.386503,0.14454 1.158682,0.350189 1.840285,0.490109 0.759468,0.155904 1.107762,0.308835 1.226561,0.538567 0.11376,0.219988 0.107626,0.269434 -0.07633,0.615416 -0.544739,1.024514 -1.582491,2.15709 -3.034368,3.311632 -0.454194,0.361178 -0.890467,0.778353 -0.969498,0.927056 -0.164775,0.310041 -0.167879,0.671344 -0.02014,2.344702 0.157441,1.783237 0.19635,4.825368 0.06176,4.828693 -0.05994,0.0015 -0.179585,0.05618 -0.265877,0.121549 -0.151404,0.114697 -0.149137,0.13608 0.0648,0.611141 0.558021,1.239096 1.376631,2.578965 2.074197,3.394966 1.312188,1.534973 1.96199,2.505701 2.732688,4.082319 0.91254,1.866786 0.970332,2.188444 0.676927,3.767667 -0.104217,0.560936 -0.252315,1.02865 -0.438838,1.385912 l -0.281534,0.539245 0.161991,0.303722 c 0.0891,0.167048 0.305484,0.486019 0.480861,0.708827 0.297044,0.377381 0.572314,0.867356 1.132198,2.015294 0.515062,1.056038 1.516183,2.446625 2.23978,3.111124 0.265993,0.244268 0.584199,0.615743 0.707125,0.8255 0.122926,0.209757 0.259995,0.381376 0.304598,0.381376 0.0446,0 0.0811,0.03849 0.0811,0.08554 0,0.04704 0.12674,0.266119 0.281645,0.486833 0.654332,0.932317 0.984509,1.436907 1.068199,1.632467 0.049,0.11449 0.124921,0.265314 0.16872,0.335164 0.115381,0.184009 0.39099,0.838328 0.507374,1.204554 0.105406,0.331677 0.01505,1.349747 -0.156894,1.767722 -0.191413,0.465309 -0.734497,0.864264 -1.31871,0.968736 -0.429404,0.07679 -0.492692,0.114669 -0.394888,0.23636 0.04345,0.05406 0.107295,0.230395 0.141877,0.39185 0.03458,0.161454 0.09413,0.351954 0.132323,0.423333 0.0382,0.07138 0.150966,0.415529 0.2506,0.764779 0.172177,0.60354 0.223686,0.741454 0.537566,1.439334 0.376302,0.836667 1.17668,1.932953 2.195672,3.00743 0.945641,0.997136 1.344069,1.531768 1.728278,2.3191 0.267065,0.547273 0.304229,0.698867 0.290598,1.185333 -0.0086,0.306793 -0.04377,0.660689 -0.07816,0.786438 -0.0883,0.322849 -0.758684,0.998564 -1.048118,1.05645 -0.294891,0.05898 -0.300484,0.165871 -0.03825,0.730993 0.351867,0.758284 0.558172,1.232513 0.558172,1.28306 0,0.127556 0.571766,1.226526 0.794389,1.526863 0.297406,0.401227 0.610183,0.719667 0.706869,0.719667 0.130879,0 1.687587,1.651284 2.234889,2.370667 0.301135,0.395817 0.649401,0.929217 0.773924,1.185333 0.379246,0.780024 0.739262,1.944562 0.739262,2.39128 0,0.511959 -0.407279,1.574348 -0.739568,1.929168 -0.369777,0.394848 -1.299011,0.512262 -2.257175,0.285207 -0.234812,-0.05564 -0.242567,-0.04808 -0.185155,0.180673 0.05017,0.199908 0.57293,1.084563 0.723876,1.225006 0.02502,0.02328 0.150499,0.197261 0.278833,0.386617 0.128333,0.189356 0.661626,0.748918 1.185095,1.243471 0.523469,0.494553 1.01501,1.006376 1.092314,1.137383 0.07731,0.131008 0.315176,0.428696 0.528602,0.661529 0.213426,0.232834 0.547,0.690034 0.741275,1.016 0.194276,0.325967 0.515542,0.826559 0.713925,1.112426 0.506531,0.729904 0.730436,1.487349 0.726366,2.457206 -0.0035,0.827718 -0.198499,1.417862 -0.505046,1.528267 -0.07939,0.02859 -0.24912,0.124587 -0.377182,0.213318 -0.180307,0.124926 -0.399984,0.164634 -0.973666,0.176005 -0.407455,0.008 -0.855127,-0.02872 -0.994827,-0.08175 -0.1397,-0.05303 -0.4826,-0.162382 -0.762,-0.242993 -0.2794,-0.08062 -0.544195,-0.179773 -0.588433,-0.220354 -0.04424,-0.04058 -0.133731,-0.07379 -0.198871,-0.07379 -0.06514,0 -0.238496,-0.05394 -0.385234,-0.119871 -0.704915,-0.316721 -1.743897,-0.578163 -2.425796,-0.610421 l -0.719666,-0.03404 0.376876,0.17427 c 0.85823,0.396849 1.555507,1.290455 1.659515,2.126784 0.05322,0.427965 -0.06466,1.335058 -0.230296,1.772023 -0.153085,0.403868 -0.682704,1.088356 -1.133995,1.465588 -0.36011,0.301016 -0.377212,0.305672 -1.121963,0.305672 -1.144798,0 -1.703043,-0.327448 -2.429355,-1.424982 -0.218358,-0.329963 -0.227284,-0.383802 -0.1821,-1.098533 0.02925,-0.462703 0.115971,-0.925246 0.225623,-1.203435 0.203134,-0.515358 0.94075,-1.487289 1.188374,-1.565885 0.09111,-0.02891 0.165654,-0.09219 0.165654,-0.140597 0,-0.051 -0.06231,-0.06194 -0.148167,-0.02602 -0.139336,0.0583 -0.615241,0.174617 -0.994833,0.243146 -0.413896,0.07473 -0.698162,0.176386 -0.973667,0.348209 -0.162983,0.101642 -0.334433,0.200321 -0.381,0.219287 -0.04657,0.01896 -0.597996,0.373566 -1.2254,0.788001 -1.219745,0.805722 -1.906132,1.066808 -2.804582,1.066808 -0.423952,0 -1.598599,-0.21402 -1.896685,-0.345575 -0.09313,-0.0411 -0.321733,-0.11027 -0.508,-0.153713 -0.186267,-0.04344 -0.624417,-0.16195 -0.973667,-0.263355 -0.34925,-0.101397 -0.72758,-0.201879 -0.840734,-0.223283 -0.113154,-0.02139 -0.239904,-0.06003 -0.281667,-0.08584 -0.04176,-0.02581 -0.311133,-0.08081 -0.598599,-0.122225 -0.287467,-0.04142 -0.713167,-0.111294 -0.946,-0.15527 -0.639167,-0.120743 -1.489964,-0.105071 -1.955044,0.03602 -0.228593,0.06934 -0.548973,0.126492 -0.711956,0.127 l -0.296334,9.32e-4 -0.01627,0.4445 c -0.0089,0.244475 -0.02904,1.03505 -0.04465,1.756833 -0.01561,0.721784 -0.05618,1.356758 -0.09017,1.411064 -0.03398,0.0543 -0.029,0.187646 0.01109,0.296333 0.04008,0.108678 0.09823,0.302378 0.129219,0.430437 0.05517,0.227965 0.04834,0.232833 -0.326269,0.232833 -0.372904,0 -0.3829,-0.0069 -0.393913,-0.275167 z M 69.053087,92.11394 c 0.37035,-0.112556 0.842714,-0.607314 1.15278,-1.207414 0.338338,-0.654821 0.365686,-1.362965 0.08111,-2.100123 -0.199173,-0.515925 -0.777336,-1.135143 -1.126132,-1.206103 -0.697623,-0.141909 -1.065908,-0.120633 -1.515242,0.08755 -0.695194,0.322089 -0.96955,0.572135 -1.255397,1.144168 -0.228668,0.457598 -0.2612,0.609964 -0.2612,1.223332 0,0.791439 0.08074,1.072312 0.407554,1.41771 0.652856,0.689999 1.578945,0.925847 2.516532,0.640884 z M 25.975544,91.201284 c 0.56075,-0.286072 1.08166,-1.047699 1.294394,-1.892546 0.1416,-0.562347 0.0032,-0.952576 -0.557875,-1.572539 -0.732166,-0.809075 -1.360718,-0.890109 -2.583119,-0.333045 -0.858006,0.391008 -1.313392,0.960831 -1.476482,1.847537 -0.111254,0.604876 0.345024,1.56122 0.90463,1.896059 0.542647,0.324705 1.831896,0.353771 2.418452,0.05453 z M 47.34417,89.509339 c 0.122561,-0.04686 0.522611,-0.12667 0.889,-0.177334 0.762186,-0.105402 1.763785,-0.415062 3.16383,-0.978146 0.94831,-0.381398 1.003434,-0.392828 2.116667,-0.43903 1.775527,-0.07369 3.31079,0.178308 5.588001,0.917236 l 1.058333,0.343408 1.013992,-0.0958 c 1.135441,-0.107273 1.61416,-0.278308 2.245675,-0.802327 0.441925,-0.366691 1.512171,-1.033797 2.243667,-1.398516 0.500406,-0.249504 0.862646,-0.322368 2.582333,-0.519438 0.567224,-0.065 0.851611,-0.05528 1.342556,0.04591 0.34259,0.0706 0.73269,0.128372 0.86689,0.128372 0.340724,0 1.424571,0.307357 2.105185,0.596976 1.264409,0.538057 2.747656,0.651154 3.287129,0.250647 0.368086,-0.27327 0.414251,-0.512928 0.236214,-1.226278 -0.363842,-1.457842 -0.472652,-1.733124 -0.855395,-2.164072 -0.206341,-0.232329 -0.430571,-0.529559 -0.498289,-0.660512 -0.06772,-0.130952 -0.183238,-0.287986 -0.256712,-0.348963 -0.07347,-0.06098 -0.251813,-0.332682 -0.396311,-0.603788 -0.392755,-0.736885 -1.633672,-2.099977 -2.16475,-2.377886 -0.532054,-0.278418 -1.763384,-2.169235 -1.91765,-2.944722 -0.0591,-0.297099 -0.349251,-0.681257 -0.514792,-0.681583 -0.09222,-1.69e-4 -1.233106,-0.56729 -1.699741,-0.844903 -1.219344,-0.725418 -2.487224,-1.285003 -3.683001,-1.625511 -1.024423,-0.291714 -1.499416,-0.286225 -1.826556,0.02111 -0.610837,0.573851 -0.326917,1.764551 0.422117,1.77027 0.435791,0.0033 0.941414,0.376229 1.236356,0.911819 0.257839,0.468216 0.266497,0.515688 0.223725,1.226719 -0.0393,0.65336 -0.08713,0.826227 -0.409901,1.481667 -0.352563,0.715929 -0.385876,0.753755 -0.947687,1.076056 -1.055389,0.605458 -2.002637,0.518508 -2.844734,-0.261126 -0.545626,-0.505152 -0.899838,-1.255656 -0.801391,-1.697984 0.36507,-1.640283 0.847125,-2.336791 1.862966,-2.691755 0.315589,-0.110275 0.599646,-0.250903 0.631236,-0.312506 0.0953,-0.185828 -0.0097,-0.840145 -0.143013,-0.891305 -0.06741,-0.02587 -0.22506,0.05097 -0.350339,0.170747 -0.284401,0.271915 -1.28286,0.824225 -2.031188,1.123577 -0.311992,0.124806 -0.76911,0.322482 -1.015818,0.439281 -0.407017,0.192694 -0.511779,0.20709 -1.131155,0.155436 -0.375427,-0.03131 -0.802225,-0.106826 -0.948439,-0.167815 -0.146215,-0.06099 -0.475396,-0.159728 -0.731513,-0.219419 -0.805229,-0.187672 -2.351912,-0.821856 -4.106333,-1.683716 -3.136877,-1.54099 -3.36666,-1.620406 -4.215439,-1.456907 -1.006712,0.19392 -1.290228,0.269731 -1.668895,0.446256 -0.631781,0.294518 -0.677671,0.361868 -0.674641,0.990148 0.0031,0.639992 0.07717,0.766079 0.547107,0.931152 0.998081,0.350592 1.187922,0.546843 1.580751,1.634126 0.287145,0.794769 0.285876,1.153911 -0.0068,1.931019 -0.161291,0.428221 -0.216691,0.486398 -0.704887,0.740229 -0.291411,0.151515 -0.844056,0.357651 -1.228101,0.458079 -0.633816,0.165745 -0.743217,0.172326 -1.185333,0.07131 -0.662165,-0.151299 -1.258301,-0.478213 -1.37183,-0.752296 -0.171378,-0.413744 -0.258704,-1.553277 -0.137037,-1.788239 0.744315,-1.437422 1.269821,-2.097456 1.83624,-2.306311 0.189347,-0.06982 0.27523,-0.985414 0.108876,-1.160722 -0.101364,-0.106819 -0.146732,-0.100876 -0.350543,0.04591 -0.364836,0.262765 -1.188846,0.59663 -1.87884,0.761252 -0.854966,0.20398 -1.670167,0.08916 -2.649765,-0.373219 -0.385461,-0.181941 -0.982226,-0.414791 -1.326144,-0.517445 -0.343917,-0.102654 -0.953517,-0.352543 -1.354666,-0.555309 -0.401149,-0.202765 -0.900812,-0.425102 -1.110362,-0.494083 -0.453285,-0.149213 -1.929693,-0.876742 -2.131717,-1.050446 -0.169418,-0.145669 -1.310591,-0.240603 -1.874929,-0.155975 -0.662284,0.09932 -0.736733,0.214664 -0.769367,1.192012 -0.01555,0.465666 -0.0084,0.898528 0.01588,0.961915 0.02428,0.06339 0.144258,0.158636 0.266618,0.211666 0.499065,0.216292 1.024447,0.621795 1.167041,0.900752 0.122992,0.240608 0.148248,0.47705 0.134307,1.257347 -0.01571,0.879189 -0.03959,1.00895 -0.280494,1.524 -0.460443,0.984431 -0.732106,1.139716 -1.983923,1.134029 -1.095224,-0.005 -1.432725,-0.1846 -2.024598,-1.077529 -0.379733,-0.572883 -0.297987,-1.37176 0.253766,-2.480007 0.180237,-0.362022 0.344372,-0.530209 0.867584,-0.889 0.35491,-0.243378 0.721388,-0.484498 0.814396,-0.53582 0.09301,-0.05132 0.179528,-0.184673 0.192266,-0.296334 0.01274,-0.111661 0.06407,-0.360515 0.11408,-0.553009 0.154997,-0.596644 -0.151945,-0.886511 -0.627052,-0.592169 -0.300209,0.185987 -0.963346,0.370819 -1.9934,0.555607 -0.527565,0.09464 -1.059419,0.220335 -1.181896,0.279315 -0.132892,0.064 -0.360631,0.350702 -0.564789,0.711023 -0.188156,0.332083 -0.383042,0.655934 -0.433078,0.719667 -0.05004,0.06373 -0.193291,0.357393 -0.318345,0.652576 -0.125054,0.295183 -0.39844,0.759014 -0.607525,1.030736 -0.209086,0.271721 -0.380155,0.530317 -0.380155,0.574656 0,0.111796 -0.62067,0.807464 -1.22107,1.368618 -0.275771,0.257745 -0.771071,0.740457 -1.100667,1.072692 -0.329595,0.332237 -1.001393,0.960887 -1.492885,1.397 -1.064303,0.944387 -1.417442,1.330517 -1.724226,1.885308 -0.126227,0.228271 -0.320665,0.534556 -0.432085,0.680635 -0.111419,0.146078 -0.257979,0.47366 -0.325688,0.727962 -0.06771,0.2543 -0.18362,0.604012 -0.257577,0.777147 -0.278555,0.652069 -0.110423,0.997576 0.485411,0.997509 0.194582,-2.6e-5 0.549385,-0.07439 0.78845,-0.165253 0.693983,-0.26377 2.310654,-0.362661 4.928813,-0.301489 2.703976,0.06317 3.047297,0.131487 3.869058,0.769874 0.277273,0.2154 0.675583,0.490567 0.885133,0.611488 0.20955,0.120921 0.671935,0.421936 1.027524,0.668934 0.355589,0.24699 0.774689,0.501887 0.931334,0.566429 0.467152,0.192506 1.604449,0.300643 3.756669,0.357217 2.288727,0.06015 2.76402,0.004 3.371488,-0.398382 0.481297,-0.318796 1.509207,-0.611183 1.961985,-0.558089 0.494886,0.05804 1.861594,0.564151 2.505804,0.927938 0.307158,0.173457 0.587948,0.315375 0.623976,0.315375 0.03603,0 0.432417,0.17885 0.880864,0.397442 0.678572,0.330776 0.928987,0.407628 1.49269,0.458115 0.835541,0.07483 2.040841,0.03299 2.339504,-0.08122 z m 5.890739,-5.824299 c -0.1249,-0.06544 -0.249654,-0.208886 -0.277232,-0.318767 -0.03918,-0.156117 -0.126529,-0.211996 -0.399646,-0.255669 -0.540284,-0.08639 -1.063699,-0.351169 -1.17437,-0.594067 -0.08805,-0.193245 -0.06465,-0.266763 0.213388,-0.670462 0.252121,-0.366068 0.33472,-0.592035 0.428759,-1.172955 0.11186,-0.691009 0.290685,-1.181813 0.471257,-1.293412 0.155668,-0.09621 0.08825,-0.212039 -0.123419,-0.212039 -0.29544,0 -0.395715,-0.249143 -0.366644,-0.910957 0.02313,-0.526573 0.04241,-0.577421 0.25797,-0.680425 0.20762,-0.09921 0.287615,-0.0868 0.735145,0.114039 l 0.502174,0.225363 0.467854,-0.228899 c 0.375412,-0.183673 0.514549,-0.213378 0.704188,-0.150345 0.231861,0.07707 0.236799,0.09256 0.260886,0.818633 l 0.02455,0.740078 -0.253683,0.09575 -0.253682,0.09575 0.157268,0.258002 c 0.0865,0.141901 0.256972,0.639002 0.378835,1.104669 0.140207,0.535765 0.316591,0.982997 0.48034,1.217927 0.185058,0.265503 0.244269,0.429051 0.207856,0.574127 -0.06681,0.266191 -0.482694,0.51309 -1.070341,0.635433 -0.39291,0.0818 -0.488259,0.137348 -0.559431,0.325904 -0.116094,0.307568 -0.505461,0.442937 -0.812024,0.282313 z m 0.544545,-0.192082 c 0.263144,-0.213335 0.180023,-0.276971 -0.320186,-0.245133 l -0.411268,0.02618 0.1905,0.1905 c 0.232012,0.232011 0.286346,0.234869 0.540954,0.02846 z m 1.2929,-0.727922 c 0.502712,-0.255694 0.535815,-0.369464 0.23501,-0.807704 -0.159236,-0.231991 -0.344837,-0.701858 -0.483222,-1.223329 -0.264869,-0.998096 -0.448574,-1.330301 -0.837772,-1.514987 -0.3822,-0.181366 -0.71055,-0.17104 -1.044977,0.03286 -0.401168,0.244595 -0.581669,0.60271 -0.74113,1.470406 -0.152543,0.830057 -0.262801,1.10714 -0.540595,1.35854 -0.23405,0.211812 -0.224685,0.354352 0.03443,0.524134 0.47194,0.309226 0.822337,0.37225 1.946565,0.350115 0.901981,-0.01776 1.16042,-0.05206 1.431687,-0.190038 z M 52.4765,82.424341 c -0.221191,-0.07102 -0.402166,-0.17052 -0.402166,-0.221108 0,-0.05681 0.07283,-0.06892 0.1905,-0.03167 0.78629,0.248949 1.670779,0.248036 2.497667,-0.0026 0.104775,-0.03176 0.1905,-0.02159 0.1905,0.0226 0,0.27497 -1.814031,0.445461 -2.476501,0.232752 z m 0.508,-3.509744 c 0.242761,-0.148014 0.275167,-0.211275 0.275167,-0.537158 0,-0.346796 -0.01998,-0.378395 -0.32669,-0.516702 -0.17968,-0.08102 -0.417805,-0.134437 -0.529167,-0.118693 -0.185979,0.02629 -0.204546,0.07234 -0.227875,0.565184 -0.03707,0.783156 0.212625,0.97072 0.808565,0.607369 z m 1.799167,-0.44978 c 0.02328,-0.316718 0.0061,-0.611993 -0.0381,-0.656167 -0.119447,-0.11927 -0.445256,-0.09741 -0.728104,0.04886 -0.220335,0.11394 -0.249796,0.173998 -0.249796,0.509245 0,0.337515 0.03081,0.399085 0.275167,0.549902 0.151342,0.09341 0.370417,0.159523 0.486833,0.146923 0.197965,-0.02143 0.214408,-0.06019 0.254,-0.598763 z m -1.185333,-0.05915 c 0,-0.186267 -0.0381,-0.338667 -0.08467,-0.338667 -0.04657,0 -0.08467,0.1524 -0.08467,0.338667 0,0.186267 0.0381,0.338667 0.08467,0.338667 0.04657,0 0.08467,-0.1524 0.08467,-0.338667 z m 8.673022,1.94094 c 0.535615,-0.251769 1.169016,-0.955837 1.38911,-1.544088 0.349336,-0.933687 0.191464,-1.814059 -0.43038,-2.399999 -0.68212,-0.642736 -2.035722,-0.613402 -2.801555,0.06071 -0.75362,0.663362 -1.162276,2.212486 -0.779112,2.953441 0.465881,0.900917 1.729912,1.349235 2.621937,0.929934 z m -16.978492,-0.84641 c 0.471588,-0.208285 0.918491,-0.617582 1.076565,-0.985975 0.0643,-0.149847 0.116904,-0.496186 0.116904,-0.769644 0,-0.919869 -0.774075,-2.048083 -1.498438,-2.183975 -0.723531,-0.135735 -1.529996,0.338434 -1.976518,1.162115 -0.422385,0.779155 -0.516314,1.069809 -0.530187,1.640618 -0.01736,0.714214 0.306493,1.143807 0.997705,1.323467 0.400227,0.104026 1.385395,0.0027 1.813969,-0.186606 z M 30.695999,78.490336 c 0.186266,-0.08997 0.382905,-0.164881 0.436974,-0.166461 0.203488,-0.0059 0.512589,-0.506325 0.617155,-0.999065 0.157968,-0.744377 0.09189,-1.808835 -0.130949,-2.109592 -0.263035,-0.355003 -0.65901,-0.592449 -1.097698,-0.658234 -0.32269,-0.04839 -0.467174,-0.02115 -0.830318,0.156514 -1.019086,0.498592 -1.577498,1.277502 -1.577498,2.200397 0,0.691657 0.244253,1.181628 0.748444,1.501377 0.325817,0.206626 0.471136,0.243953 0.940299,0.241524 0.370175,-0.0019 0.667675,-0.05733 0.893591,-0.16646 z M 72.645865,76.16328 c 0.533833,-0.276057 0.765543,-0.8954 0.557982,-1.491449 -0.07134,-0.204873 -0.130268,-0.479775 -0.130946,-0.610895 C 73.07152,73.793791 73.04164,73.727898 72.49011,72.775727 72.119235,72.135444 71.417358,71.381122 70.128327,70.237469 69.797306,69.94378 69.597506,69.666102 68.636639,68.164344 68.455857,67.881795 68.197181,67.31778 68.061805,66.910977 67.926429,66.504174 67.723556,65.980835 67.610976,65.748001 67.498397,65.515168 67.349477,65.181879 67.280043,65.007358 67.13998,64.65531 67.010361,64.584919 66.241402,64.443313 65.506837,64.308041 64.907663,64.047273 64.250534,63.57686 63.939161,63.353961 63.594611,63.149052 63.48487,63.121508 c -0.291013,-0.07304 -0.568383,0.186379 -0.906093,0.84745 -0.204011,0.399353 -0.515212,0.791932 -1.044773,1.317975 -0.913957,0.907887 -1.232572,1.058465 -2.087911,0.986757 -0.624228,-0.05233 -1.402573,-0.335099 -1.480358,-0.537801 -0.05168,-0.134681 -1.700026,-0.958363 -1.921816,-0.960337 -0.07521,-6.77e-4 -0.227612,-0.07083 -0.338667,-0.155908 -0.111055,-0.08508 -0.392418,-0.239343 -0.625251,-0.342808 -0.232834,-0.103466 -0.537634,-0.248383 -0.677334,-0.322037 -0.1397,-0.07365 -0.7112,-0.359408 -1.27,-0.63501 -0.5588,-0.275601 -1.082158,-0.537324 -1.163018,-0.581607 -0.213321,-0.116825 -0.378143,-0.0989 -0.434215,0.04722 -0.08155,0.212507 0.08975,0.524761 0.319505,0.582427 0.277441,0.06963 0.753911,0.488096 0.98916,0.868736 0.157615,0.255026 0.175874,0.372377 0.12905,0.829406 -0.105983,1.034451 -0.503641,1.870816 -1.120026,2.355663 -0.558541,0.439349 -1.773999,0.0528 -2.297623,-0.730702 -0.247357,-0.370123 -0.274887,-0.472805 -0.272402,-1.016 0.0055,-1.19155 0.415715,-1.851739 1.408896,-2.267162 0.42696,-0.178588 0.531652,-0.313823 0.534517,-0.690451 0.0021,-0.281669 -0.381032,-0.544969 -1.107768,-0.761212 -0.85777,-0.255233 -1.781686,-0.356591 -3.25141,-0.356695 -1.080576,-7.7e-5 -1.114521,0.0057 -1.859708,0.317421 -0.417473,0.174625 -0.874673,0.318744 -1.016,0.320265 -0.141328,0.0015 -0.466509,0.07648 -0.722625,0.166569 -0.596936,0.209981 -0.924754,0.20832 -2.116667,-0.01073 -0.535517,-0.09842 -1.297517,-0.208042 -1.693334,-0.243612 -0.774528,-0.0696 -1.039078,-0.120457 -1.566333,-0.301098 -0.374211,-0.128207 -1.995169,-0.375896 -2.459992,-0.375896 -0.319047,0 -0.422767,0.147755 -0.522393,0.744175 -0.05228,0.31301 0.161418,0.609164 0.606647,0.840701 0.62357,0.324282 0.840316,0.939488 0.793659,2.252704 -0.03759,1.058026 -0.122448,1.295948 -0.650582,1.824082 -0.22595,0.22595 -0.466416,0.360115 -0.826552,0.461164 -1.25508,0.352157 -2.155489,0.04305 -2.541885,-0.872605 -0.169968,-0.402782 -0.159856,-1.880769 0.0163,-2.382273 0.146677,-0.417583 1.166661,-1.513281 1.40871,-1.513281 0.602948,0 1.082273,-0.838053 0.698707,-1.221619 -0.290637,-0.290637 -0.808199,-0.149043 -2.624392,0.717979 -0.938746,0.448143 -1.388387,0.805223 -1.396607,1.109109 -0.003,0.109375 -0.194562,0.427465 -0.425784,0.706865 -0.231223,0.2794 -0.485977,0.617897 -0.566121,0.752216 -0.453499,0.760053 -1.178387,1.616971 -1.823973,2.156192 -0.397571,0.332067 -0.746081,0.676936 -0.774469,0.766377 -0.02839,0.08944 -0.219185,0.299931 -0.423998,0.467758 -0.204811,0.167828 -0.398012,0.390262 -0.429337,0.494299 -0.03132,0.104037 -0.162688,0.303458 -0.291921,0.443158 -0.297224,0.321298 -1.066209,1.555756 -1.280391,2.055422 -0.167979,0.391877 -0.225313,1.032187 -0.121667,1.35875 0.06939,0.218642 0.460116,0.443065 0.690234,0.396457 0.08863,-0.01795 0.656439,-0.09458 1.261806,-0.170296 0.605367,-0.07571 1.310217,-0.20764 1.566333,-0.293172 0.256117,-0.08553 0.682416,-0.199571 0.947331,-0.253419 0.264915,-0.05385 0.584998,-0.179188 0.711296,-0.278534 0.545477,-0.429073 1.224871,-0.662985 2.193118,-0.755083 0.905019,-0.08608 0.957654,-0.08177 1.527289,0.125305 1.188306,0.431964 2.007761,0.808607 2.339779,1.075424 0.344291,0.27668 1.595921,0.841084 1.871511,0.84393 0.190306,0.002 1.544766,0.526421 2.252272,0.872095 0.448232,0.218996 0.666678,0.269711 1.290149,0.299519 1.207647,0.05774 1.487128,-0.05535 2.99111,-1.210345 0.323136,-0.248155 0.723186,-0.490279 0.889,-0.538054 0.69726,-0.200896 1.424237,-0.35368 1.740814,-0.365856 1.054699,-0.04056 2.669257,0.355226 3.852333,0.944354 0.34925,0.173913 0.73025,0.345482 0.846667,0.381265 0.116417,0.03578 0.592667,0.255748 1.058333,0.488813 1.881492,0.941683 2.159572,1.070701 2.571197,1.192942 0.235836,0.07004 0.706296,0.150869 1.045466,0.179628 0.339169,0.02876 0.875213,0.09202 1.19121,0.140569 0.74622,0.114656 1.550411,-0.02016 2.177128,-0.364979 0.256117,-0.140914 0.670759,-0.369229 0.921428,-0.507365 0.250669,-0.138137 0.593569,-0.361759 0.762,-0.49694 0.168431,-0.13518 0.700018,-0.456753 1.181305,-0.714606 l 0.875067,-0.468824 h 0.809147 c 0.732789,0 0.873929,0.02751 1.495601,0.29147 0.377549,0.160307 0.929879,0.372049 1.2274,0.470535 0.739178,0.244685 1.657188,0.713292 2.179978,1.112791 0.401022,0.306448 0.723564,0.440822 2.655408,1.106259 0.499542,0.17207 0.966407,0.181606 1.26753,0.02589 z M 57.831667,71.674669 c 0,-0.0872 0.05549,-0.12873 0.148167,-0.110883 0.178464,0.03437 0.167211,0.184631 -0.01669,0.222924 -0.07671,0.01597 -0.131473,-0.0307 -0.131473,-0.112041 z m 0,-0.719667 c 0,-0.112889 0.05644,-0.169334 0.169334,-0.169334 0.112888,0 0.169333,0.05644 0.169333,0.169334 0,0.112888 -0.05644,0.169333 -0.169333,0.169333 -0.112889,0 -0.169334,-0.05644 -0.169334,-0.169333 z M 41.331075,70.30353 c -0.04891,-0.08407 -0.09009,-0.105237 -0.0915,-0.04703 -0.0037,0.152353 -0.228984,0.13052 -0.289849,-0.02809 -0.08875,-0.231279 -0.06079,-0.317943 0.06807,-0.210998 0.09146,0.0759 0.134183,0.07533 0.182258,-0.0025 0.04585,-0.07419 0.09155,-0.06228 0.169358,0.04413 0.100347,0.137234 0.111632,0.136747 0.193469,-0.0083 0.0683,-0.121086 0.109158,-0.132045 0.190833,-0.05119 0.08165,0.08083 0.127575,0.07176 0.214248,-0.04233 0.08996,-0.118425 0.11032,-0.121787 0.11032,-0.01822 0,0.19025 -0.223958,0.448566 -0.331357,0.38219 -0.0517,-0.03196 -0.146414,-0.01461 -0.210465,0.03855 -0.09013,0.0748 -0.136558,0.0621 -0.205384,-0.05621 z M 57.831667,70.32 c 0,-0.07056 0.07526,-0.127 0.169334,-0.127 0.09407,0 0.169333,0.05644 0.169333,0.127 0,0.07055 -0.07526,0.127 -0.169333,0.127 -0.09407,0 -0.169334,-0.05644 -0.169334,-0.127 z M 42.600839,70.014209 c -0.111372,-0.09026 -0.178967,-0.187634 -0.150213,-0.216389 0.02875,-0.02876 0.110352,-0.0041 0.181327,0.05482 0.100604,0.08349 0.129047,0.08413 0.129047,0.0029 0,-0.06888 0.07176,-0.0862 0.211666,-0.05109 0.12206,0.03064 0.211667,0.0166 0.211667,-0.03315 0,-0.04745 0.0762,-0.08628 0.169333,-0.08628 0.09313,0 0.169334,-0.0381 0.169334,-0.08467 0,-0.04657 0.0348,-0.08467 0.07734,-0.08467 0.04344,0 0.0493,0.102054 0.01336,0.232834 -0.04187,0.15234 -0.112511,0.224233 -0.204345,0.207955 -0.0772,-0.01368 -0.140356,0.01897 -0.140356,0.07256 0,0.0552 -0.0597,0.07453 -0.137732,0.04458 -0.07575,-0.02907 -0.180527,-0.0174 -0.232833,0.02593 -0.06167,0.05109 -0.166277,0.0211 -0.297596,-0.08532 z m 15.569495,-0.52551 c 0,-0.158065 0.138091,-0.261413 0.204884,-0.153338 0.02599,0.04205 -0.0095,0.123536 -0.07882,0.181081 -0.102503,0.08507 -0.126068,0.07988 -0.126068,-0.02774 z m -0.338667,-0.0577 c 0,-0.04657 0.0381,-0.08467 0.08467,-0.08467 0.04657,0 0.08467,0.0381 0.08467,0.08467 0,0.04657 -0.0381,0.08467 -0.08467,0.08467 -0.04657,0 -0.08467,-0.0381 -0.08467,-0.08467 z m -0.338666,-0.08467 c 0,-0.04657 0.0381,-0.08467 0.08467,-0.08467 0.04657,0 0.08467,0.0381 0.08467,0.08467 0,0.04657 -0.0381,0.08467 -0.08467,0.08467 -0.04657,0 -0.08467,-0.0381 -0.08467,-0.08467 z m 1.016,-0.127 c 0,-0.07761 0.04096,-0.127459 0.09102,-0.110772 0.05006,0.01669 0.09102,0.06653 0.09102,0.110772 0,0.04424 -0.04096,0.09409 -0.09102,0.110772 -0.05006,0.01669 -0.09102,-0.03316 -0.09102,-0.110772 z m -1.27,-0.04233 c 0,-0.04657 0.0594,-0.08467 0.131997,-0.08467 0.0726,0 0.108449,0.0381 0.07967,0.08467 -0.02878,0.04657 -0.08818,0.08467 -0.131997,0.08467 -0.04382,0 -0.07967,-0.0381 -0.07967,-0.08467 z m 0.369284,-0.296334 c -0.06507,-0.169563 0.03095,-0.405267 0.138118,-0.339036 0.112194,0.06934 0.110441,0.466036 -0.0021,0.466036 -0.04803,0 -0.109255,-0.05715 -0.136059,-0.127 z m 0.563345,-0.02117 c 6.78e-4,-0.08149 0.03676,-0.204249 0.08011,-0.272794 0.06752,-0.106761 0.08684,-0.103727 0.134761,0.02117 0.06664,0.173661 -0.0062,0.399793 -0.128846,0.399793 -0.04803,0 -0.08674,-0.06667 -0.08603,-0.148166 z M 41.747592,68.637727 c -0.135258,-0.135258 -0.104258,-0.284959 0.09804,-0.473427 0.149661,-0.139431 0.1589,-0.172632 0.04804,-0.172632 -0.148612,0 -0.277219,-0.283834 -0.191472,-0.422575 0.08173,-0.132237 0.465553,-0.100789 0.520598,0.04265 0.02703,0.07044 0.0015,0.185458 -0.05668,0.255588 -0.08551,0.103035 -0.08123,0.155646 0.02231,0.274089 0.121819,0.139359 0.135588,0.400121 0.02687,0.508839 -0.08658,0.08658 -0.37635,0.07882 -0.467702,-0.01253 z m 15.491409,-0.561392 c 0,-0.1397 0.0381,-0.254 0.08467,-0.254 0.04657,0 0.08467,-0.20955 0.08467,-0.465667 v -0.465667 h 0.635 0.635 v 0.508001 c 0,0.395111 0.02822,0.508 0.127,0.508 0.07902,0 0.127,0.07996 0.127,0.211666 v 0.211667 h -0.846667 -0.846666 z m 1.524,0.04233 c 0,-0.06985 -0.0362,-0.127 -0.08044,-0.127 -0.04424,0 -0.09187,-0.219075 -0.105833,-0.486833 l -0.02539,-0.486834 -0.519062,-0.02494 -0.519064,-0.02494 -0.03988,0.575278 c -0.02193,0.316403 -0.02423,0.603853 -0.0051,0.638778 0.01912,0.03493 0.318275,0.0635 0.664777,0.0635 0.503558,0 0.630003,-0.02549 0.630003,-0.127 z M 39.546416,67.742807 c -0.04833,-0.09031 -0.05592,-0.183945 -0.01686,-0.208082 0.03905,-0.02414 0.06341,-0.131225 0.05412,-0.237972 -0.0093,-0.106747 0.02067,-0.24171 0.06659,-0.299918 0.138486,-0.175572 0.295578,-0.119324 0.295578,0.105833 0,0.116417 -0.02977,0.211667 -0.06616,0.211667 -0.03639,0 -0.04623,0.0762 -0.02188,0.169333 0.02435,0.09313 0.0029,0.169334 -0.0476,0.169334 -0.05054,0 -0.06995,0.05715 -0.04315,0.127 0.07168,0.186789 -0.117859,0.154836 -0.220632,-0.03719 z m 2.062044,-0.549802 c -0.09089,-0.236863 0.034,-0.399956 0.284224,-0.371174 0.185269,0.02131 0.233316,0.07043 0.233316,0.238504 0,0.168078 -0.04805,0.217193 -0.233316,0.238503 -0.152151,0.0175 -0.251024,-0.01932 -0.284224,-0.105833 z m 2.361958,0.01135 c 0.02809,-0.0732 0.01576,-0.14507 -0.02738,-0.15972 -0.04315,-0.01465 -0.09109,-0.142659 -0.106532,-0.284466 -0.01544,-0.141806 -0.05645,-0.303731 -0.09112,-0.359833 -0.03698,-0.05983 -0.01722,-0.101468 0.04779,-0.100708 0.182957,0.0021 0.348179,0.142652 0.286015,0.243238 -0.032,0.05177 -0.01375,0.09413 0.04054,0.09413 0.0543,0 0.07774,0.05469 0.05209,0.12153 -0.02565,0.06684 -0.0012,0.138143 0.05444,0.158448 0.07406,0.02705 0.07683,0.07809 0.01036,0.190931 -0.117843,0.200067 -0.33634,0.279232 -0.2662,0.09645 z M 41.237,65.875001 c -0.06144,-0.114807 -0.0624,-0.169333 -0.003,-0.169333 0.0482,0 0.08764,0.0381 0.08764,0.08467 0,0.04657 0.13119,0.08467 0.291533,0.08467 0.205281,0 0.330526,-0.05567 0.423334,-0.188172 0.09609,-0.137194 0.1318,-0.152217 0.1318,-0.05546 0,0.376258 -0.754695,0.573679 -0.931333,0.243627 z m -0.254001,-0.592666 c 0,-0.112889 0.05645,-0.169334 0.169334,-0.169334 0.112888,0 0.169333,0.05644 0.169333,0.169334 0,0.112888 -0.05645,0.169333 -0.169333,0.169333 -0.112889,0 -0.169334,-0.05644 -0.169334,-0.169333 z m 0.932485,6.77e-4 c -0.153674,-0.09498 -0.035,-0.358313 0.145787,-0.323496 0.0811,0.01562 0.159283,0.08984 0.173746,0.164937 0.03095,0.160726 -0.161503,0.256227 -0.319533,0.158559 z m -0.681869,-0.748426 c -0.146379,-0.118531 -0.178453,-0.206937 -0.136183,-0.375357 0.06843,-0.272641 0.362441,-0.383674 0.541586,-0.204529 0.17015,0.17015 0.0727,0.416073 -0.150994,0.381039 -0.182576,-0.02859 -0.19994,-0.204874 -0.01819,-0.184679 0.05821,0.0065 0.105833,-0.02211 0.105833,-0.0635 0,-0.114977 -0.221395,-0.08956 -0.326865,0.03752 -0.06902,0.08317 -0.06472,0.152275 0.0164,0.263208 0.158581,0.216872 0.417515,0.132626 0.564469,-0.183655 0.136397,-0.293559 0.254,-0.359993 0.254,-0.143486 0,0.144954 -0.443747,0.628487 -0.576774,0.628487 -0.04499,0 -0.167964,-0.06977 -0.273277,-0.155048 z m -6.464206,2.65806 c 0.858478,-0.261674 1.13359,-0.745845 1.13359,-1.994978 0,-0.961657 -0.108502,-1.322466 -0.528046,-1.755953 -0.320674,-0.33133 -0.682049,-0.412285 -1.241399,-0.278099 -0.336849,0.08081 -0.509397,0.195017 -0.877026,0.580493 -0.575958,0.60392 -0.636232,0.719764 -0.734113,1.410928 -0.148339,1.047463 0.121687,1.862798 0.704801,2.128123 0.306689,0.139548 0.902253,0.104606 1.542193,-0.09048 z m 16.769824,-0.102915 c 0.162152,-0.07695 0.450504,-0.350641 0.640782,-0.60821 0.340141,-0.460432 0.346032,-0.480505 0.350317,-1.193597 0.005,-0.833503 -0.129532,-1.179076 -0.565942,-1.453651 -0.215813,-0.135783 -0.360247,-0.160917 -0.708674,-0.123326 -1.197134,0.129159 -1.499417,0.468998 -1.592726,1.790604 l -0.06031,0.854251 0.367993,0.319702 c 0.640111,0.556109 1.044514,0.662904 1.56856,0.414227 z m 9.184144,-1.951187 c 0.233232,-0.17705 0.701739,-0.636322 1.041128,-1.020603 0.621636,-0.703864 0.720417,-0.920017 0.722897,-1.58185 0.0012,-0.331772 0.300746,-0.640457 0.621403,-0.640457 0.190208,0 0.324706,0.08461 0.546605,0.343846 0.223075,0.260613 0.564054,0.474149 1.408636,0.882154 1.335837,0.645354 2.033125,0.890701 2.531317,0.890701 0.840946,0 1.127463,-0.304672 1.05539,-1.122261 -0.05592,-0.634376 -0.764386,-1.851953 -1.371202,-2.35657 -0.455416,-0.378716 -1.043535,-1.160095 -1.969861,-2.61717 -1.128052,-1.77438 -1.79562,-3.26483 -1.802338,-4.023994 -0.0017,-0.187548 -0.06233,-0.425673 -0.134818,-0.529167 C 63.251716,53.190682 63.172198,53.175 62.418332,53.175 c -0.983146,0 -1.861133,-0.21622 -2.552953,-0.628714 -0.257058,-0.153269 -0.591378,-0.338376 -0.742935,-0.41135 -0.253339,-0.121982 -0.281429,-0.121241 -0.348392,0.0092 -0.0924,0.179972 -0.03237,0.353538 0.122272,0.353538 0.130368,0 0.784023,0.464547 1.165964,0.82864 0.706488,0.673473 0.881318,1.523447 0.56099,2.72736 -0.304028,1.142657 -0.443888,1.347456 -1.439299,2.107594 -0.245768,0.187679 -0.316221,0.198821 -0.956972,0.151349 -1.149131,-0.08514 -2.016295,-0.528998 -2.243277,-1.148225 -0.302506,-0.825267 -0.349672,-2.42796 -0.08927,-3.033517 0.06428,-0.14949 0.370605,-0.534824 0.680717,-0.856299 0.500413,-0.518748 0.619465,-0.597701 1.058334,-0.701867 0.471196,-0.111839 0.495771,-0.130706 0.521615,-0.400455 0.03471,-0.362299 -0.15597,-0.576529 -0.561841,-0.631226 -0.171571,-0.02312 -0.464347,-0.08313 -0.650614,-0.133343 -0.186266,-0.05022 -0.729378,-0.09221 -1.206915,-0.09332 -0.736748,-0.0017 -0.929773,0.02766 -1.274471,0.193948 -0.556237,0.268338 -2.056225,1.274914 -2.275262,1.526828 -0.271598,0.312365 -0.717165,0.422532 -1.501199,0.371171 -0.639394,-0.04189 -2.078822,-0.390852 -3.055487,-0.740756 -0.232833,-0.08342 -0.690033,-0.234692 -1.016,-0.336168 -0.325966,-0.101477 -0.706966,-0.235981 -0.846666,-0.2989 -0.64171,-0.289012 -2.253815,-0.741863 -2.338718,-0.65696 -0.135791,0.135792 0.09118,0.432408 0.411873,0.538245 0.151715,0.05007 0.275844,0.126183 0.275844,0.169138 0,0.04295 0.04902,0.0781 0.108928,0.0781 0.137116,0 0.721903,0.775971 0.839921,1.114517 0.136108,0.390441 0.03925,1.409307 -0.173425,1.824203 -0.210584,0.410822 -0.7071,0.896065 -1.222139,1.19439 -0.428909,0.248436 -0.882272,0.25292 -1.707633,0.01689 -1.05353,-0.301282 -1.316985,-0.629805 -1.316985,-1.642254 0,-0.400067 0.277485,-1.178263 0.516821,-1.449409 0.08221,-0.09313 0.294828,-0.371028 0.47249,-0.617544 0.230394,-0.319684 0.456554,-0.514783 0.788689,-0.680371 0.426022,-0.212396 0.465667,-0.256386 0.465667,-0.516715 0,-0.259878 -0.04405,-0.309111 -0.508,-0.567744 -0.2794,-0.155754 -0.638736,-0.344062 -0.798524,-0.418461 -0.469758,-0.218724 -1.601368,-0.399155 -2.16481,-0.345171 -0.725835,0.06954 -2.336218,0.605824 -2.709129,0.902177 -0.170176,0.135239 -0.510826,0.304441 -0.756998,0.376006 -0.246172,0.07156 -0.557601,0.187491 -0.692063,0.257615 -0.134463,0.07012 -0.327953,0.127732 -0.42998,0.128019 -0.102027,2.54e-4 -0.212012,0.04341 -0.244412,0.09584 -0.03793,0.06137 -0.219632,0.07873 -0.510254,0.04873 l -0.451345,-0.04658 -0.193243,0.395767 c -0.106284,0.217671 -0.279795,0.491016 -0.385582,0.607433 -0.105786,0.116416 -0.230166,0.351149 -0.2764,0.521627 -0.04623,0.170479 -0.283531,0.615604 -0.527328,0.989168 -1.345763,2.062084 -1.803741,2.778948 -1.8555,2.904374 -0.03166,0.07673 -0.09572,0.163084 -0.142353,0.191904 -0.134614,0.0832 -1.076518,1.343255 -1.239078,1.657612 -0.08112,0.156865 -0.367517,0.497408 -0.636441,0.756763 -0.268924,0.259354 -0.516384,0.566802 -0.549911,0.683219 -0.03353,0.116417 -0.132814,0.330464 -0.220638,0.47566 -0.424084,0.701126 0.06741,1.471673 0.938715,1.471673 0.323665,0 0.652469,-0.113871 2.330606,-0.807135 1.575679,-0.650936 2.213624,-0.803253 3.655424,-0.872776 1.537967,-0.07416 2.613446,0.05828 3.959645,0.487624 1.033327,0.329558 2.88878,0.641588 3.772599,0.634436 0.952931,-0.0077 1.608248,-0.120142 2.855541,-0.489916 1.17414,-0.348087 1.500411,-0.366917 3.70895,-0.21405 l 1.341441,0.09285 1.021201,0.445945 c 0.56166,0.24527 1.345051,0.598995 1.740867,0.786056 0.395817,0.187061 1.519767,0.712439 2.497667,1.167507 0.9779,0.455068 1.967473,0.964436 2.199051,1.131928 0.635341,0.459519 1.39771,0.694223 2.103942,0.64772 0.508779,-0.0335 0.628225,-0.07642 1.001717,-0.359946 z m -1.902326,-7.343651 c 0.680551,-0.31686 1.103782,-1.099888 1.297916,-2.401296 l 0.104774,-0.702368 -0.275178,-0.542146 c -0.278461,-0.548612 -0.571534,-0.813238 -1.167342,-1.054034 -0.35388,-0.143022 -1.188822,-0.07469 -1.51457,0.123954 -0.342493,0.208854 -0.744294,0.787851 -0.963011,1.387703 -0.252784,0.693285 -0.208264,1.855439 0.08954,2.337291 0.164074,0.265477 0.554984,0.718303 0.620089,0.718303 0.01131,0 0.228656,0.07483 0.482985,0.166279 0.603657,0.217067 0.796782,0.212157 1.3248,-0.03369 z M 43.907585,55.627685 c 0.284534,-0.210197 0.510821,-0.458109 0.589052,-0.64534 0.152965,-0.366099 0.164432,-1.4337 0.0182,-1.694183 -0.209102,-0.372464 -0.739332,-0.862524 -1.040917,-0.962056 -0.596753,-0.196946 -1.432528,0.264183 -1.861422,1.027018 -0.563449,1.002154 -0.612636,1.559515 -0.184994,2.096284 0.32693,0.410358 0.577019,0.501771 1.400615,0.511957 0.593415,0.0073 0.635432,-0.0056 1.07947,-0.33368 z m 7.918734,-2.963738 c 0.296926,-0.15148 0.756015,-0.610436 0.756015,-0.755795 0,-0.03769 0.142875,-0.134877 0.3175,-0.215975 0.174625,-0.0811 0.37465,-0.196179 0.4445,-0.255737 0.06985,-0.05956 0.52705,-0.233639 1.016,-0.386847 0.821523,-0.257417 0.975755,-0.278538 2.032,-0.278273 0.965555,2.54e-4 1.226259,0.02963 1.679303,0.189287 0.589011,0.207576 1.368994,0.618418 1.722479,0.907286 0.124731,0.101928 0.359027,0.210134 0.52066,0.240456 0.161632,0.03032 0.338737,0.109186 0.393567,0.175252 0.234222,0.28222 0.889512,0.397217 2.100696,0.368652 l 1.169689,-0.02759 0.57253,-0.373293 c 0.628308,-0.409659 0.985077,-0.940513 0.985077,-1.465745 0,-0.333231 -0.731461,-1.569015 -1.102412,-1.862496 C 64.29966,48.81691 64.015255,48.59665 63.801911,48.433667 63.588568,48.270683 63.35133,48.042083 63.274716,47.925667 63.198103,47.80925 62.938345,47.50445 62.697477,47.248333 62.199824,46.719175 61.54288,45.793516 60.8419,44.633757 60.57787,44.196924 60.25231,43.701624 60.118433,43.53309 59.984556,43.364557 59.786626,43.055216 59.678589,42.845666 59.570551,42.636116 59.269424,42.140816 59.009417,41.745 c -0.597023,-0.90887 -1.008416,-1.59903 -1.008416,-1.691736 0,-0.0395 -0.295275,-0.09466 -0.656167,-0.122588 -2.106182,-0.162966 -2.50757,-0.234019 -3.882396,-0.687257 -0.611341,-0.201541 -0.964771,-0.196906 -0.964771,0.01265 0,0.06379 0.123825,0.173407 0.275167,0.243584 1.072262,0.497211 1.378801,0.923703 1.370417,1.906678 -0.0083,0.976189 -0.199989,1.498107 -0.736473,2.005492 -0.582608,0.551006 -0.911238,0.657009 -1.820249,0.587136 -0.391976,-0.03013 -0.793421,-0.09799 -0.8921,-0.150801 -0.506165,-0.270892 -0.736762,-0.934556 -0.736762,-2.120419 v -0.833192 l 0.359751,-0.390284 c 0.310496,-0.336848 0.822318,-0.697453 1.420965,-1.001144 0.21176,-0.107425 0.263926,-0.253958 0.174211,-0.489357 -0.05275,-0.138408 -0.212543,-0.231239 -0.59044,-0.343016 -0.284965,-0.08429 -0.622826,-0.163353 -0.750803,-0.175701 -0.240063,-0.02316 -0.812174,0.212973 -0.913601,0.377083 -0.143141,0.231608 -0.852424,0.434543 -1.56275,0.447124 -0.719036,0.01273 -0.720779,0.01224 -1.988499,-0.563731 -0.697859,-0.317063 -1.329509,-0.631388 -1.403668,-0.6985 -0.31383,-0.284013 -1.897901,-0.0269 -2.860812,0.46434 -0.193794,0.09887 -0.628278,0.278102 -0.96552,0.398304 -0.637526,0.227229 -1.586835,0.707322 -1.586835,0.802509 0,0.08844 0.185866,0.202451 0.592667,0.363546 0.827171,0.327565 0.925047,0.401983 1.147706,0.872645 0.11877,0.251061 0.237614,0.639422 0.264096,0.863025 0.04257,0.359392 0.0062,0.49114 -0.313216,1.135817 -0.270033,0.54495 -0.445434,0.787526 -0.693986,0.959773 -0.182941,0.126778 -0.379575,0.297544 -0.436965,0.379478 -0.05739,0.08193 -0.335564,0.303375 -0.618166,0.49209 -0.4475,0.298829 -0.574901,0.343116 -0.987033,0.343116 -0.406668,0 -0.514523,-0.03627 -0.766997,-0.257948 -0.333156,-0.292514 -0.522725,-0.784877 -0.607978,-1.579081 -0.06376,-0.594016 0.086,-1.55451 0.295604,-1.895816 0.439829,-0.716196 0.603221,-0.894917 0.990149,-1.083044 0.405386,-0.197101 0.626119,-0.38849 0.626119,-0.542886 0,-0.04472 -0.251024,-0.05187 -0.597909,-0.01703 -0.815238,0.08187 -1.014969,0.282358 -1.68643,1.692807 -0.288192,0.605367 -0.549337,1.141555 -0.580323,1.191529 -0.275931,0.44502 -0.638855,0.962879 -0.797888,1.138512 -0.106263,0.117354 -0.379678,0.536454 -0.607587,0.931333 -0.895217,1.551059 -1.190878,1.969516 -1.907974,2.7004 -0.799348,0.814719 -1.103223,1.314559 -1.103223,1.814677 0,0.893818 0.559558,1.359412 2.346256,1.952257 0.409585,0.135904 0.47897,0.136751 0.966742,0.01179 0.289018,-0.07404 0.642903,-0.207189 0.786412,-0.29588 0.143508,-0.08869 0.451424,-0.22467 0.684257,-0.302176 0.232833,-0.0775 0.583657,-0.233353 0.779608,-0.346329 0.648898,-0.374125 1.904071,-0.658141 2.903392,-0.65697 0.783138,9.15e-4 0.959575,0.02996 1.481667,0.243904 0.325967,0.133575 0.630767,0.287063 0.677334,0.341084 0.118751,0.137763 0.934597,0.445708 1.439333,0.543284 0.60819,0.117574 1.457186,0.379717 1.947334,0.601272 0.232833,0.105245 0.537633,0.220753 0.677333,0.256685 0.1397,0.03593 0.69215,0.222728 1.227667,0.415101 1.020714,0.36667 2.010853,0.685883 2.582333,0.832524 0.466298,0.119652 1.448977,0.03479 1.826319,-0.157715 z M 47.08152,44.881593 c -0.306125,-0.477054 -0.31068,-0.707715 -0.03088,-1.5635 l 0.136202,-0.416574 0.241125,0.289574 c 0.23098,0.277389 0.238882,0.315685 0.18779,0.910127 -0.02933,0.341304 -0.09913,0.753766 -0.155105,0.916582 l -0.10177,0.296029 z M 43.923563,44.22074 c -0.176824,-0.03948 -0.497903,-0.625228 -0.415361,-0.757744 0.03142,-0.05045 0.307136,-0.118403 0.612698,-0.151015 l 0.555567,-0.0593 0.269934,0.307437 c 0.148463,0.16909 0.269932,0.339589 0.269932,0.378886 0,0.16046 -0.92909,0.362936 -1.29277,0.281732 z m 1.84984,-1.438574 -0.207334,-0.3175 0.1784,-0.550333 c 0.09812,-0.302683 0.188272,-0.563602 0.20034,-0.57982 0.01207,-0.01622 0.118602,0.04093 0.236739,0.127 0.143883,0.104823 0.215676,0.23851 0.217458,0.404932 0.0034,0.322085 -0.252156,1.233221 -0.345962,1.233221 -0.03977,0 -0.165608,-0.142875 -0.279641,-0.3175 z m -1.651229,-0.344033 c -0.252538,-0.125106 -0.475517,-0.277278 -0.495508,-0.338157 -0.04692,-0.142883 0.618911,-0.77831 0.81555,-0.77831 0.311157,0 0.579547,1.00737 0.33385,1.253067 -0.128847,0.128847 -0.110207,0.132742 -0.653892,-0.1366 z M 39.355098,44.3485 c 0.33334,-0.201741 0.559522,-0.433316 0.847625,-0.867834 0.351673,-0.530392 0.396532,-0.652876 0.426927,-1.16569 0.03941,-0.664816 -0.06787,-0.989902 -0.426128,-1.291358 -0.588258,-0.494986 -2.25705,-0.09148 -2.633301,0.636715 -0.124964,0.241854 -0.146065,0.436424 -0.114776,1.058333 0.04692,0.932521 0.168288,1.35276 0.481023,1.665495 0.341919,0.341919 0.814373,0.330042 1.41863,-0.03566 z m 13.289448,-1.126501 c 0.309309,-0.154136 0.508831,-0.332751 0.693957,-0.621246 0.231735,-0.361127 0.259391,-0.472774 0.255764,-1.032499 -0.0053,-0.816085 -0.167325,-1.15725 -0.67004,-1.410755 -0.516276,-0.260343 -0.736463,-0.241142 -1.388095,0.121045 C 50.765378,40.70694 50.508,41.08707 50.508,41.797027 c 0,0.31285 0.04362,0.575789 0.105834,0.638006 0.05821,0.05821 0.105833,0.15913 0.105833,0.224271 0,0.214858 0.266134,0.684094 0.409542,0.722086 0.440908,0.11681 1.100247,0.04746 1.515337,-0.159391 z m 4.800124,-4.095593 c 0.339155,-0.05567 0.483087,-0.138089 0.768322,-0.43998 0.287145,-0.303912 0.386711,-0.502287 0.547389,-1.090621 0.183394,-0.671508 0.189848,-0.772209 0.09743,-1.520402 -0.102994,-0.833857 -0.258019,-1.237517 -0.814079,-2.119737 -0.16143,-0.256117 -0.355489,-0.599017 -0.431243,-0.762 -0.07575,-0.162984 -0.314605,-0.495102 -0.53078,-0.738041 -0.699751,-0.786385 -0.920769,-1.075314 -1.119359,-1.463293 -0.107259,-0.20955 -0.317095,-0.5334 -0.466302,-0.719667 -0.485281,-0.605814 -1.291603,-2.061156 -1.61836,-2.921 -0.115026,-0.302683 -0.245177,-0.593772 -0.289226,-0.646863 -0.06435,-0.07756 -0.498131,-1.108011 -0.498131,-1.183316 0,-0.01104 0.06668,-0.03544 0.148166,-0.05423 0.12362,-0.0285 0.1131,-0.0522 -0.0635,-0.143027 -0.116416,-0.05988 -0.421216,-0.355669 -0.677333,-0.657314 -1.2343,-1.453717 -2.05276,-2.292406 -2.576356,-2.640034 -0.296363,-0.196763 -0.405163,-0.218825 -0.996458,-0.202062 -0.670143,0.019 -1.02326,0.131551 -2.31152,0.736768 -0.232833,0.109383 -0.710536,0.332244 -1.061561,0.495244 l -0.638228,0.296365 -0.442335,0.877403 c -0.243284,0.482571 -0.441856,0.928361 -0.441272,0.990646 0.0012,0.130655 -0.507541,1.072373 -0.866386,1.603663 -0.134566,0.199233 -0.340646,0.580233 -0.457956,0.846667 -0.117309,0.266435 -0.300056,0.598921 -0.406103,0.738859 -0.106048,0.139937 -0.335321,0.539987 -0.509497,0.889 -0.174176,0.349012 -0.404433,0.729818 -0.511682,0.846234 -0.107249,0.116417 -0.298572,0.402167 -0.425163,0.635 -0.12659,0.232834 -0.298382,0.499534 -0.381761,0.592667 -0.08338,0.09313 -0.245721,0.378883 -0.360762,0.635 -0.115041,0.256117 -0.402126,0.701696 -0.637966,0.990175 -0.235841,0.28848 -0.503237,0.66948 -0.594214,0.846667 -0.189931,0.369909 -1.528876,2.370895 -2.060433,3.079213 -0.345858,0.460867 -0.576348,0.979176 -0.576348,1.296046 0,0.222325 0.06228,0.344586 0.260496,0.511374 0.248458,0.209064 0.307271,0.219192 1.272719,0.219192 0.70822,0 1.103512,-0.03814 1.316177,-0.127 0.167176,-0.06985 0.358383,-0.127 0.424908,-0.127 0.06653,0 0.547647,-0.206478 1.069161,-0.458841 1.519993,-0.735529 2.222829,-0.934618 3.24285,-0.918584 0.711182,0.01118 0.953723,0.05229 1.439333,0.243984 0.321213,0.126796 0.659176,0.281292 0.751029,0.343323 0.09185,0.06203 0.217221,0.112785 0.278595,0.112785 0.06137,0 0.214821,0.07623 0.340994,0.1694 0.126173,0.09317 0.49524,0.245357 0.820149,0.338194 0.540806,0.154525 0.637894,0.159035 1.148512,0.05335 0.402134,-0.08323 0.72755,-0.228341 1.166241,-0.520049 l 0.608473,-0.404608 0.774725,0.05019 c 0.745037,0.04827 0.820467,0.07274 1.968349,0.638571 1.121522,0.552837 1.577991,0.729353 2.082624,0.805347 0.398127,0.05995 1.81983,0.04492 2.237669,-0.02366 z M 53.809636,24.305824 c 0.08437,-0.499377 -0.204686,-5.141899 -0.345422,-5.547826 -0.06458,-0.186267 -0.11797,-0.39654 -0.118648,-0.467275 -0.0012,-0.124892 1.139346,-1.282282 1.650321,-1.6747 0.588333,-0.451826 2.40428,-2.331987 2.589427,-2.680991 0.198779,-0.374703 0.199163,-0.380297 0.03431,-0.500842 -0.170602,-0.124747 -2.23724,-0.64004 -3.301621,-0.823221 -0.325967,-0.0561 -0.649817,-0.132024 -0.719667,-0.168721 C 53.528484,12.40555 53.223684,12.257236 52.921,12.11266 52.287894,11.81026 52.104888,11.600005 51.982672,11.034623 51.934565,10.812079 51.862169,10.477597 51.82179,10.29133 51.714306,9.795503 51.19081,8.3284695 50.938225,7.8152454 50.818018,7.5709987 50.719667,7.3321165 50.719667,7.2843962 c 0,-0.148676 -0.41303,-0.7492608 -0.574826,-0.8358513 -0.08468,-0.04532 -0.194949,-0.056483 -0.24504,-0.024807 -0.20965,0.1325745 -1.27385,1.804023 -1.977309,3.1055926 -0.151008,0.2794 -0.324914,0.5665415 -0.386458,0.6380935 -0.06155,0.07155 -0.189531,0.30559 -0.284412,0.520087 -0.183372,0.414542 -0.292762,0.49282 -0.688696,0.49282 -0.136523,0 -0.314382,0.0343 -0.395242,0.07621 -0.197478,0.102371 -1.285563,0.255152 -2.475351,0.347571 -1.129835,0.08776 -2.012384,0.237979 -2.084593,0.354815 -0.02777,0.04493 0.06991,0.316754 0.217062,0.604049 0.251467,0.490946 0.523147,0.878328 1.446585,2.062652 0.210863,0.270434 0.496613,0.677833 0.635,0.905328 0.138387,0.227495 0.317129,0.513245 0.397205,0.635 0.467997,0.711589 0.460948,0.558621 0.09604,2.084039 -0.234125,0.978698 -0.801704,3.730382 -0.878271,4.257954 -0.04251,0.292942 -0.09742,0.565175 -0.122009,0.604962 -0.137469,0.222432 0.908918,0.06593 1.177753,-0.176154 0.04424,-0.03984 0.133713,-0.07243 0.198833,-0.07243 0.110759,0 1.213875,-0.495029 1.879734,-0.84354 0.162983,-0.08531 0.486833,-0.219041 0.719666,-0.297189 0.5233,-0.17564 2.195694,-0.387934 2.540001,-0.322428 0.183988,0.035 0.615834,0.412508 1.566722,1.369575 2.006529,2.019561 2.221746,2.1615 2.32758,1.535075 z"
       id="path867" />
  </g>
</svg>
