<?xml version="1.0" encoding="UTF-8" standalone="no"?>
<svg
   xmlns:dc="http://purl.org/dc/elements/1.1/"
   xmlns:cc="http://creativecommons.org/ns#"
   xmlns:rdf="http://www.w3.org/1999/02/22-rdf-syntax-ns#"
   xmlns:svg="http://www.w3.org/2000/svg"
   xmlns="http://www.w3.org/2000/svg"
   xmlns:sodipodi="http://sodipodi.sourceforge.net/DTD/sodipodi-0.dtd"
   xmlns:inkscape="http://www.inkscape.org/namespaces/inkscape"
   width="100mm"
   height="100mm"
   viewBox="0 0 100 100"
   version="1.1"
   id="svg8"
   inkscape:version="1.0.1 (3bc2e813f5, 2020-09-07)"
   sodipodi:docname="top.svg">
  <defs
     id="defs2" />
  <sodipodi:namedview
     id="base"
     pagecolor="#ffffff"
     bordercolor="#666666"
     borderopacity="1.0"
     inkscape:pageopacity="0.0"
     inkscape:pageshadow="2"
     inkscape:zoom="1.4"
     inkscape:cx="135.29573"
     inkscape:cy="193.8559"
     inkscape:document-units="mm"
     inkscape:current-layer="layer2"
     inkscape:document-rotation="0"
     showgrid="false"
     inkscape:window-width="1366"
     inkscape:window-height="728"
     inkscape:window-x="0"
     inkscape:window-y="0"
     inkscape:window-maximized="0" />
  <metadata
     id="metadata5">
    <rdf:RDF>
      <cc:Work
         rdf:about="">
        <dc:format>image/svg+xml</dc:format>
        <dc:type
           rdf:resource="http://purl.org/dc/dcmitype/StillImage" />
        <dc:title></dc:title>
      </cc:Work>
    </rdf:RDF>
  </metadata>
  <g
     inkscape:groupmode="layer"
     id="layer2"
     inkscape:label="top"
     style="display:inline">
    <path
       style="fill:#000000;stroke-width:0.0846667"
       d="m 46.444,93.264077 c -0.372533,-0.06149 -1.001184,-0.155507 -1.397,-0.208906 -0.395817,-0.0534 -1.119717,-0.15544 -1.608667,-0.226754 -0.498764,-0.07275 -1.213961,-0.114817 -1.629296,-0.09583 -0.655677,0.02998 -0.745821,0.01643 -0.788632,-0.118449 -0.02658,-0.08376 -0.0286,-0.184226 -0.0045,-0.223266 0.02413,-0.03904 0.08582,-0.334653 0.13709,-0.65692 0.05128,-0.322275 0.167344,-0.711954 0.257933,-0.865962 0.09554,-0.162408 0.164708,-0.435881 0.164708,-0.651163 0,-0.20414 0.0381,-0.394716 0.08467,-0.423494 0.04657,-0.02878 0.08467,-0.236195 0.08467,-0.460926 0,-0.342595 -0.03425,-0.431038 -0.21203,-0.547522 -0.116615,-0.07641 -0.33569,-0.163119 -0.486833,-0.192693 -0.151142,-0.02957 -0.499572,-0.157633 -0.774289,-0.284599 -0.404109,-0.186766 -0.549613,-0.216289 -0.762,-0.154609 -0.144383,0.04194 -0.414915,0.05475 -0.601182,0.0285 -0.245385,-0.03459 -0.420288,-0.0026 -0.635,0.116104 -1.071316,0.592387 -1.637503,0.860747 -1.81601,0.860747 -0.112732,0 -0.306008,0.03841 -0.429503,0.08537 -0.383206,0.145694 -3.157253,0.115815 -3.822194,-0.04117 -0.779914,-0.184125 -1.491406,-0.392718 -1.594627,-0.467512 -0.04657,-0.03374 -0.180464,-0.08412 -0.29755,-0.111955 -0.117086,-0.02784 -0.555236,-0.340326 -0.973667,-0.694419 -0.418431,-0.354085 -0.886835,-0.697501 -1.040899,-0.763135 -0.154062,-0.06564 -0.378276,-0.196562 -0.498251,-0.290932 -0.119974,-0.09437 -0.268456,-0.171585 -0.329958,-0.171585 -0.0615,0 -0.244988,-0.09036 -0.407746,-0.200821 -0.185598,-0.12595 -0.526327,-0.235534 -0.913927,-0.293946 -0.54618,-0.0823 -0.630302,-0.07677 -0.723836,0.04767 -0.05821,0.07744 -0.105833,0.164321 -0.105833,0.193082 0,0.02875 0.295275,0.139556 0.656167,0.246236 0.586376,0.173321 0.707587,0.247345 1.139619,0.69596 0.535811,0.556379 0.61584,0.779205 0.60475,1.683817 -0.0076,0.616289 -0.285513,1.344719 -0.634323,1.662354 -0.2293,0.208797 -1.229826,0.729403 -1.76409,0.917905 -0.648569,0.228829 -1.531557,0.09533 -2.088827,-0.315815 -0.357977,-0.264109 -0.87663,-0.957165 -0.87663,-1.171406 0,-0.09579 -0.0381,-0.245364 -0.08467,-0.332376 -0.107094,-0.200109 0.11332,-1.310733 0.296474,-1.493892 0.06978,-0.06977 0.126864,-0.18459 0.126864,-0.255152 0,-0.383701 1.524686,-1.468281 2.064094,-1.468281 0.251394,0 0.30614,-0.06987 0.226489,-0.289077 -0.05149,-0.141698 -0.166149,-0.166379 -0.911624,-0.196224 -0.469002,-0.01877 -0.999707,0.0049 -1.179345,0.05267 -0.179638,0.04774 -1.031464,0.149555 -1.892947,0.226246 -0.861484,0.0767 -1.630504,0.173558 -1.708935,0.215248 -0.07843,0.04169 -0.21664,0.0758 -0.307132,0.0758 -0.09049,0 -0.210249,0.05508 -0.266125,0.122411 -0.07551,0.09099 -0.155657,0.101854 -0.312212,0.04233 -0.115841,-0.04404 -0.293864,-0.08018 -0.395608,-0.08031 -0.101743,0 -0.356439,-0.148226 -0.565989,-0.329108 l -0.381,-0.328879 0.003,-0.919726 0.003,-0.919725 0.368781,-0.592667 c 0.406224,-0.652843 0.609728,-0.934923 1.22109,-1.692567 0.225794,-0.279822 0.617942,-0.765941 0.871439,-1.080266 0.253497,-0.314325 0.488872,-0.5715 0.523055,-0.5715 0.065,0 2.425463,-2.31408 3.032899,-2.973298 0.406014,-0.440624 1.385071,-1.902621 1.385071,-2.068284 0,-0.06181 0.163532,-0.352916 0.363405,-0.6469 0.199871,-0.293986 0.450271,-0.676815 0.556443,-0.850731 l 0.193038,-0.316213 -0.624258,0.01949 c -0.475755,0.01485 -0.677909,-0.01566 -0.849797,-0.128288 -0.124043,-0.08128 -0.278121,-0.14778 -0.342392,-0.14778 -0.06427,0 -0.183663,-0.07382 -0.265314,-0.164044 -0.115945,-0.128117 -0.136085,-0.24401 -0.09196,-0.529167 0.09535,-0.616194 0.311332,-1.187572 0.649943,-1.719394 0.178032,-0.279617 0.441354,-0.746588 0.585161,-1.037712 0.143805,-0.291124 0.307082,-0.576875 0.362836,-0.635 0.05576,-0.05813 0.241856,-0.299096 0.41356,-0.535489 0.171704,-0.236393 0.590325,-0.693593 0.93027,-1.016 0.630182,-0.597669 1.482319,-1.539065 1.626746,-1.797141 0.04404,-0.07869 0.211978,-0.285642 0.373206,-0.459898 0.315557,-0.341056 0.691119,-0.8645 0.691119,-0.963254 0,-0.03341 0.13335,-0.341688 0.296333,-0.685057 0.162983,-0.343368 0.296333,-0.635535 0.296333,-0.64926 0,-0.03297 -0.217491,-0.01097 -0.646631,0.0654 -0.699925,0.124567 -1.647719,-0.318312 -1.978987,-0.924727 -0.160293,-0.293431 -0.18552,-0.433707 -0.142826,-0.794192 0.05865,-0.49523 0.372151,-1.124979 0.794133,-1.595243 0.157022,-0.174987 0.427352,-0.527707 0.600735,-0.783824 0.173384,-0.256117 0.464299,-0.667816 0.646478,-0.914887 0.18218,-0.247071 0.42983,-0.635439 0.550334,-0.863039 0.120504,-0.227601 0.415383,-0.659986 0.655288,-0.960856 0.239903,-0.300871 0.54354,-0.731653 0.674746,-0.957295 0.131208,-0.225641 0.395548,-0.604276 0.587424,-0.841412 0.191876,-0.237134 0.471851,-0.694334 0.622164,-1.016 0.150314,-0.321665 0.299289,-0.625766 0.331054,-0.67578 0.03177,-0.05001 0.221655,-0.335201 0.421976,-0.633748 l 0.364221,-0.542813 -0.388162,-0.09902 c -0.213489,-0.05446 -0.449499,-0.150275 -0.524468,-0.212919 -0.07497,-0.06264 -0.292794,-0.191527 -0.484059,-0.286407 -0.472623,-0.234453 -0.741668,-0.775451 -0.794419,-1.597422 -0.03404,-0.530365 -0.01141,-0.66322 0.175115,-1.028231 0.11781,-0.230544 0.303304,-0.512671 0.41221,-0.626948 0.108904,-0.114277 0.300639,-0.335893 0.426077,-0.492481 0.125439,-0.156586 0.481373,-0.5655 0.790967,-0.908697 0.517463,-0.573627 0.670391,-0.796407 1.048771,-1.527817 0.07344,-0.141958 0.277678,-0.465808 0.453863,-0.719667 0.401168,-0.578028 0.90733,-1.431636 0.90733,-1.530152 0,-0.04093 0.0347,-0.07441 0.07712,-0.07441 0.04242,0 0.265906,-0.352425 0.496645,-0.783167 0.230739,-0.430742 0.557985,-1.03871 0.727213,-1.351041 0.169229,-0.312332 0.307689,-0.588557 0.307689,-0.613834 0,-0.02528 -0.09154,-0.04596 -0.203434,-0.04596 -0.153448,0 -0.28347,-0.119619 -0.529167,-0.486833 -0.288326,-0.430926 -0.325574,-0.545171 -0.324353,-0.994833 8.46e-4,-0.304266 0.06244,-0.643824 0.153643,-0.846667 0.223888,-0.49797 0.490635,-0.99833 0.609346,-1.143 0.05732,-0.06985 0.17125,-0.26035 0.253184,-0.423334 0.08194,-0.162983 0.233779,-0.382103 0.337432,-0.486933 0.103652,-0.10483 0.29647,-0.35248 0.428484,-0.550333 0.132015,-0.197854 0.305748,-0.435934 0.386075,-0.529067 0.08033,-0.09313 0.288056,-0.436033 0.461621,-0.762 0.173566,-0.325967 0.385576,-0.660447 0.471134,-0.743289 0.08556,-0.08284 0.218432,-0.273343 0.295278,-0.423333 0.07684,-0.149991 0.164232,-0.291762 0.194193,-0.315045 0.131575,-0.10225 1.699897,-2.649403 1.699897,-2.760848 0,-0.123705 0.406482,-0.909271 0.730429,-1.411625 0.203631,-0.315777 0.370238,-0.606387 0.370238,-0.645801 0,-0.03941 0.05904,-0.120655 0.131191,-0.180538 0.07216,-0.05988 0.209779,-0.283624 0.305829,-0.4972 0.366512,-0.81497 0.958414,-2.00979 1.14574,-2.312806 0.107382,-0.1737 0.19524,-0.33383 0.19524,-0.355844 0,-0.02201 -0.1905,-0.01746 -0.423333,0.01011 l -0.423333,0.05014 0.002,-0.54096 c 0.0011,-0.297528 0.04258,-0.69336 0.09215,-0.879627 0.04957,-0.186266 0.126696,-0.529166 0.171391,-0.762 0.04469,-0.232833 0.136898,-0.670983 0.204898,-0.973666 0.068,-0.302684 0.123314,-0.639235 0.122923,-0.747894 -4.23e-4,-0.108658 0.0703,-0.489658 0.157088,-0.846667 0.476963,-1.961982 0.470926,-1.923471 0.348999,-2.22653 -0.06312,-0.156884 -0.383943,-0.656109 -0.712946,-1.10939 -1.740014,-2.397292 -2.59693,-3.695855 -2.648471,-4.013468 -0.03369,-0.20761 -0.01454,-0.28518 0.07071,-0.286421 0.0643,-9.4e-4 0.364562,-0.03892 0.667245,-0.08442 0.302683,-0.04549 0.836083,-0.103639 1.185333,-0.129215 0.34925,-0.02557 0.76835,-0.0798 0.931334,-0.120495 0.162983,-0.0407 0.505883,-0.09981 0.762,-0.13137 0.58187,-0.07169 1.474229,-0.312076 1.96599,-0.529605 0.429713,-0.190084 0.909851,-0.7323789 1.155198,-1.3047519 0.09219,-0.2150627 0.284882,-0.5529089 0.428212,-0.7507704 0.143327,-0.1978613 0.260597,-0.4115722 0.260597,-0.474913 0,-0.063341 0.140698,-0.3147993 0.312663,-0.5587968 0.171965,-0.2439974 0.420446,-0.6027887 0.552181,-0.7973138 0.131734,-0.1945253 0.40061,-0.5309585 0.597503,-0.7476293 0.339043,-0.3731004 0.369326,-0.387987 0.572279,-0.2813179 0.486981,0.2559505 0.765218,0.5666626 1.089841,1.2170476 0.339275,0.6797407 0.43405,0.9710728 0.813238,2.4998546 0.256647,1.0347259 0.642985,1.7742509 1.094582,2.0952399 0.385981,0.27435 2.430856,0.946089 3.538115,1.162265 1.035319,0.202131 1.389192,0.351802 1.507586,0.637631 0.09026,0.217914 0.06859,0.300392 -0.214542,0.816496 -0.285459,0.520345 -1.155007,1.606615 -1.601003,2.000031 -0.646585,0.570356 -1.108489,0.956471 -1.231456,1.029398 -0.370162,0.219531 -0.945148,0.78174 -1.071218,1.047412 -0.120531,0.254 -0.130773,0.460779 -0.07363,1.486482 0.03651,0.655292 0.08325,1.32479 0.10388,1.487773 0.02063,0.162984 0.05553,1.143684 0.07755,2.179334 l 0.04005,1.883 -0.212821,0.09697 c -0.279254,0.127237 -0.32672,0.273789 -0.181224,0.559528 0.06558,0.128794 0.257757,0.519921 0.427057,0.869171 0.47511,0.980106 1.111362,1.972263 1.725394,2.69054 1.30521,1.526797 2.024554,2.609987 2.795711,4.209794 0.70298,1.458366 0.799015,1.792351 0.739449,2.571612 -0.07906,1.034304 -0.260841,1.814367 -0.565652,2.427332 l -0.284123,0.571364 0.199328,0.347513 c 0.10963,0.191131 0.341842,0.538012 0.516028,0.770846 0.174185,0.232833 0.429032,0.651933 0.566325,0.931333 0.980608,1.995595 1.709718,3.097294 2.680653,4.050512 0.292149,0.286819 0.75312,0.845339 1.024379,1.241155 0.27126,0.395817 0.695868,1.011718 0.943574,1.368668 0.247706,0.356951 0.488667,0.737951 0.535468,0.846667 0.0468,0.108716 0.120929,0.254815 0.164728,0.324665 0.115381,0.184009 0.39099,0.838328 0.507374,1.204554 0.159871,0.503061 -0.04394,1.725652 -0.350876,2.104733 -0.189152,0.233615 -0.773448,0.557175 -1.124083,0.622472 -0.185913,0.03462 -0.361416,0.07741 -0.390009,0.09508 -0.04376,0.02704 0.05531,0.364063 0.284709,0.968498 0.02651,0.06985 0.129769,0.41275 0.229468,0.762 0.0997,0.34925 0.233764,0.749873 0.297926,0.890272 0.06416,0.140398 0.155959,0.358645 0.203996,0.48499 0.0812,0.213573 0.921147,1.511274 1.407298,2.174248 0.116896,0.159413 0.564994,0.654713 0.995774,1.100667 1.308012,1.354086 1.838526,2.307984 1.838526,3.305785 0,0.330446 -0.05305,0.723412 -0.117891,0.873258 -0.166527,0.384843 -0.689686,0.885407 -0.995593,0.952596 -0.225804,0.04959 -0.253137,0.0855 -0.213926,0.281022 0.02473,0.12329 0.194227,0.548013 0.376671,0.94383 0.182444,0.395816 0.437166,0.976798 0.566047,1.291071 0.26515,0.646555 0.981387,1.644498 1.258739,1.753813 0.26112,0.102918 1.615144,1.520709 2.267019,2.373783 0.643098,0.841587 0.912755,1.361459 1.261329,2.431716 0.28203,0.865942 0.309603,1.23683 0.133937,1.801617 -0.416241,1.338266 -0.795535,1.650408 -1.996331,1.642895 -0.256117,-0.0016 -0.608542,-0.03399 -0.783167,-0.07198 -0.247358,-0.05381 -0.316915,-0.04324 -0.314853,0.04784 0.0032,0.142171 0.337237,0.835234 0.485835,1.008078 0.330476,0.384395 0.442851,0.540294 0.442851,0.614372 0,0.04545 0.507221,0.582541 1.127158,1.193545 0.619936,0.611004 1.244539,1.282367 1.388005,1.491917 0.143467,0.20955 0.363528,0.47625 0.489025,0.592666 0.125497,0.116417 0.439118,0.554567 0.696934,0.973667 0.257816,0.4191 0.589887,0.93345 0.737936,1.143 0.628551,0.889661 0.876815,2.677067 0.479899,3.455086 -0.258868,0.507424 -0.86011,0.790711 -1.692251,0.797349 -0.354405,0.0028 -0.853922,-0.05539 -1.110039,-0.129371 -0.256117,-0.07399 -0.618067,-0.178232 -0.804333,-0.231657 -0.186267,-0.05343 -0.374862,-0.131699 -0.4191,-0.173939 -0.04424,-0.04224 -0.139489,-0.07704 -0.211667,-0.07733 -0.07218,0 -0.226483,-0.04969 -0.3429,-0.109787 -0.116417,-0.0601 -0.440267,-0.177216 -0.719667,-0.260257 -0.2794,-0.08304 -0.60325,-0.185395 -0.719667,-0.227449 -0.31023,-0.11209 -1.394561,-0.224239 -1.570692,-0.16245 -0.116599,0.04089 -0.0652,0.08767 0.222722,0.202676 0.567715,0.226754 1.031486,0.655006 1.352817,1.249197 0.277193,0.512572 0.289326,0.571796 0.274633,1.340595 -0.01239,0.648157 -0.05566,0.894749 -0.222873,1.27 -0.25014,0.561357 -0.616075,1.033857 -1.131103,1.4605 -0.377888,0.313039 -0.393556,0.317492 -1.114889,0.316671 -1.121152,-0.0013 -1.715196,-0.350808 -2.428803,-1.42914 -0.209005,-0.315832 -0.220399,-0.383083 -0.178036,-1.050806 0.02489,-0.392363 0.121426,-0.930089 0.214518,-1.194952 0.17985,-0.511708 0.944209,-1.536328 1.208716,-1.620283 0.08561,-0.02717 0.155657,-0.08901 0.155657,-0.137422 0,-0.05116 -0.06205,-0.06188 -0.148167,-0.0256 -0.08149,0.03433 -0.323725,0.09241 -0.538297,0.129058 -0.606358,0.103572 -1.106396,0.266082 -1.430203,0.46482 -0.162983,0.100033 -0.334433,0.197383 -0.381,0.216349 -0.04657,0.01896 -0.599017,0.37487 -1.227667,0.790913 -1.004655,0.664879 -1.224982,0.774802 -1.820333,0.908152 -0.372534,0.08344 -0.803841,0.15262 -0.958461,0.153729 -0.337393,0.0025 -1.697594,-0.238269 -1.880652,-0.332782 -0.07138,-0.03686 -0.261879,-0.09489 -0.423333,-0.128981 -0.161455,-0.0341 -0.513668,-0.134942 -0.782694,-0.224113 -0.79363,-0.263051 -1.432558,-0.426161 -1.839194,-0.469502 -0.20955,-0.02234 -0.51435,-0.07678 -0.677333,-0.120972 -0.51908,-0.140758 -1.874516,-0.185928 -2.286001,-0.07617 -0.20955,0.05589 -0.55245,0.126349 -0.762,0.156575 l -0.381,0.05496 -0.0045,0.381 c -0.0025,0.20955 -0.05411,0.771601 -0.11479,1.249011 -0.06068,0.477402 -0.09626,1.177773 -0.07907,1.556377 0.03121,0.68718 0.03074,0.688933 -0.268063,1.015822 l -0.299323,0.327457 -1.94548,-0.0079 c -1.17477,-0.0047 -2.21381,-0.05218 -2.622814,-0.11971 z m 7.58634,-9.816425 c 0.145363,-0.246373 0.234248,-0.301001 0.568644,-0.349489 0.451932,-0.06553 0.65462,-0.153094 0.925517,-0.399833 0.246783,-0.224776 0.240991,-0.465992 -0.01967,-0.819302 -0.229235,-0.310711 -0.392239,-0.731527 -0.550354,-1.420813 -0.05616,-0.244816 -0.179444,-0.60519 -0.273966,-0.80083 -0.09581,-0.198311 -0.135059,-0.367976 -0.08869,-0.383433 0.321261,-0.107087 0.399962,-0.270406 0.431528,-0.895497 l 0.03214,-0.636554 -0.269091,-0.139152 c -0.291869,-0.150932 -0.665855,-0.116502 -0.994587,0.09156 -0.252087,0.159556 -0.392436,0.149754 -0.720599,-0.05033 -0.304424,-0.185608 -0.664138,-0.21775 -0.917779,-0.082 -0.142111,0.07606 -0.163767,0.182418 -0.163767,0.804333 0,0.5523 0.02675,0.716688 0.116633,0.716688 0.06415,0 0.160567,0.05294 0.214263,0.117637 0.07577,0.0913 0.04965,0.207868 -0.116633,0.52061 -0.139404,0.262183 -0.214428,0.539077 -0.214735,0.79253 -6.78e-4,0.547993 -0.13056,0.953076 -0.424034,1.322366 -0.139055,0.174978 -0.252827,0.404766 -0.252827,0.51064 0,0.354173 0.73576,0.798218 1.325136,0.799745 0.118129,3.39e-4 0.243582,0.104614 0.356979,0.296806 0.154253,0.26144 0.215391,0.296333 0.519218,0.296333 0.302858,0 0.365151,-0.03521 0.516673,-0.292017 z m 4.710979,-10.773399 c 0.524264,-0.246983 0.952935,-0.926029 0.951716,-1.507585 -6.78e-4,-0.327029 -0.391756,-1.015759 -0.694585,-1.22326 l -0.298782,-0.204728 0.15835,-0.259673 c 0.210058,-0.344467 0.200083,-0.556479 -0.04304,-0.914742 -0.182386,-0.268761 -0.186501,-0.293641 -0.04233,-0.255941 0.126431,0.03306 0.159691,-0.0044 0.159691,-0.179781 0,-0.163207 -0.04347,-0.221541 -0.165108,-0.221541 -0.141613,0 -0.168721,-0.06928 -0.1905,-0.486834 l -0.02539,-0.486833 -0.517834,-0.02491 -0.517834,-0.02491 -0.05367,0.26833 c -0.02952,0.147581 -0.05367,0.377867 -0.05367,0.511746 0,0.133879 -0.0381,0.243417 -0.08467,0.243417 -0.04657,0 -0.08467,0.0762 -0.08467,0.169333 0,0.103795 0.05644,0.169333 0.145839,0.169333 0.122105,0 0.11627,0.02071 -0.03585,0.127263 -0.09993,0.07 -0.226073,0.261739 -0.280318,0.4261 -0.08384,0.254025 -0.0745,0.347604 0.06228,0.624052 l 0.160903,0.325214 -0.286472,0.154274 c -0.573946,0.309092 -0.881643,1.061833 -0.702312,1.718125 0.27734,1.014976 1.447181,1.520458 2.438254,1.053557 z M 41.717875,71.335104 c 0.424089,-0.177196 0.528389,-0.349264 0.538329,-0.888102 l 0.0086,-0.465667 0.123566,0.401829 c 0.170748,0.555258 0.402281,0.69269 1.065646,0.632538 0.635178,-0.0576 0.946965,-0.262262 0.984972,-0.646564 0.032,-0.323537 -0.178608,-0.684136 -0.399563,-0.684136 -0.08636,0 -0.194694,-0.04762 -0.240746,-0.105834 -0.157094,-0.198563 -0.534807,-1.475595 -0.479258,-1.620353 0.03046,-0.07938 0.250657,-0.241827 0.489321,-0.360985 0.889651,-0.444172 1.210301,-0.988796 0.814934,-1.384162 -0.214362,-0.214362 -0.520677,-0.21411 -1.145737,9.4e-4 -0.638127,0.219548 -0.727536,0.134173 -0.416072,-0.397299 0.472437,-0.806153 0.241108,-1.664103 -0.563094,-2.088402 -0.401134,-0.21164 -0.519949,-0.235698 -0.96543,-0.195491 -0.673419,0.06078 -1.051261,0.22985 -1.416054,0.633631 -0.562596,0.622727 -0.500042,1.429734 0.160441,2.069825 0.201637,0.195411 0.366613,0.384431 0.366613,0.420044 0,0.03561 -0.248874,0.06475 -0.553053,0.06475 -0.694174,0 -1.114648,0.164725 -1.190346,0.466331 -0.124075,0.494352 0.212961,0.79007 1.108399,0.972516 0.2794,0.05693 0.555625,0.142142 0.613833,0.189363 0.0715,0.058 0.105833,0.352401 0.105833,0.907399 0,0.76684 -0.01409,0.834781 -0.211666,1.020392 -0.138468,0.130083 -0.211667,0.290629 -0.211667,0.464242 0,0.617455 0.675279,0.901102 1.412209,0.593193 z M 48.264333,45.301 c 0.273169,-0.273169 0.202981,-0.508719 -0.40446,-1.357364 -0.315586,-0.4409 -0.740059,-1.094425 -0.94327,-1.452277 -0.203213,-0.357852 -0.515004,-0.792743 -0.69287,-0.966424 -0.275034,-0.268564 -0.392198,-0.32149 -0.78353,-0.353942 -0.572091,-0.04744 -1.215631,0.152671 -1.512866,0.470436 -0.399146,0.426716 -0.513298,0.75936 -0.469699,1.368712 0.05976,0.835192 0.473789,1.470738 1.025557,1.574251 0.253825,0.04762 0.335232,0.02154 0.524887,-0.168111 0.263157,-0.263157 0.236598,-0.522862 -0.09361,-0.915285 -0.113406,-0.134776 -0.230195,-0.340678 -0.25953,-0.457559 -0.0748,-0.298004 0.205956,-0.655839 0.540886,-0.689394 0.228672,-0.02291 0.295693,0.02679 0.570858,0.423334 0.576876,0.831338 0.844791,1.236755 1.217408,1.842216 0.529354,0.86014 0.902756,1.058885 1.280234,0.681407 z m 5.03032,-22.502647 c -0.02284,-0.312962 -0.09509,-0.873822 -0.160547,-1.246355 -0.196219,-1.116701 -0.221964,-1.383581 -0.262674,-2.722857 l -0.03901,-1.283524 0.446457,-0.511495 c 0.245552,-0.281322 0.771212,-0.751486 1.168134,-1.04481 1.127348,-0.833106 2.326325,-1.994401 2.326325,-2.253214 0,-0.09614 -0.10592,-0.159832 -0.338667,-0.203641 -1.168404,-0.219926 -1.764659,-0.303687 -1.871087,-0.262846 -0.06689,0.02567 -0.244762,-0.0018 -0.395267,-0.06112 -0.325101,-0.128059 -1.312633,-0.569615 -1.52133,-0.680234 -0.08086,-0.04286 -0.184895,-0.07793 -0.231189,-0.07793 -0.0463,0 -0.290884,-0.132232 -0.543532,-0.293849 -0.359433,-0.229927 -0.487973,-0.372664 -0.5909,-0.656166 -0.185325,-0.510458 -0.314289,-0.977795 -0.392037,-1.420652 -0.234607,-1.33634 -0.530667,-2.4046915 -0.724471,-2.6143029 -0.09015,-0.097501 -0.169667,-0.05302 -0.4847,0.2711248 -0.351766,0.3619412 -0.760466,1.105556 -1.460857,2.6579831 -0.406853,0.901796 -0.867943,1.179676 -2.494964,1.503614 -0.996866,0.198475 -2.481185,0.62648 -2.606208,0.751503 -0.08794,0.08794 -0.101975,0.183965 -0.04945,0.338425 0.09831,0.289104 0.930381,1.454175 1.306084,1.828779 0.959585,0.956777 1.187143,1.661023 0.850399,2.631809 -0.08828,0.254503 -0.204969,0.691332 -0.259307,0.970732 -0.05434,0.2794 -0.150558,0.7747 -0.213823,1.100667 -0.142747,0.735488 -0.298997,1.872906 -0.298252,2.171108 3.39e-4,0.123077 0.04819,0.241996 0.106393,0.264265 0.148426,0.05679 1.567471,-0.391554 2.476501,-0.782437 0.4191,-0.180213 1.16205,-0.459334 1.651,-0.62027 1.080666,-0.355698 1.574388,-0.332494 2.221768,0.104417 0.401056,0.27067 0.741565,0.634306 0.741565,0.791931 0,0.04721 0.172356,0.299252 0.383015,0.560082 0.210657,0.260831 0.559516,0.691878 0.775241,0.957884 0.215725,0.266006 0.422535,0.464916 0.459577,0.442022 0.03704,-0.02289 0.04866,-0.297684 0.02582,-0.610647 z"
       id="path847" />
  </g>
</svg>
