<?xml version="1.0" encoding="UTF-8" standalone="no"?>
<svg
   xmlns:dc="http://purl.org/dc/elements/1.1/"
   xmlns:cc="http://creativecommons.org/ns#"
   xmlns:rdf="http://www.w3.org/1999/02/22-rdf-syntax-ns#"
   xmlns:svg="http://www.w3.org/2000/svg"
   xmlns="http://www.w3.org/2000/svg"
   xmlns:sodipodi="http://sodipodi.sourceforge.net/DTD/sodipodi-0.dtd"
   xmlns:inkscape="http://www.inkscape.org/namespaces/inkscape"
   width="100mm"
   height="100mm"
   viewBox="0 0 100 100"
   version="1.1"
   id="svg8"
   inkscape:version="1.0.1 (3bc2e813f5, 2020-09-07)"
   sodipodi:docname="tStop.svg">
  <defs
     id="defs2" />
  <sodipodi:namedview
     id="base"
     pagecolor="#ffffff"
     bordercolor="#666666"
     borderopacity="1.0"
     inkscape:pageopacity="0.0"
     inkscape:pageshadow="2"
     inkscape:zoom="0.7"
     inkscape:cx="65.091304"
     inkscape:cy="189.15865"
     inkscape:document-units="mm"
     inkscape:current-layer="layer3"
     inkscape:document-rotation="0"
     showgrid="false"
     inkscape:window-width="1366"
     inkscape:window-height="728"
     inkscape:window-x="0"
     inkscape:window-y="0"
     inkscape:window-maximized="0" />
  <metadata
     id="metadata5">
    <rdf:RDF>
      <cc:Work
         rdf:about="">
        <dc:format>image/svg+xml</dc:format>
        <dc:type
           rdf:resource="http://purl.org/dc/dcmitype/StillImage" />
        <dc:title />
      </cc:Work>
    </rdf:RDF>
  </metadata>
  <g
     inkscape:groupmode="layer"
     id="layer3"
     inkscape:label="tStop"
     style="display:inline">
    <path
       style="display:inline;fill:#000000;stroke-width:0.0846667"
       d="m 67.564335,92.091503 c -0.461939,-0.165201 -1.080084,-0.625221 -1.244724,-0.926321 -0.113294,-0.207205 -0.148276,-0.470933 -0.148276,-1.117845 0,-0.744441 0.02463,-0.887561 0.203975,-1.185334 0.322733,-0.535847 0.605432,-0.801421 1.144375,-1.075046 0.442736,-0.22479 0.569148,-0.250902 1.075851,-0.222276 0.470673,0.02659 0.639495,0.07836 0.936588,0.287164 0.504547,0.35461 0.839025,1.029005 0.894434,1.803426 0.03823,0.534331 0.01654,0.646176 -0.22567,1.163768 -0.310801,0.664168 -0.802092,1.171923 -1.255848,1.297941 -0.423381,0.117576 -1.011006,0.10673 -1.380705,-0.02548 z M 23.710228,91.16917 c -0.553434,-0.280907 -0.954142,-0.884936 -0.999065,-1.506 -0.04119,-0.569485 0.06193,-0.930724 0.420042,-1.471371 0.215089,-0.324731 0.381164,-0.450148 0.965082,-0.728845 0.601923,-0.287282 0.787298,-0.336618 1.264871,-0.336618 0.788124,0 1.120068,0.208517 1.682359,1.056818 0.425036,0.641232 0.201322,1.7055 -0.529331,2.518165 -0.498776,0.554761 -0.763417,0.658351 -1.681862,0.658351 -0.606788,0 -0.817136,-0.03571 -1.122096,-0.1905 z M 53.090334,83.570336 C 52.9972,83.477203 52.921,83.348761 52.921,83.28491 c 0,-0.0759 -0.151646,-0.136209 -0.437978,-0.174192 -0.484129,-0.06422 -0.69563,-0.153205 -0.980188,-0.412388 -0.266317,-0.242567 -0.238279,-0.478213 0.110107,-0.925381 0.269136,-0.345448 0.308662,-0.463901 0.377529,-1.131403 0.05443,-0.52753 0.127457,-0.813912 0.249727,-0.979291 0.22831,-0.308805 0.217954,-0.446834 -0.04243,-0.565471 -0.206984,-0.09431 -0.214284,-0.123107 -0.1905,-0.751485 0.02312,-0.610935 0.03966,-0.661776 0.254322,-0.781976 0.183246,-0.102609 0.277245,-0.109087 0.465667,-0.0321 0.776557,0.31731 0.774226,0.316783 0.972247,0.219507 0.544425,-0.267445 0.787504,-0.302806 1.07161,-0.155889 0.269355,0.139289 0.274849,0.153561 0.25811,0.670597 -0.02192,0.677051 -0.10229,0.884293 -0.368893,0.951206 -0.118432,0.02972 -0.215331,0.06972 -0.215331,0.08888 0,0.01916 0.08897,0.176955 0.197714,0.350655 0.108742,0.173699 0.244053,0.55416 0.300689,0.845467 0.114295,0.587874 0.294282,1.031369 0.581097,1.431836 0.23525,0.328472 0.238066,0.452874 0.01662,0.734392 -0.170188,0.216359 -0.48022,0.337674 -1.117291,0.437197 -0.178875,0.02794 -0.3175,0.09772 -0.3175,0.159807 0,0.06062 -0.07114,0.192238 -0.158098,0.292497 -0.203105,0.234182 -0.630225,0.240632 -0.857902,0.01295 z m 7.671919,-3.256932 c -0.610411,-0.250957 -0.936383,-0.551683 -1.120459,-1.033679 -0.298456,-0.781496 0.102268,-2.116779 0.839075,-2.795944 0.291061,-0.268291 0.489475,-0.370931 0.869592,-0.449843 1.08537,-0.225322 1.914481,0.1512 2.332822,1.059398 0.411563,0.893481 -0.06021,2.287009 -0.999093,2.951121 -0.736213,0.520756 -1.163888,0.580602 -1.921937,0.268947 z M 43.207249,79.509399 c -0.482066,-0.218832 -0.699527,-0.589964 -0.699933,-1.194542 -2.54e-4,-0.385833 0.06714,-0.609551 0.369877,-1.227667 0.367997,-0.75137 0.513367,-0.930793 1.056863,-1.304431 0.208865,-0.143588 0.402746,-0.19528 0.732436,-0.19528 0.700141,0 1.10224,0.310307 1.570677,1.212121 0.279236,0.537574 0.282265,1.437863 0.0063,1.884322 -0.232847,0.376754 -0.773016,0.767459 -1.240472,0.897235 -0.533353,0.14807 -1.386638,0.113974 -1.795787,-0.07176 z m -14.03525,-0.971761 c -0.837833,-0.308993 -1.282674,-1.393545 -0.946059,-2.306553 0.31245,-0.847465 1.324442,-1.635416 2.100422,-1.635416 0.917842,0 1.513828,0.649768 1.511385,1.647773 -0.0017,0.686361 -0.217739,1.563714 -0.444533,1.805127 -0.446179,0.474935 -1.581646,0.724943 -2.221215,0.489069 z m 27.992608,-5.898894 c -0.977907,-0.496482 -1.157665,-1.879252 -0.334358,-2.572019 0.136594,-0.114937 0.309075,-0.242958 0.383292,-0.284491 0.123074,-0.06888 0.122681,-0.09302 -0.0045,-0.274546 -0.239686,-0.3422 -0.148141,-0.892401 0.191923,-1.153494 0.121115,-0.09299 0.119755,-0.103405 -0.01383,-0.105833 -0.183526,-0.0033 -0.204486,-0.341359 -0.02117,-0.341359 0.0975,0 0.127,-0.108186 0.127,-0.465667 v -0.465667 h 0.550334 0.550333 v 0.508 c 0,0.451555 0.01881,0.508 0.169333,0.508 0.09407,0 0.169334,0.05644 0.169334,0.127 0,0.08077 -0.08125,0.127 -0.223212,0.127 h -0.223213 l 0.223213,0.223212 c 0.28298,0.282981 0.313891,0.853814 0.05874,1.084725 -0.161124,0.145815 -0.157242,0.154324 0.190501,0.417579 0.44303,0.335391 0.651007,0.73857 0.651177,1.262358 2.54e-4,0.885749 -0.622005,1.51177 -1.554905,1.564222 -0.409166,0.02301 -0.597921,-0.01072 -0.890025,-0.15902 z M 40.522988,71.18002 c -0.298467,-0.298467 -0.285357,-0.636156 0.03668,-0.944685 0.2446,-0.234341 0.254,-0.270962 0.254,-0.989507 0,-0.898403 -0.08966,-1.029979 -0.762665,-1.119256 -0.73128,-0.09701 -1.121168,-0.365809 -1.121168,-0.77297 0,-0.399235 0.236419,-0.547267 0.874031,-0.547267 0.925857,0 1.025579,-0.09665 0.539811,-0.523156 -0.409426,-0.35948 -0.546009,-0.656818 -0.546009,-1.188653 0,-0.537272 0.245575,-0.957886 0.738006,-1.264038 0.274931,-0.17093 0.429213,-0.199153 1.088645,-0.199153 0.716175,0 0.790047,0.01656 1.088484,0.243994 0.615887,0.46936 0.727742,1.213567 0.295857,1.968424 -0.324025,0.566337 -0.240866,0.622406 0.557427,0.375839 0.31208,-0.09639 0.622286,-0.175257 0.689348,-0.175257 0.178617,0 0.537567,0.388834 0.537567,0.582322 0,0.252906 -0.358165,0.62561 -0.816701,0.849853 -0.801747,0.392089 -0.81864,0.445583 -0.467825,1.481388 0.208333,0.615117 0.251089,0.67803 0.522873,0.769362 0.332452,0.111721 0.480438,0.394641 0.391589,0.748645 -0.07043,0.280628 -0.41392,0.460299 -1.015041,0.530949 -0.441967,0.05194 -0.482789,0.04061 -0.724528,-0.201126 -0.166548,-0.166548 -0.278554,-0.385193 -0.320146,-0.62495 l -0.06397,-0.368776 -0.05145,0.576312 c -0.0689,0.771699 -0.222287,0.927193 -0.961032,0.974233 -0.497536,0.03168 -0.565906,0.01534 -0.763773,-0.182527 z m -7.13022,-3.870882 c -0.350914,-0.105121 -0.76882,-0.590708 -0.841418,-0.977688 -0.08378,-0.446574 0.02537,-1.522689 0.189527,-1.868629 0.07743,-0.163173 0.324079,-0.497233 0.548107,-0.742356 0.350577,-0.383588 0.471694,-0.458605 0.869365,-0.538468 1.110603,-0.223042 1.66276,0.36712 1.727441,1.846338 0.04406,1.007685 -0.06297,1.428177 -0.450015,1.76801 -0.444496,0.390272 -1.536791,0.664438 -2.043007,0.512793 z M 50.762,67.169859 c -0.09313,-0.02297 -0.245533,-0.109397 -0.338666,-0.192063 -0.09313,-0.08266 -0.258285,-0.196229 -0.367002,-0.252363 -0.32037,-0.165416 -0.433154,-0.559719 -0.378057,-1.321731 0.02671,-0.369436 0.09688,-0.766951 0.155934,-0.883367 0.255336,-0.503369 0.790785,-0.760598 1.585202,-0.761528 0.34157,-4.23e-4 0.451889,0.04394 0.719666,0.289248 l 0.316257,0.289721 0.02914,0.805261 c 0.0284,0.784652 0.02238,0.815091 -0.235154,1.189407 -0.441846,0.642201 -1.001409,0.957255 -1.487325,0.837415 z m 6.591299,-9.410854 c -0.749349,-0.298084 -1.116453,-0.884337 -1.187922,-1.897073 -0.04446,-0.630038 -0.02638,-0.754969 0.186742,-1.290095 0.411639,-1.033584 0.783802,-1.371584 1.675322,-1.521533 0.558933,-0.09401 1.540279,0.354004 1.738791,0.793809 0.05459,0.120938 0.157932,0.315138 0.229655,0.431554 0.10461,0.169796 0.119865,0.370726 0.07712,1.015748 -0.08111,1.223932 -0.487551,2.072122 -1.159021,2.418759 -0.469986,0.242624 -1.029502,0.26013 -1.560683,0.04883 z M 42.083666,55.882499 c -0.342077,-0.07985 -0.809952,-0.5696 -0.889305,-0.930892 -0.110219,-0.501818 0.364207,-1.680043 0.847269,-2.104177 0.433707,-0.380799 0.859049,-0.540243 1.312036,-0.491829 0.32627,0.03487 0.432611,0.09927 0.740281,0.44828 0.440368,0.499544 0.559553,0.838826 0.512731,1.459592 -0.04997,0.662504 -0.250082,1.016019 -0.785715,1.388028 -0.40685,0.282566 -0.511273,0.316546 -0.949056,0.308833 -0.270549,-0.0048 -0.625257,-0.03979 -0.788241,-0.07784 z m 5.614572,-10.477074 c -0.125945,-0.02049 -0.328873,-0.2603 -0.635,-0.750396 -0.426401,-0.682649 -0.616414,-0.971062 -1.263319,-1.917544 -0.152064,-0.222483 -0.364906,-0.426707 -0.472983,-0.453833 -0.292577,-0.07343 -0.600675,0.168681 -0.667423,0.524483 -0.04776,0.254573 -0.0149,0.360674 0.20771,0.670649 0.433941,0.604253 0.284586,1.060216 -0.347286,1.060216 -0.388906,0 -0.76652,-0.409064 -0.950969,-1.030174 -0.234999,-0.791326 -0.123023,-1.33508 0.378142,-1.836244 0.307923,-0.307924 0.708374,-0.434464 1.376948,-0.43511 0.456097,-4.23e-4 0.514296,0.0231 0.871727,0.352566 0.210652,0.194172 0.520696,0.603747 0.688988,0.910167 0.168291,0.306421 0.566589,0.926185 0.885106,1.377255 0.398537,0.564392 0.579121,0.897773 0.579121,1.069133 0,0.343 -0.255508,0.523151 -0.650762,0.458832 z m -9.720645,-1.060898 c -0.320328,-0.320329 -0.459078,-0.717331 -0.523843,-1.498861 -0.08454,-1.020152 0.180013,-1.487199 1.047278,-1.848899 0.520568,-0.217107 1.197326,-0.238806 1.562263,-0.05009 0.389366,0.20135 0.61371,0.775026 0.539682,1.380035 -0.100077,0.817898 -0.797103,1.818882 -1.498244,2.151595 -0.480308,0.227922 -0.803833,0.189522 -1.127136,-0.13378 z m 13.37986,-0.978168 c -0.352141,-0.05769 -0.382718,-0.09495 -0.683615,-0.833066 -0.101561,-0.249135 -0.13358,-0.507043 -0.107576,-0.866534 0.04716,-0.652013 0.316526,-1.001627 1.096068,-1.422616 l 0.561665,-0.303324 0.496669,0.161257 c 0.431243,0.140014 0.518693,0.20587 0.663852,0.499923 0.102403,0.207443 0.179319,0.568309 0.198505,0.931334 0.0294,0.556169 0.01388,0.618668 -0.251849,1.014891 -0.447234,0.66685 -1.141222,0.954517 -1.973719,0.818135 z M 52.853714,22.974634 C 52.206944,22.251351 51.651,21.520195 51.651,21.39287 c 0,-0.211649 -0.383032,-0.591518 -0.858075,-0.850993 C 50.411379,20.333474 50.2438,20.294066 49.746,20.295689 c -0.406248,0.0013 -0.712507,0.05527 -0.973667,0.171515 -0.20955,0.09327 -0.5334,0.218271 -0.719666,0.277778 -0.186267,0.05951 -0.491067,0.175757 -0.677334,0.258334 -0.808585,0.35847 -1.023433,0.44557 -1.143,0.463376 -0.06985,0.0104 -0.2794,0.07769 -0.465666,0.149518 -0.64894,0.250259 -1.144987,0.348668 -1.246386,0.247269 -0.180832,-0.180832 0.273693,-2.817029 0.819774,-4.754605 0.07828,-0.277765 0.108573,-0.581807 0.07551,-0.758028 -0.06838,-0.364476 -0.820024,-1.50049 -1.038734,-1.569907 -0.08847,-0.02808 -0.181814,-0.105662 -0.207426,-0.172406 -0.02561,-0.06674 -0.276782,-0.423182 -0.558154,-0.792084 -0.595158,-0.780299 -0.66817,-1.113012 -0.278755,-1.270263 0.333183,-0.134545 2.106224,-0.580367 2.583375,-0.649576 0.221764,-0.03217 0.424037,-0.09219 0.449496,-0.133382 0.02546,-0.04119 0.137498,-0.0749 0.248975,-0.0749 0.525734,0 1.260367,-0.555854 1.58136,-1.196523 0.125238,-0.249963 0.310407,-0.6640276 0.411485,-0.9201443 0.101079,-0.2561166 0.236737,-0.5258164 0.301461,-0.5993333 0.06473,-0.073517 0.117681,-0.1829782 0.117681,-0.2432482 0,-0.06027 0.171571,-0.3500155 0.381267,-0.6438793 0.355874,-0.4987119 0.655346,-0.7221229 0.789281,-0.5888145 0.108266,0.1077611 0.367638,0.9333669 0.439178,1.397942 0.07027,0.4563229 0.196671,1.0333982 0.459922,2.0996976 0.141583,0.573479 0.346518,1.032969 0.460712,1.032969 0.03887,0 0.202143,0.08922 0.362823,0.198255 0.160679,0.10904 0.461271,0.258491 0.667981,0.332113 0.20671,0.07362 0.680637,0.269692 1.05317,0.435711 0.449525,0.200331 0.805476,0.302013 1.058334,0.302325 0.536088,6.78e-4 1.88145,0.260449 2.024015,0.39083 0.100488,0.0919 0.05436,0.176554 -0.296334,0.543803 -0.228441,0.239227 -0.464142,0.479584 -0.52378,0.534128 -0.05964,0.05454 -0.250138,0.233026 -0.423333,0.396629 -0.173196,0.163604 -0.531051,0.442453 -0.795233,0.619666 -0.532628,0.357286 -1.597596,1.35552 -1.750055,1.640392 -0.12194,0.227848 -0.131411,2.249193 -0.01383,2.951432 0.04626,0.276311 0.144202,0.845284 0.217637,1.264384 0.07344,0.4191 0.121307,0.983086 0.106381,1.253303 l -0.02714,0.491302 z"
       id="path854" />
  </g>
</svg>
