G04 EAGLE Gerber RS-274X export*
G75*
%MOMM*%
%FSLAX34Y34*%
%LPD*%
%INBottom Copper*%
%IPPOS*%
%AMOC8*
5,1,8,0,0,1.08239X$1,22.5*%
G01*
%ADD10R,1.270000X2.540000*%
%ADD11R,1.200000X1.200000*%
%ADD12C,0.152400*%


D10*
X508000Y736600D03*
X457200Y736600D03*
D11*
X472100Y838200D03*
X493100Y838200D03*
X446700Y571500D03*
X467700Y571500D03*
X408600Y330200D03*
X429600Y330200D03*
X584200Y302600D03*
X584200Y281600D03*
X543900Y190500D03*
X522900Y190500D03*
D12*
X508000Y736600D02*
X508000Y774700D01*
X495300Y800100D01*
X493100Y838200D01*
X469900Y711200D02*
X467700Y571500D01*
X469900Y711200D02*
X508000Y736600D01*
X467700Y571500D02*
X469900Y393700D01*
X429600Y330200D01*
X431800Y241300D01*
X482600Y190500D01*
X522900Y190500D01*
X584200Y241300D01*
X584200Y281600D01*
X457200Y736600D02*
X457200Y774700D01*
X469900Y800100D01*
X472100Y838200D01*
X457200Y736600D02*
X444500Y711200D01*
X444500Y571500D01*
X446700Y571500D02*
X444500Y393700D01*
X408600Y330200D01*
X406400Y241300D01*
X508000Y139700D01*
X546100Y139700D01*
X543900Y190500D01*
X584200Y190500D01*
X647700Y254000D01*
X647700Y279400D01*
X622300Y304800D01*
X584200Y304800D01*
M02*
