G04 EAGLE Gerber RS-274X export*
G75*
%MOMM*%
%FSLAX34Y34*%
%LPD*%
%INSoldermask Top*%
%IPPOS*%
%AMOC8*
5,1,8,0,0,1.08239X$1,22.5*%
G01*

G36*
X532273Y766248D02*
X532273Y766248D01*
X532354Y766256D01*
X532370Y766265D01*
X532388Y766268D01*
X532456Y766313D01*
X532528Y766353D01*
X532539Y766367D01*
X532554Y766377D01*
X532600Y766445D01*
X532650Y766510D01*
X532655Y766527D01*
X532665Y766542D01*
X532698Y766690D01*
X532702Y766702D01*
X532701Y766703D01*
X532702Y766705D01*
X532922Y770700D01*
X532921Y770707D01*
X532923Y770717D01*
X532966Y772717D01*
X532964Y772728D01*
X532966Y772740D01*
X532965Y772742D01*
X532966Y772746D01*
X532890Y774745D01*
X532888Y774752D01*
X532889Y774761D01*
X532749Y776756D01*
X532747Y776762D01*
X532748Y776769D01*
X532557Y778761D01*
X532555Y778765D01*
X532556Y778772D01*
X532320Y780759D01*
X532319Y780764D01*
X532319Y780771D01*
X532033Y782751D01*
X532031Y782757D01*
X532031Y782764D01*
X529665Y796558D01*
X529415Y798523D01*
X529241Y800499D01*
X529113Y802486D01*
X529018Y804478D01*
X528976Y805690D01*
X528958Y806189D01*
X528958Y806190D01*
X528949Y806468D01*
X528903Y808462D01*
X528874Y812456D01*
X528929Y816444D01*
X528994Y818438D01*
X529092Y820424D01*
X529238Y822401D01*
X529472Y824320D01*
X530097Y826049D01*
X531279Y827540D01*
X532608Y829003D01*
X533991Y830429D01*
X535406Y831829D01*
X536847Y833205D01*
X538312Y834562D01*
X539791Y835894D01*
X541293Y837205D01*
X542815Y838490D01*
X544359Y839741D01*
X545936Y840945D01*
X549200Y843242D01*
X549205Y843247D01*
X549212Y843250D01*
X550815Y844448D01*
X550818Y844452D01*
X550823Y844455D01*
X552399Y845687D01*
X552403Y845692D01*
X552410Y845696D01*
X553952Y846971D01*
X553958Y846978D01*
X553968Y846985D01*
X555452Y848326D01*
X555455Y848329D01*
X555460Y848332D01*
X559834Y852441D01*
X559839Y852448D01*
X559846Y852453D01*
X561257Y853871D01*
X561259Y853874D01*
X561262Y853876D01*
X564047Y856749D01*
X564048Y856751D01*
X564050Y856753D01*
X565428Y858203D01*
X565432Y858208D01*
X565438Y858213D01*
X566776Y859700D01*
X566789Y859723D01*
X566814Y859748D01*
X567957Y861383D01*
X567979Y861435D01*
X568010Y861482D01*
X568018Y861525D01*
X568036Y861565D01*
X568036Y861622D01*
X568046Y861678D01*
X568037Y861728D01*
X568037Y861764D01*
X568024Y861795D01*
X568016Y861841D01*
X567401Y863512D01*
X567385Y863538D01*
X567377Y863566D01*
X567333Y863622D01*
X567296Y863682D01*
X567272Y863699D01*
X567253Y863722D01*
X567169Y863772D01*
X567134Y863797D01*
X567123Y863799D01*
X567110Y863806D01*
X565244Y864518D01*
X565223Y864522D01*
X565198Y864533D01*
X563269Y865063D01*
X563261Y865063D01*
X563251Y865067D01*
X561304Y865526D01*
X561298Y865526D01*
X561292Y865528D01*
X559333Y865940D01*
X559329Y865940D01*
X559324Y865942D01*
X557358Y866315D01*
X557354Y866315D01*
X557350Y866316D01*
X555378Y866654D01*
X555374Y866654D01*
X555369Y866656D01*
X553392Y866958D01*
X553387Y866958D01*
X553381Y866959D01*
X551398Y867220D01*
X551391Y867220D01*
X551384Y867222D01*
X549393Y867426D01*
X549384Y867425D01*
X549372Y867428D01*
X545413Y867667D01*
X543504Y868041D01*
X541614Y868580D01*
X540264Y869051D01*
X539750Y869230D01*
X537908Y869964D01*
X534248Y871559D01*
X534245Y871560D01*
X534242Y871562D01*
X530556Y873118D01*
X530553Y873119D01*
X530550Y873121D01*
X528697Y873875D01*
X528693Y873876D01*
X528688Y873879D01*
X524967Y875314D01*
X523164Y876119D01*
X521406Y877013D01*
X519701Y878011D01*
X518026Y879087D01*
X518009Y879094D01*
X517991Y879108D01*
X516256Y880031D01*
X514819Y881065D01*
X513936Y882700D01*
X513183Y884511D01*
X512528Y886375D01*
X511951Y888270D01*
X511442Y890189D01*
X509563Y897962D01*
X508667Y901857D01*
X508240Y903803D01*
X507831Y905756D01*
X507445Y907715D01*
X507092Y909675D01*
X506769Y911645D01*
X506766Y911653D01*
X506766Y911662D01*
X506374Y913624D01*
X506371Y913633D01*
X506370Y913643D01*
X505902Y915588D01*
X505900Y915594D01*
X505899Y915602D01*
X505376Y917533D01*
X505374Y917538D01*
X505373Y917546D01*
X504800Y919463D01*
X504797Y919468D01*
X504796Y919476D01*
X504169Y921376D01*
X504165Y921384D01*
X504163Y921395D01*
X503460Y923268D01*
X503448Y923287D01*
X503440Y923316D01*
X502548Y925102D01*
X502524Y925133D01*
X502508Y925169D01*
X502463Y925211D01*
X502425Y925259D01*
X502391Y925278D01*
X502362Y925305D01*
X502290Y925333D01*
X502251Y925355D01*
X502231Y925357D01*
X502208Y925367D01*
X500398Y925763D01*
X500393Y925763D01*
X500388Y925765D01*
X500295Y925765D01*
X500199Y925766D01*
X500194Y925764D01*
X500189Y925764D01*
X500034Y925704D01*
X498326Y924680D01*
X498296Y924652D01*
X498243Y924617D01*
X496778Y923258D01*
X496765Y923240D01*
X496744Y923223D01*
X495418Y921725D01*
X495411Y921713D01*
X495398Y921701D01*
X494169Y920123D01*
X494164Y920114D01*
X494156Y920106D01*
X492996Y918475D01*
X492993Y918469D01*
X492987Y918463D01*
X491878Y916798D01*
X491875Y916790D01*
X491868Y916783D01*
X490821Y915078D01*
X490814Y915061D01*
X490801Y915043D01*
X489895Y913261D01*
X489887Y913231D01*
X489867Y913194D01*
X489261Y911383D01*
X488154Y909807D01*
X488144Y909784D01*
X488124Y909757D01*
X487175Y907997D01*
X487171Y907984D01*
X487162Y907971D01*
X486315Y906159D01*
X486313Y906149D01*
X486306Y906138D01*
X484776Y902448D01*
X483983Y900616D01*
X483167Y898797D01*
X482328Y896990D01*
X481462Y895210D01*
X480486Y893510D01*
X479363Y891908D01*
X478109Y890401D01*
X476743Y888993D01*
X475274Y887693D01*
X473710Y886512D01*
X472056Y885471D01*
X470317Y884602D01*
X468501Y883961D01*
X466591Y883629D01*
X464624Y883422D01*
X464605Y883416D01*
X464585Y883416D01*
X464455Y883368D01*
X464434Y883362D01*
X464432Y883360D01*
X464429Y883359D01*
X462768Y882412D01*
X460933Y881871D01*
X457022Y881161D01*
X457017Y881159D01*
X457010Y881158D01*
X455051Y880752D01*
X455047Y880750D01*
X455042Y880750D01*
X451140Y879867D01*
X451137Y879866D01*
X451133Y879865D01*
X447243Y878929D01*
X447241Y878928D01*
X447237Y878928D01*
X443358Y877948D01*
X443355Y877947D01*
X443352Y877947D01*
X439484Y876924D01*
X439481Y876923D01*
X439478Y876922D01*
X437550Y876387D01*
X437548Y876386D01*
X437544Y876386D01*
X435623Y875827D01*
X435618Y875824D01*
X435610Y875823D01*
X433705Y875212D01*
X433678Y875197D01*
X433636Y875184D01*
X431851Y874300D01*
X431814Y874271D01*
X431772Y874251D01*
X431727Y874204D01*
X431694Y874178D01*
X431681Y874155D01*
X431658Y874131D01*
X430567Y872505D01*
X430538Y872433D01*
X430502Y872364D01*
X430499Y872339D01*
X430492Y872321D01*
X430492Y872276D01*
X430484Y872199D01*
X430595Y870220D01*
X430604Y870189D01*
X430628Y870068D01*
X431347Y868205D01*
X431363Y868181D01*
X431375Y868145D01*
X432337Y866391D01*
X432347Y866379D01*
X432355Y866361D01*
X433436Y864679D01*
X433443Y864672D01*
X433448Y864661D01*
X434602Y863026D01*
X434607Y863021D01*
X434610Y863014D01*
X437012Y859813D01*
X438194Y858209D01*
X439358Y856590D01*
X440481Y854961D01*
X441490Y853258D01*
X441497Y853250D01*
X441501Y853241D01*
X441613Y853118D01*
X443176Y851904D01*
X443188Y851898D01*
X443199Y851886D01*
X444780Y850801D01*
X446058Y849366D01*
X447269Y847806D01*
X448419Y846193D01*
X449521Y844540D01*
X450574Y842858D01*
X451572Y841144D01*
X452494Y839399D01*
X453285Y837629D01*
X453743Y835795D01*
X453758Y833885D01*
X453547Y831946D01*
X453171Y830021D01*
X452132Y826176D01*
X452132Y826173D01*
X452131Y826171D01*
X451123Y822299D01*
X451123Y822297D01*
X451122Y822294D01*
X450639Y820352D01*
X450639Y820350D01*
X450638Y820348D01*
X449708Y816456D01*
X449708Y816453D01*
X449707Y816449D01*
X448826Y812546D01*
X448826Y812543D01*
X448825Y812540D01*
X447989Y808627D01*
X447989Y808624D01*
X447988Y808621D01*
X447200Y804699D01*
X447200Y804696D01*
X447199Y804693D01*
X446460Y800760D01*
X446460Y800757D01*
X446458Y800753D01*
X445777Y796810D01*
X445777Y796807D01*
X445776Y796803D01*
X445460Y794828D01*
X445460Y794825D01*
X445460Y794823D01*
X445164Y792844D01*
X445164Y792841D01*
X445163Y792838D01*
X444893Y790855D01*
X444893Y790852D01*
X444892Y790848D01*
X444652Y788862D01*
X444652Y788857D01*
X444651Y788851D01*
X444455Y786859D01*
X444456Y786852D01*
X444454Y786843D01*
X444324Y784846D01*
X444326Y784831D01*
X444323Y784812D01*
X444331Y782813D01*
X444335Y782789D01*
X444333Y782765D01*
X444364Y782653D01*
X444371Y782618D01*
X444375Y782612D01*
X444377Y782604D01*
X445162Y780914D01*
X445212Y780845D01*
X445259Y780773D01*
X445271Y780765D01*
X445280Y780754D01*
X445353Y780710D01*
X445425Y780662D01*
X445440Y780659D01*
X445451Y780652D01*
X445494Y780646D01*
X445587Y780625D01*
X447571Y780515D01*
X447612Y780521D01*
X447676Y780520D01*
X449651Y780829D01*
X449668Y780835D01*
X449691Y780837D01*
X451636Y781304D01*
X451646Y781309D01*
X451659Y781310D01*
X453579Y781872D01*
X453587Y781876D01*
X453597Y781878D01*
X455495Y782508D01*
X455502Y782512D01*
X455510Y782514D01*
X459258Y783892D01*
X461131Y784511D01*
X463054Y784980D01*
X463073Y784989D01*
X463099Y784993D01*
X464988Y785650D01*
X464999Y785656D01*
X465013Y785659D01*
X466864Y786417D01*
X466867Y786419D01*
X466872Y786420D01*
X468711Y787207D01*
X468713Y787208D01*
X468716Y787209D01*
X474206Y789620D01*
X476045Y790381D01*
X477900Y791097D01*
X479771Y791771D01*
X481663Y792406D01*
X481668Y792409D01*
X481675Y792410D01*
X483555Y793094D01*
X483559Y793097D01*
X483565Y793098D01*
X485429Y793824D01*
X485433Y793827D01*
X485438Y793828D01*
X489112Y795342D01*
X490982Y795888D01*
X492905Y796246D01*
X494859Y796451D01*
X496831Y796537D01*
X498810Y796535D01*
X500774Y796448D01*
X502695Y796183D01*
X504547Y795644D01*
X506330Y794856D01*
X508067Y793933D01*
X509748Y792906D01*
X511352Y791773D01*
X512865Y790527D01*
X514250Y789163D01*
X515402Y787672D01*
X516041Y785885D01*
X516052Y785866D01*
X516060Y785838D01*
X516917Y784045D01*
X516936Y784020D01*
X516953Y783982D01*
X518066Y782320D01*
X518072Y782314D01*
X518077Y782304D01*
X519255Y780687D01*
X519259Y780683D01*
X519262Y780678D01*
X520476Y779088D01*
X520479Y779085D01*
X520482Y779081D01*
X521722Y777512D01*
X521725Y777510D01*
X521727Y777507D01*
X522988Y775954D01*
X522990Y775952D01*
X522992Y775949D01*
X524271Y774411D01*
X524274Y774409D01*
X524276Y774405D01*
X526884Y771370D01*
X526886Y771368D01*
X526888Y771364D01*
X528163Y769923D01*
X528164Y769922D01*
X528165Y769921D01*
X530831Y766939D01*
X530833Y766938D01*
X530835Y766935D01*
X530966Y766833D01*
X531966Y766293D01*
X531984Y766288D01*
X531998Y766277D01*
X532078Y766259D01*
X532156Y766235D01*
X532174Y766237D01*
X532192Y766233D01*
X532273Y766248D01*
G37*
G36*
X411647Y285804D02*
X411647Y285804D01*
X411655Y285805D01*
X411665Y285804D01*
X413662Y285931D01*
X413672Y285934D01*
X413685Y285933D01*
X415673Y286150D01*
X415694Y286157D01*
X415723Y286158D01*
X417678Y286575D01*
X417716Y286592D01*
X417779Y286608D01*
X419597Y287425D01*
X419603Y287429D01*
X419610Y287431D01*
X419746Y287528D01*
X421149Y288933D01*
X421152Y288937D01*
X421155Y288940D01*
X421249Y289077D01*
X422084Y290888D01*
X422093Y290927D01*
X422116Y290982D01*
X422579Y292927D01*
X422579Y292948D01*
X422587Y292973D01*
X422863Y294955D01*
X422863Y294965D01*
X422866Y294978D01*
X423155Y298151D01*
X423456Y296748D01*
X423469Y296717D01*
X423479Y296672D01*
X424202Y294809D01*
X424221Y294779D01*
X424239Y294732D01*
X425268Y293020D01*
X425292Y292993D01*
X425319Y292949D01*
X426631Y291442D01*
X426653Y291425D01*
X426675Y291398D01*
X428164Y290064D01*
X428169Y290062D01*
X428173Y290057D01*
X428316Y289971D01*
X430156Y289252D01*
X430169Y289250D01*
X430180Y289243D01*
X430345Y289218D01*
X432342Y289247D01*
X432362Y289251D01*
X432389Y289249D01*
X434378Y289465D01*
X434387Y289468D01*
X434399Y289468D01*
X436377Y289770D01*
X436392Y289776D01*
X436412Y289777D01*
X438362Y290219D01*
X438382Y290228D01*
X438410Y290232D01*
X440307Y290866D01*
X440335Y290882D01*
X440378Y290896D01*
X442153Y291812D01*
X442188Y291840D01*
X442257Y291884D01*
X443741Y293212D01*
X443750Y293225D01*
X443762Y293233D01*
X443858Y293369D01*
X444712Y295160D01*
X444758Y295320D01*
X444976Y297303D01*
X444973Y297343D01*
X444971Y297451D01*
X444601Y299407D01*
X444598Y299414D01*
X444598Y299422D01*
X444536Y299576D01*
X443492Y301269D01*
X443487Y301274D01*
X443485Y301281D01*
X443371Y301403D01*
X441793Y302617D01*
X441753Y302636D01*
X441676Y302684D01*
X439863Y303418D01*
X438304Y304376D01*
X437307Y305914D01*
X436565Y307708D01*
X435901Y309578D01*
X434636Y313360D01*
X434059Y315255D01*
X433596Y317150D01*
X433415Y319011D01*
X433871Y320719D01*
X435089Y322047D01*
X436693Y323092D01*
X438433Y324017D01*
X440219Y324905D01*
X440228Y324912D01*
X440241Y324916D01*
X441985Y325895D01*
X442000Y325908D01*
X442023Y325918D01*
X443673Y327049D01*
X443688Y327064D01*
X443711Y327078D01*
X445244Y328362D01*
X445260Y328382D01*
X445287Y328402D01*
X446660Y329855D01*
X446678Y329885D01*
X446712Y329921D01*
X447821Y331581D01*
X447830Y331601D01*
X447888Y331727D01*
X448410Y333638D01*
X448415Y333709D01*
X448428Y333779D01*
X448422Y333811D01*
X448424Y333836D01*
X448410Y333877D01*
X448397Y333943D01*
X447711Y335800D01*
X447689Y335835D01*
X447642Y335926D01*
X446443Y337525D01*
X446416Y337548D01*
X446386Y337588D01*
X444933Y338959D01*
X444895Y338983D01*
X444825Y339037D01*
X443072Y339968D01*
X443002Y339988D01*
X442934Y340017D01*
X442904Y340017D01*
X442882Y340024D01*
X442838Y340019D01*
X442768Y340021D01*
X440800Y339742D01*
X440777Y339734D01*
X440746Y339732D01*
X438808Y339237D01*
X438802Y339234D01*
X438795Y339234D01*
X436870Y338689D01*
X436868Y338687D01*
X436865Y338687D01*
X433040Y337555D01*
X431145Y337099D01*
X429510Y336964D01*
X428931Y337947D01*
X429566Y339549D01*
X430502Y341283D01*
X430503Y341287D01*
X430506Y341290D01*
X431427Y343066D01*
X431433Y343085D01*
X431447Y343108D01*
X432200Y344961D01*
X432202Y344975D01*
X432207Y344982D01*
X432209Y344993D01*
X432217Y345010D01*
X432771Y346932D01*
X432773Y346957D01*
X432784Y346989D01*
X433106Y348962D01*
X433105Y348991D01*
X433113Y349028D01*
X433171Y351027D01*
X433166Y351057D01*
X433168Y351099D01*
X432937Y353084D01*
X432927Y353116D01*
X432922Y353160D01*
X432388Y355086D01*
X432373Y355116D01*
X432361Y355160D01*
X431815Y356355D01*
X431530Y356978D01*
X431511Y357004D01*
X431493Y357045D01*
X430394Y358714D01*
X430372Y358736D01*
X430350Y358771D01*
X429021Y360265D01*
X428998Y360282D01*
X428974Y360311D01*
X427462Y361619D01*
X427443Y361629D01*
X427424Y361649D01*
X425790Y362802D01*
X425754Y362818D01*
X425706Y362850D01*
X423886Y363665D01*
X423843Y363675D01*
X423767Y363702D01*
X421798Y364039D01*
X421772Y364039D01*
X421740Y364046D01*
X419743Y364153D01*
X419734Y364151D01*
X419723Y364153D01*
X417723Y364181D01*
X417720Y364181D01*
X417716Y364181D01*
X415716Y364185D01*
X415713Y364184D01*
X415710Y364185D01*
X413709Y364165D01*
X413703Y364163D01*
X413696Y364164D01*
X411697Y364092D01*
X411683Y364088D01*
X411665Y364090D01*
X409675Y363890D01*
X409647Y363881D01*
X409606Y363878D01*
X407666Y363403D01*
X407630Y363386D01*
X407572Y363370D01*
X405765Y362518D01*
X405742Y362501D01*
X405708Y362487D01*
X404024Y361409D01*
X404008Y361393D01*
X403983Y361379D01*
X402417Y360136D01*
X402400Y360116D01*
X402373Y360097D01*
X400965Y358677D01*
X400949Y358653D01*
X400920Y358625D01*
X399719Y357028D01*
X399705Y356999D01*
X399679Y356965D01*
X398729Y355206D01*
X398720Y355175D01*
X398698Y355137D01*
X398027Y353254D01*
X398022Y353223D01*
X398007Y353184D01*
X397617Y351224D01*
X397617Y351195D01*
X397608Y351158D01*
X397479Y349163D01*
X397482Y349147D01*
X397480Y349139D01*
X397481Y349134D01*
X397479Y349114D01*
X397547Y347115D01*
X397553Y347093D01*
X397552Y347065D01*
X397818Y345084D01*
X397828Y345055D01*
X397833Y345015D01*
X398375Y343091D01*
X398391Y343060D01*
X398405Y343012D01*
X399267Y341209D01*
X399287Y341181D01*
X399308Y341138D01*
X400455Y339501D01*
X400475Y339481D01*
X400495Y339450D01*
X401842Y337973D01*
X401858Y337962D01*
X401872Y337943D01*
X403339Y336589D01*
X404741Y335242D01*
X405637Y333939D01*
X404926Y332959D01*
X403188Y332626D01*
X401233Y332491D01*
X399251Y332443D01*
X397252Y332427D01*
X397242Y332425D01*
X397228Y332427D01*
X395231Y332315D01*
X395209Y332309D01*
X395179Y332309D01*
X393206Y331989D01*
X393168Y331974D01*
X393108Y331962D01*
X391245Y331251D01*
X391232Y331242D01*
X391217Y331239D01*
X391079Y331146D01*
X389646Y329781D01*
X389624Y329749D01*
X389594Y329724D01*
X389558Y329655D01*
X389532Y329618D01*
X389528Y329599D01*
X389516Y329577D01*
X388891Y327692D01*
X388888Y327672D01*
X388865Y327534D01*
X388870Y325540D01*
X388870Y325539D01*
X388898Y325375D01*
X389558Y323498D01*
X389560Y323496D01*
X389560Y323492D01*
X389643Y323348D01*
X390905Y321806D01*
X390940Y321778D01*
X391002Y321716D01*
X392628Y320558D01*
X392662Y320542D01*
X392705Y320512D01*
X394515Y319663D01*
X394541Y319657D01*
X394572Y319640D01*
X396473Y319020D01*
X396493Y319018D01*
X396516Y319008D01*
X398466Y318560D01*
X398481Y318559D01*
X398499Y318553D01*
X402424Y317925D01*
X404270Y317435D01*
X405844Y316543D01*
X406857Y315077D01*
X407339Y313269D01*
X407544Y311335D01*
X407622Y309361D01*
X407637Y307369D01*
X407631Y305377D01*
X407588Y303399D01*
X407416Y301486D01*
X406811Y299758D01*
X405579Y298325D01*
X404217Y296878D01*
X404195Y296843D01*
X404154Y296795D01*
X403117Y295091D01*
X403107Y295064D01*
X403057Y294946D01*
X402601Y293010D01*
X402601Y292996D01*
X402596Y292983D01*
X402594Y292817D01*
X402907Y290854D01*
X402908Y290850D01*
X402908Y290847D01*
X402963Y290690D01*
X403929Y288947D01*
X403959Y288912D01*
X404004Y288845D01*
X405589Y287172D01*
X405625Y287147D01*
X405696Y287087D01*
X407400Y286071D01*
X407419Y286064D01*
X407434Y286052D01*
X407569Y286012D01*
X407588Y286005D01*
X407591Y286005D01*
X407593Y286004D01*
X409572Y285755D01*
X409604Y285757D01*
X409647Y285751D01*
X411647Y285804D01*
G37*
G36*
X537183Y162425D02*
X537183Y162425D01*
X537184Y162425D01*
X537342Y162476D01*
X539104Y163400D01*
X539111Y163406D01*
X539120Y163409D01*
X539249Y163515D01*
X540557Y165018D01*
X540579Y165057D01*
X540630Y165130D01*
X541453Y166846D01*
X542626Y168004D01*
X544407Y168471D01*
X546357Y168804D01*
X546365Y168807D01*
X546375Y168807D01*
X548334Y169213D01*
X548345Y169218D01*
X548360Y169220D01*
X550294Y169731D01*
X550311Y169739D01*
X550336Y169744D01*
X552217Y170422D01*
X552244Y170438D01*
X552284Y170452D01*
X554042Y171401D01*
X554076Y171429D01*
X554139Y171469D01*
X555623Y172800D01*
X555649Y172835D01*
X555697Y172884D01*
X556850Y174516D01*
X556864Y174548D01*
X556919Y174653D01*
X557516Y176540D01*
X557522Y176597D01*
X557538Y176652D01*
X557533Y176702D01*
X557537Y176738D01*
X557527Y176770D01*
X557523Y176818D01*
X557019Y178733D01*
X557000Y178770D01*
X556999Y178774D01*
X556989Y178815D01*
X556974Y178835D01*
X556962Y178866D01*
X555920Y180572D01*
X555912Y180581D01*
X555906Y180594D01*
X554785Y182232D01*
X553773Y183922D01*
X552875Y185673D01*
X552089Y187478D01*
X551409Y189331D01*
X550831Y191219D01*
X550339Y193135D01*
X549923Y195082D01*
X549922Y195087D01*
X549921Y195092D01*
X549464Y197039D01*
X549458Y197052D01*
X549456Y197069D01*
X548882Y198985D01*
X548876Y198996D01*
X548873Y199011D01*
X548194Y200893D01*
X548186Y200906D01*
X548181Y200925D01*
X547374Y202754D01*
X547362Y202770D01*
X547360Y202779D01*
X547355Y202787D01*
X547348Y202805D01*
X545434Y206082D01*
X545674Y207024D01*
X547316Y207532D01*
X547317Y207532D01*
X547319Y207534D01*
X547464Y207607D01*
X549054Y208773D01*
X549083Y208805D01*
X549118Y208829D01*
X549159Y208888D01*
X549188Y208920D01*
X549195Y208942D01*
X549212Y208967D01*
X550045Y210774D01*
X550055Y210817D01*
X550081Y210886D01*
X550468Y212847D01*
X550467Y212869D01*
X550475Y212895D01*
X550670Y214886D01*
X550669Y214896D01*
X550672Y214909D01*
X550776Y216907D01*
X550775Y216912D01*
X550776Y216918D01*
X550836Y218917D01*
X550834Y218927D01*
X550836Y218940D01*
X550807Y220939D01*
X550802Y220964D01*
X550780Y221095D01*
X550138Y222950D01*
X550098Y223017D01*
X550064Y223088D01*
X550047Y223105D01*
X550037Y223121D01*
X550001Y223148D01*
X549943Y223202D01*
X548288Y224307D01*
X548253Y224322D01*
X548206Y224352D01*
X546368Y225130D01*
X546325Y225139D01*
X546232Y225166D01*
X544253Y225400D01*
X544209Y225397D01*
X544118Y225398D01*
X542145Y225092D01*
X542113Y225080D01*
X542066Y225073D01*
X540165Y224452D01*
X540149Y224443D01*
X540126Y224437D01*
X538284Y223656D01*
X538276Y223650D01*
X538264Y223647D01*
X536515Y222813D01*
X534765Y222468D01*
X532976Y222962D01*
X531132Y223663D01*
X527429Y225163D01*
X527401Y225168D01*
X527368Y225183D01*
X525441Y225687D01*
X525405Y225689D01*
X525370Y225700D01*
X525288Y225695D01*
X525243Y225698D01*
X525226Y225692D01*
X525204Y225690D01*
X523274Y225249D01*
X523239Y225233D01*
X523135Y225195D01*
X521406Y224194D01*
X521382Y224173D01*
X521353Y224159D01*
X521290Y224092D01*
X521257Y224062D01*
X521251Y224050D01*
X521239Y224037D01*
X520158Y222401D01*
X520150Y222379D01*
X520135Y222361D01*
X520097Y222248D01*
X520084Y222217D01*
X520084Y222211D01*
X520082Y222204D01*
X519771Y220230D01*
X519772Y220209D01*
X519766Y220184D01*
X519641Y218187D01*
X519642Y218181D01*
X519640Y218174D01*
X519495Y214175D01*
X519497Y214167D01*
X519495Y214157D01*
X519496Y212156D01*
X519504Y212118D01*
X519505Y212060D01*
X519890Y210114D01*
X519890Y210113D01*
X519890Y210112D01*
X519925Y210028D01*
X519966Y209930D01*
X519967Y209930D01*
X519967Y209929D01*
X520082Y209809D01*
X521660Y208641D01*
X521669Y208637D01*
X521677Y208629D01*
X523143Y207637D01*
X523394Y206123D01*
X522587Y204513D01*
X521496Y202874D01*
X521481Y202837D01*
X521450Y202786D01*
X520694Y200937D01*
X520688Y200908D01*
X520672Y200872D01*
X520178Y198934D01*
X520177Y198917D01*
X520170Y198898D01*
X519821Y196928D01*
X519821Y196918D01*
X519817Y196907D01*
X519552Y194924D01*
X519552Y194919D01*
X519550Y194914D01*
X519105Y190947D01*
X518812Y188998D01*
X518368Y187112D01*
X517632Y185345D01*
X516591Y183713D01*
X515396Y182134D01*
X515392Y182126D01*
X515385Y182118D01*
X514240Y180478D01*
X514229Y180455D01*
X514209Y180428D01*
X513267Y178666D01*
X513254Y178623D01*
X513221Y178546D01*
X512761Y176610D01*
X512760Y176574D01*
X512750Y176539D01*
X512756Y176457D01*
X512755Y176412D01*
X512761Y176395D01*
X512763Y176373D01*
X513246Y174457D01*
X513258Y174432D01*
X513262Y174405D01*
X513314Y174315D01*
X513332Y174278D01*
X513339Y174271D01*
X513345Y174261D01*
X514615Y172726D01*
X514644Y172702D01*
X514679Y172661D01*
X516213Y171377D01*
X516237Y171364D01*
X516264Y171340D01*
X517947Y170262D01*
X517979Y170249D01*
X518019Y170223D01*
X519856Y169436D01*
X519886Y169430D01*
X519922Y169413D01*
X521852Y168890D01*
X521871Y168888D01*
X521894Y168880D01*
X523863Y168526D01*
X523870Y168527D01*
X523878Y168524D01*
X525834Y168234D01*
X527625Y167793D01*
X528820Y166675D01*
X529678Y164983D01*
X529704Y164950D01*
X529761Y164865D01*
X531041Y163515D01*
X531044Y163513D01*
X531174Y163415D01*
X532941Y162498D01*
X532963Y162492D01*
X533092Y162448D01*
X535061Y162136D01*
X535098Y162138D01*
X535211Y162136D01*
X537183Y162425D01*
G37*
G36*
X683356Y77524D02*
X683356Y77524D01*
X683375Y77521D01*
X685373Y77623D01*
X685389Y77627D01*
X685410Y77626D01*
X687394Y77874D01*
X687413Y77880D01*
X687437Y77881D01*
X689393Y78299D01*
X689421Y78311D01*
X689461Y78319D01*
X691335Y79009D01*
X691365Y79027D01*
X691410Y79043D01*
X693148Y80030D01*
X693168Y80048D01*
X693200Y80064D01*
X694802Y81261D01*
X694817Y81277D01*
X694840Y81293D01*
X696316Y82643D01*
X696325Y82656D01*
X696338Y82665D01*
X696341Y82669D01*
X696345Y82672D01*
X697703Y84141D01*
X697711Y84155D01*
X697727Y84169D01*
X698974Y85732D01*
X698981Y85746D01*
X698994Y85759D01*
X700135Y87402D01*
X700140Y87415D01*
X700152Y87428D01*
X701189Y89138D01*
X701194Y89150D01*
X701204Y89163D01*
X702139Y90931D01*
X702143Y90942D01*
X702150Y90953D01*
X702999Y92765D01*
X703001Y92772D01*
X703005Y92779D01*
X703798Y94615D01*
X703802Y94632D01*
X703812Y94652D01*
X704459Y96544D01*
X704463Y96575D01*
X704478Y96615D01*
X704839Y98580D01*
X704838Y98612D01*
X704847Y98655D01*
X704909Y100654D01*
X704906Y100671D01*
X704909Y100692D01*
X704817Y102690D01*
X704815Y102698D01*
X704815Y102708D01*
X704652Y104702D01*
X704648Y104715D01*
X704648Y104732D01*
X704364Y106712D01*
X704359Y106726D01*
X704358Y106745D01*
X703943Y108702D01*
X703937Y108716D01*
X703935Y108735D01*
X703386Y110659D01*
X703378Y110673D01*
X703374Y110693D01*
X702686Y112571D01*
X702677Y112586D01*
X702671Y112607D01*
X701841Y114426D01*
X701830Y114441D01*
X701822Y114463D01*
X700843Y116207D01*
X700830Y116223D01*
X700820Y116245D01*
X699689Y117895D01*
X699674Y117910D01*
X699659Y117934D01*
X698373Y119465D01*
X698354Y119480D01*
X698336Y119504D01*
X696893Y120888D01*
X696872Y120902D01*
X696849Y120926D01*
X695255Y122133D01*
X695236Y122142D01*
X695215Y122161D01*
X693511Y123207D01*
X693481Y123218D01*
X693445Y123242D01*
X691605Y124021D01*
X691570Y124029D01*
X691524Y124048D01*
X689577Y124500D01*
X689552Y124501D01*
X689522Y124510D01*
X687536Y124744D01*
X687524Y124743D01*
X687510Y124746D01*
X685514Y124877D01*
X685506Y124876D01*
X685498Y124878D01*
X683498Y124945D01*
X683482Y124942D01*
X683462Y124945D01*
X681464Y124865D01*
X681433Y124858D01*
X681389Y124857D01*
X679427Y124480D01*
X679396Y124467D01*
X679349Y124459D01*
X677472Y123770D01*
X677456Y123760D01*
X677432Y123753D01*
X675622Y122902D01*
X675615Y122897D01*
X675605Y122894D01*
X673828Y121975D01*
X673819Y121968D01*
X673806Y121963D01*
X672077Y120958D01*
X672065Y120948D01*
X672048Y120940D01*
X670391Y119819D01*
X670378Y119805D01*
X670358Y119794D01*
X668801Y118538D01*
X668788Y118522D01*
X668766Y118507D01*
X667334Y117111D01*
X667322Y117095D01*
X667303Y117079D01*
X666001Y115561D01*
X665993Y115546D01*
X665978Y115532D01*
X664792Y113921D01*
X664787Y113909D01*
X664776Y113897D01*
X663683Y112222D01*
X663678Y112211D01*
X663669Y112200D01*
X662666Y110469D01*
X662657Y110441D01*
X662636Y110407D01*
X661883Y108557D01*
X661876Y108519D01*
X661855Y108466D01*
X661466Y106506D01*
X661466Y106481D01*
X661458Y106449D01*
X661297Y104455D01*
X661298Y104444D01*
X661295Y104430D01*
X661235Y102430D01*
X661236Y102425D01*
X661235Y102420D01*
X661217Y100419D01*
X661217Y100417D01*
X661217Y100414D01*
X661219Y98413D01*
X661219Y98410D01*
X661219Y98406D01*
X661250Y96406D01*
X661252Y96400D01*
X661251Y96392D01*
X661335Y94394D01*
X661337Y94383D01*
X661336Y94370D01*
X661515Y92378D01*
X661521Y92358D01*
X661522Y92331D01*
X661886Y90365D01*
X661899Y90332D01*
X661909Y90283D01*
X662604Y88411D01*
X662627Y88373D01*
X662659Y88304D01*
X663782Y86654D01*
X663807Y86630D01*
X663833Y86590D01*
X665212Y85142D01*
X665229Y85131D01*
X665244Y85111D01*
X666747Y83791D01*
X666760Y83784D01*
X666772Y83771D01*
X668357Y82550D01*
X668368Y82545D01*
X668380Y82534D01*
X670031Y81404D01*
X670043Y81399D01*
X670055Y81389D01*
X671767Y80355D01*
X671780Y80350D01*
X671794Y80339D01*
X673568Y79415D01*
X673586Y79410D01*
X673606Y79398D01*
X675450Y78625D01*
X675476Y78620D01*
X675506Y78605D01*
X677251Y78105D01*
X677274Y78103D01*
X677302Y78093D01*
X679272Y77747D01*
X679290Y77747D01*
X679313Y77741D01*
X681305Y77560D01*
X681321Y77562D01*
X681341Y77558D01*
X683341Y77521D01*
X683356Y77524D01*
G37*
G36*
X582963Y420549D02*
X582963Y420549D01*
X582987Y420555D01*
X583018Y420554D01*
X584991Y420876D01*
X585015Y420885D01*
X585047Y420889D01*
X586971Y421432D01*
X586993Y421444D01*
X587025Y421451D01*
X588874Y422211D01*
X588896Y422225D01*
X588928Y422236D01*
X590673Y423211D01*
X590694Y423229D01*
X590727Y423246D01*
X592332Y424438D01*
X592350Y424458D01*
X592378Y424477D01*
X593828Y425855D01*
X593842Y425875D01*
X593866Y425896D01*
X595152Y427428D01*
X595162Y427447D01*
X595182Y427467D01*
X596309Y429119D01*
X596316Y429137D01*
X596332Y429157D01*
X597309Y430902D01*
X597314Y430918D01*
X597326Y430936D01*
X598166Y432751D01*
X598170Y432766D01*
X598179Y432782D01*
X598894Y434651D01*
X598897Y434664D01*
X598904Y434679D01*
X599506Y436587D01*
X599507Y436599D01*
X599513Y436612D01*
X600014Y438549D01*
X600015Y438559D01*
X600020Y438572D01*
X600428Y440530D01*
X600428Y440540D01*
X600431Y440551D01*
X600756Y442525D01*
X600756Y442534D01*
X600759Y442544D01*
X601009Y444529D01*
X601008Y444537D01*
X601011Y444546D01*
X601191Y446538D01*
X601191Y446544D01*
X601192Y446551D01*
X601320Y448547D01*
X601320Y448551D01*
X601321Y448555D01*
X601418Y450554D01*
X601416Y450561D01*
X601418Y450570D01*
X601449Y452571D01*
X601446Y452587D01*
X601449Y452607D01*
X601333Y454603D01*
X601323Y454641D01*
X601318Y454697D01*
X600827Y456630D01*
X600808Y456670D01*
X600779Y456750D01*
X599805Y458493D01*
X598862Y460241D01*
X597988Y462029D01*
X597967Y462058D01*
X597944Y462102D01*
X596777Y463719D01*
X596747Y463746D01*
X596710Y463794D01*
X595240Y465148D01*
X595216Y465162D01*
X595191Y465187D01*
X593560Y466345D01*
X593541Y466353D01*
X593520Y466370D01*
X591786Y467367D01*
X591769Y467373D01*
X591751Y467386D01*
X589943Y468242D01*
X589927Y468246D01*
X589908Y468257D01*
X588040Y468972D01*
X588023Y468975D01*
X588003Y468985D01*
X586085Y469551D01*
X586065Y469553D01*
X586041Y469562D01*
X584079Y469952D01*
X584054Y469952D01*
X584022Y469960D01*
X582029Y470120D01*
X581995Y470116D01*
X581946Y470120D01*
X579956Y469946D01*
X579933Y469939D01*
X579901Y469938D01*
X577940Y469543D01*
X577926Y469537D01*
X577908Y469535D01*
X575978Y469012D01*
X575960Y469003D01*
X575935Y468999D01*
X574060Y468306D01*
X574038Y468293D01*
X574007Y468283D01*
X572223Y467380D01*
X572201Y467362D01*
X572166Y467346D01*
X570519Y466212D01*
X570498Y466191D01*
X570465Y466169D01*
X568991Y464819D01*
X568975Y464797D01*
X568947Y464774D01*
X567655Y463248D01*
X567644Y463228D01*
X567624Y463207D01*
X566494Y461557D01*
X566487Y461541D01*
X566473Y461524D01*
X565477Y459789D01*
X565473Y459777D01*
X565463Y459764D01*
X564569Y457974D01*
X564566Y457965D01*
X564560Y457955D01*
X563743Y456129D01*
X563741Y456122D01*
X563737Y456115D01*
X562977Y454264D01*
X562976Y454259D01*
X562973Y454253D01*
X562256Y452385D01*
X562254Y452375D01*
X562248Y452364D01*
X561616Y450466D01*
X561614Y450445D01*
X561603Y450419D01*
X561161Y448469D01*
X561161Y448440D01*
X561151Y448404D01*
X560971Y446412D01*
X560973Y446392D01*
X560973Y446389D01*
X560973Y446388D01*
X560969Y446364D01*
X560983Y444364D01*
X560985Y444353D01*
X560984Y444341D01*
X561089Y442343D01*
X561090Y442338D01*
X561090Y442332D01*
X561239Y440337D01*
X561242Y440328D01*
X561241Y440316D01*
X561474Y438329D01*
X561478Y438318D01*
X561478Y438302D01*
X561820Y436331D01*
X561825Y436317D01*
X561827Y436298D01*
X562299Y434355D01*
X562306Y434339D01*
X562309Y434317D01*
X562931Y432417D01*
X562942Y432399D01*
X562948Y432373D01*
X563744Y430539D01*
X563757Y430519D01*
X563768Y430491D01*
X564756Y428752D01*
X564773Y428733D01*
X564788Y428702D01*
X565976Y427094D01*
X565997Y427076D01*
X566017Y427046D01*
X567398Y425600D01*
X567420Y425585D01*
X567425Y425580D01*
X567434Y425566D01*
X567438Y425564D01*
X567444Y425558D01*
X568994Y424295D01*
X569017Y424283D01*
X569042Y424261D01*
X570730Y423190D01*
X570752Y423182D01*
X570776Y423164D01*
X572567Y422274D01*
X572588Y422269D01*
X572613Y422254D01*
X574859Y421409D01*
X574881Y421406D01*
X574908Y421394D01*
X576842Y420886D01*
X576864Y420885D01*
X576890Y420876D01*
X578865Y420561D01*
X578888Y420562D01*
X578916Y420555D01*
X580913Y420445D01*
X580936Y420449D01*
X580966Y420445D01*
X582963Y420549D01*
G37*
G36*
X249615Y85912D02*
X249615Y85912D01*
X249620Y85913D01*
X249627Y85912D01*
X251627Y85966D01*
X251636Y85968D01*
X251647Y85967D01*
X253643Y86101D01*
X253657Y86105D01*
X253676Y86104D01*
X255658Y86371D01*
X255680Y86378D01*
X255711Y86381D01*
X257652Y86857D01*
X257681Y86870D01*
X257722Y86880D01*
X259572Y87637D01*
X259600Y87656D01*
X259645Y87674D01*
X261346Y88722D01*
X261367Y88742D01*
X261401Y88761D01*
X262947Y90030D01*
X262959Y90045D01*
X262980Y90060D01*
X264407Y91461D01*
X264414Y91470D01*
X264425Y91479D01*
X265778Y92953D01*
X265784Y92963D01*
X265796Y92973D01*
X267068Y94517D01*
X267074Y94529D01*
X267087Y94541D01*
X268261Y96161D01*
X268267Y96174D01*
X268279Y96187D01*
X269347Y97878D01*
X269352Y97892D01*
X269364Y97906D01*
X270319Y99664D01*
X270324Y99679D01*
X270334Y99695D01*
X271167Y101513D01*
X271170Y101529D01*
X271181Y101547D01*
X271880Y103421D01*
X271883Y103438D01*
X271892Y103458D01*
X272442Y105381D01*
X272444Y105399D01*
X272452Y105421D01*
X272839Y107384D01*
X272839Y107404D01*
X272846Y107430D01*
X273048Y109419D01*
X273046Y109442D01*
X273051Y109472D01*
X273044Y111471D01*
X273038Y111497D01*
X273040Y111530D01*
X272798Y113515D01*
X272789Y113542D01*
X272785Y113581D01*
X272278Y115514D01*
X272263Y115544D01*
X272253Y115586D01*
X271457Y117420D01*
X271439Y117446D01*
X271422Y117487D01*
X270358Y119180D01*
X270350Y119188D01*
X270345Y119200D01*
X269198Y120840D01*
X269192Y120846D01*
X269188Y120855D01*
X267982Y122451D01*
X267973Y122459D01*
X267965Y122473D01*
X266673Y124000D01*
X266659Y124011D01*
X266646Y124030D01*
X265235Y125447D01*
X265214Y125461D01*
X265192Y125485D01*
X263628Y126731D01*
X263599Y126745D01*
X263566Y126773D01*
X261834Y127770D01*
X261801Y127781D01*
X261760Y127805D01*
X259890Y128508D01*
X259859Y128513D01*
X259820Y128528D01*
X257866Y128953D01*
X257843Y128953D01*
X257813Y128961D01*
X255824Y129171D01*
X255807Y129169D01*
X255787Y129174D01*
X253787Y129235D01*
X253777Y129233D01*
X253764Y129235D01*
X251763Y129201D01*
X251749Y129198D01*
X251730Y129200D01*
X249737Y129032D01*
X249714Y129025D01*
X249682Y129024D01*
X247721Y128637D01*
X247698Y128627D01*
X247666Y128623D01*
X245760Y128015D01*
X245746Y128007D01*
X245725Y128003D01*
X243870Y127254D01*
X243863Y127249D01*
X243852Y127246D01*
X242028Y126424D01*
X242024Y126421D01*
X242019Y126420D01*
X240211Y125563D01*
X240208Y125561D01*
X240203Y125559D01*
X238411Y124670D01*
X238405Y124666D01*
X238396Y124663D01*
X236635Y123714D01*
X236623Y123704D01*
X236606Y123697D01*
X234913Y122631D01*
X234894Y122613D01*
X234864Y122596D01*
X233314Y121334D01*
X233293Y121308D01*
X233258Y121280D01*
X231922Y119793D01*
X231909Y119771D01*
X231885Y119747D01*
X230734Y118111D01*
X230729Y118100D01*
X230719Y118088D01*
X229661Y116390D01*
X229656Y116378D01*
X229647Y116366D01*
X228685Y114612D01*
X228680Y114596D01*
X228668Y114577D01*
X227845Y112754D01*
X227840Y112733D01*
X227827Y112708D01*
X227192Y110812D01*
X227189Y110787D01*
X227177Y110757D01*
X226761Y108801D01*
X226761Y108777D01*
X226752Y108746D01*
X226556Y106756D01*
X226558Y106736D01*
X226554Y106710D01*
X226543Y104710D01*
X226546Y104694D01*
X226544Y104674D01*
X226675Y102678D01*
X226681Y102656D01*
X226681Y102626D01*
X227021Y100656D01*
X227030Y100633D01*
X227034Y100601D01*
X227595Y98681D01*
X227606Y98660D01*
X227612Y98631D01*
X228376Y96782D01*
X228388Y96763D01*
X228398Y96736D01*
X229348Y94976D01*
X229363Y94959D01*
X229375Y94933D01*
X230500Y93279D01*
X230516Y93264D01*
X230531Y93239D01*
X231819Y91709D01*
X231837Y91695D01*
X231855Y91671D01*
X233296Y90284D01*
X233316Y90272D01*
X233337Y90249D01*
X234920Y89027D01*
X234943Y89016D01*
X234968Y88995D01*
X236682Y87965D01*
X236700Y87959D01*
X236719Y87946D01*
X237601Y87511D01*
X237619Y87506D01*
X237639Y87494D01*
X239500Y86763D01*
X239530Y86758D01*
X239567Y86742D01*
X241513Y86282D01*
X241538Y86281D01*
X241570Y86272D01*
X243557Y86041D01*
X243571Y86042D01*
X243589Y86038D01*
X245587Y85938D01*
X245595Y85939D01*
X245605Y85937D01*
X247605Y85907D01*
X247609Y85908D01*
X247614Y85907D01*
X249615Y85912D01*
G37*
G36*
X616264Y194493D02*
X616264Y194493D01*
X616308Y194491D01*
X618289Y194756D01*
X618319Y194766D01*
X618362Y194771D01*
X620282Y195326D01*
X620306Y195338D01*
X620340Y195346D01*
X622179Y196131D01*
X622196Y196142D01*
X622220Y196150D01*
X623981Y197098D01*
X623992Y197107D01*
X624009Y197114D01*
X625706Y198174D01*
X625713Y198181D01*
X625724Y198187D01*
X627372Y199322D01*
X627382Y199333D01*
X627399Y199342D01*
X628965Y200586D01*
X628977Y200600D01*
X628995Y200612D01*
X630456Y201979D01*
X630466Y201993D01*
X630483Y202006D01*
X631834Y203481D01*
X631842Y203495D01*
X631858Y203509D01*
X633098Y205078D01*
X633105Y205092D01*
X633119Y205106D01*
X634247Y206758D01*
X634253Y206772D01*
X634265Y206786D01*
X635279Y208510D01*
X635284Y208525D01*
X635295Y208540D01*
X636192Y210328D01*
X636196Y210342D01*
X636206Y210358D01*
X636981Y212202D01*
X636984Y212217D01*
X636993Y212233D01*
X637643Y214125D01*
X637645Y214141D01*
X637653Y214159D01*
X638168Y216092D01*
X638169Y216108D01*
X638176Y216127D01*
X638548Y218092D01*
X638548Y218110D01*
X638554Y218131D01*
X638772Y220119D01*
X638770Y220138D01*
X638775Y220162D01*
X638822Y222161D01*
X638818Y222182D01*
X638821Y222208D01*
X638680Y224203D01*
X638674Y224225D01*
X638674Y224255D01*
X638324Y226224D01*
X638315Y226248D01*
X638311Y226281D01*
X637732Y228195D01*
X637719Y228219D01*
X637711Y228254D01*
X636897Y230080D01*
X636885Y230097D01*
X636876Y230122D01*
X635896Y231866D01*
X635883Y231881D01*
X635872Y231905D01*
X634736Y233550D01*
X634719Y233566D01*
X634705Y233590D01*
X633407Y235112D01*
X633388Y235127D01*
X633369Y235151D01*
X631913Y236522D01*
X631891Y236535D01*
X631868Y236559D01*
X630263Y237751D01*
X630240Y237762D01*
X630214Y237783D01*
X628480Y238779D01*
X628456Y238787D01*
X628428Y238805D01*
X626590Y239593D01*
X626566Y239598D01*
X626538Y239612D01*
X624623Y240189D01*
X624600Y240191D01*
X624573Y240201D01*
X622608Y240575D01*
X622587Y240575D01*
X622561Y240582D01*
X620570Y240768D01*
X620550Y240766D01*
X620526Y240770D01*
X618526Y240782D01*
X618509Y240778D01*
X618488Y240780D01*
X616493Y240638D01*
X616478Y240634D01*
X616458Y240635D01*
X614478Y240354D01*
X614464Y240349D01*
X614447Y240349D01*
X612488Y239945D01*
X612472Y239939D01*
X612451Y239936D01*
X610528Y239385D01*
X610504Y239373D01*
X610470Y239365D01*
X608631Y238582D01*
X608605Y238564D01*
X608565Y238548D01*
X606862Y237501D01*
X606843Y237484D01*
X606813Y237467D01*
X605247Y236223D01*
X605236Y236210D01*
X605217Y236198D01*
X603753Y234836D01*
X603742Y234821D01*
X603724Y234806D01*
X602377Y233327D01*
X602368Y233312D01*
X602352Y233297D01*
X601125Y231717D01*
X601118Y231703D01*
X601105Y231689D01*
X599992Y230027D01*
X599987Y230014D01*
X599975Y230000D01*
X598972Y228269D01*
X598967Y228256D01*
X598957Y228243D01*
X598060Y226455D01*
X598057Y226442D01*
X598048Y226428D01*
X597256Y224591D01*
X597254Y224578D01*
X597246Y224564D01*
X596562Y222684D01*
X596560Y222672D01*
X596553Y222657D01*
X595979Y220741D01*
X595977Y220727D01*
X595971Y220712D01*
X595512Y218765D01*
X595512Y218750D01*
X595506Y218734D01*
X595172Y216761D01*
X595173Y216746D01*
X595168Y216727D01*
X594972Y214736D01*
X594974Y214719D01*
X594969Y214697D01*
X594932Y212697D01*
X594936Y212677D01*
X594933Y212651D01*
X595079Y210657D01*
X595086Y210634D01*
X595086Y210603D01*
X595450Y208636D01*
X595460Y208609D01*
X595466Y208571D01*
X596092Y206672D01*
X596105Y206649D01*
X596115Y206616D01*
X596753Y205261D01*
X596967Y204807D01*
X596983Y204785D01*
X596997Y204753D01*
X598067Y203064D01*
X598087Y203043D01*
X598106Y203010D01*
X599393Y201480D01*
X599415Y201462D01*
X599439Y201433D01*
X600915Y200084D01*
X600936Y200071D01*
X600960Y200048D01*
X602583Y198879D01*
X602602Y198871D01*
X602622Y198853D01*
X604349Y197844D01*
X604365Y197839D01*
X604381Y197827D01*
X606178Y196947D01*
X606191Y196943D01*
X606205Y196934D01*
X608260Y196074D01*
X608273Y196072D01*
X608287Y196064D01*
X608433Y196013D01*
X609846Y195513D01*
X610173Y195398D01*
X610189Y195395D01*
X610209Y195386D01*
X612139Y194865D01*
X612163Y194863D01*
X612191Y194854D01*
X614165Y194537D01*
X614194Y194539D01*
X614233Y194531D01*
X616231Y194487D01*
X616264Y194493D01*
G37*
G36*
X443747Y202798D02*
X443747Y202798D01*
X443758Y202801D01*
X443773Y202799D01*
X445769Y202935D01*
X445782Y202938D01*
X445799Y202938D01*
X447783Y203194D01*
X447799Y203200D01*
X447820Y203200D01*
X449779Y203606D01*
X449800Y203615D01*
X449830Y203619D01*
X451734Y204229D01*
X451754Y204240D01*
X451783Y204247D01*
X453614Y205052D01*
X453629Y205063D01*
X453652Y205071D01*
X455407Y206029D01*
X455420Y206040D01*
X455440Y206049D01*
X457117Y207139D01*
X457129Y207151D01*
X457148Y207161D01*
X458738Y208375D01*
X458749Y208388D01*
X458768Y208400D01*
X460258Y209735D01*
X460270Y209751D01*
X460291Y209767D01*
X461649Y211235D01*
X461663Y211258D01*
X461687Y211282D01*
X462859Y212901D01*
X462874Y212934D01*
X462904Y212977D01*
X463773Y214776D01*
X463781Y214808D01*
X463801Y214847D01*
X464384Y216759D01*
X464387Y216784D01*
X464398Y216814D01*
X464761Y218781D01*
X464761Y218801D01*
X464767Y218826D01*
X464949Y220818D01*
X464947Y220836D01*
X464951Y220858D01*
X464975Y222858D01*
X464971Y222874D01*
X464974Y222896D01*
X464844Y224892D01*
X464839Y224908D01*
X464840Y224930D01*
X464556Y226910D01*
X464550Y226928D01*
X464548Y226951D01*
X464099Y228900D01*
X464090Y228920D01*
X464085Y228947D01*
X463447Y230842D01*
X463434Y230865D01*
X463425Y230897D01*
X462567Y232703D01*
X462559Y232714D01*
X462554Y232730D01*
X461589Y234482D01*
X461583Y234489D01*
X461579Y234499D01*
X460545Y236212D01*
X460537Y236222D01*
X460531Y236235D01*
X459407Y237890D01*
X459395Y237901D01*
X459385Y237919D01*
X458144Y239487D01*
X458127Y239501D01*
X458112Y239524D01*
X456725Y240964D01*
X456702Y240980D01*
X456678Y241007D01*
X455119Y242259D01*
X455090Y242274D01*
X455055Y242302D01*
X453323Y243298D01*
X453290Y243309D01*
X453248Y243333D01*
X451374Y244029D01*
X451342Y244034D01*
X451301Y244050D01*
X449343Y244451D01*
X449315Y244451D01*
X449281Y244460D01*
X447287Y244615D01*
X447267Y244612D01*
X447241Y244616D01*
X445241Y244586D01*
X445219Y244581D01*
X445190Y244583D01*
X443205Y244346D01*
X443171Y244335D01*
X443121Y244329D01*
X441207Y243759D01*
X441171Y243740D01*
X441114Y243721D01*
X439353Y242778D01*
X439333Y242762D01*
X439302Y242747D01*
X437662Y241602D01*
X437656Y241595D01*
X437646Y241590D01*
X436054Y240377D01*
X436044Y240365D01*
X436027Y240355D01*
X434526Y239033D01*
X434513Y239015D01*
X434490Y238997D01*
X433133Y237528D01*
X433120Y237508D01*
X433098Y237487D01*
X431907Y235880D01*
X431899Y235863D01*
X431884Y235846D01*
X430830Y234146D01*
X430826Y234135D01*
X430817Y234123D01*
X429852Y232371D01*
X429850Y232364D01*
X429845Y232358D01*
X428932Y230577D01*
X428931Y230574D01*
X428929Y230570D01*
X428045Y228775D01*
X428044Y228772D01*
X428042Y228769D01*
X427183Y226962D01*
X427182Y226956D01*
X427178Y226951D01*
X426365Y225123D01*
X426363Y225112D01*
X426356Y225101D01*
X425629Y223238D01*
X425626Y223220D01*
X425615Y223199D01*
X425043Y221283D01*
X425041Y221257D01*
X425029Y221225D01*
X424691Y219254D01*
X424692Y219229D01*
X424684Y219197D01*
X424577Y217200D01*
X424580Y217181D01*
X424577Y217158D01*
X424637Y215159D01*
X424642Y215137D01*
X424641Y215109D01*
X424902Y213126D01*
X424911Y213099D01*
X424915Y213061D01*
X425437Y211132D01*
X425453Y211100D01*
X425466Y211052D01*
X426305Y209239D01*
X426328Y209207D01*
X426354Y209155D01*
X427528Y207540D01*
X427558Y207513D01*
X427594Y207466D01*
X429063Y206113D01*
X429093Y206094D01*
X429131Y206060D01*
X430811Y204978D01*
X430847Y204965D01*
X430892Y204936D01*
X433633Y203814D01*
X433666Y203807D01*
X433709Y203790D01*
X435656Y203333D01*
X435673Y203332D01*
X435695Y203325D01*
X437672Y203025D01*
X437686Y203025D01*
X437703Y203021D01*
X439695Y202842D01*
X439707Y202843D01*
X439722Y202840D01*
X441721Y202768D01*
X441732Y202770D01*
X441747Y202768D01*
X443747Y202798D01*
G37*
G36*
X580065Y271499D02*
X580065Y271499D01*
X580079Y271502D01*
X580097Y271500D01*
X582090Y271663D01*
X582110Y271669D01*
X582137Y271669D01*
X584106Y272020D01*
X584128Y272028D01*
X584157Y272032D01*
X586078Y272588D01*
X586101Y272600D01*
X586133Y272607D01*
X587068Y272999D01*
X587976Y273381D01*
X587998Y273396D01*
X588031Y273408D01*
X589766Y274402D01*
X589788Y274420D01*
X589821Y274438D01*
X591409Y275652D01*
X591429Y275675D01*
X591461Y275698D01*
X592868Y277118D01*
X592884Y277143D01*
X592913Y277171D01*
X594107Y278774D01*
X594120Y278801D01*
X594145Y278833D01*
X595103Y280587D01*
X595112Y280615D01*
X595132Y280649D01*
X595843Y282517D01*
X595847Y282545D01*
X595862Y282579D01*
X596326Y284524D01*
X596327Y284550D01*
X596336Y284583D01*
X596562Y286570D01*
X596559Y286594D01*
X596565Y286625D01*
X596569Y288625D01*
X596564Y288649D01*
X596566Y288681D01*
X596348Y290668D01*
X596339Y290695D01*
X596336Y290732D01*
X595863Y292674D01*
X595850Y292702D01*
X595842Y292742D01*
X595099Y294597D01*
X595083Y294621D01*
X595079Y294638D01*
X595073Y294645D01*
X595067Y294662D01*
X594063Y296391D01*
X594043Y296413D01*
X594024Y296447D01*
X592793Y298022D01*
X592773Y298040D01*
X592753Y298068D01*
X591341Y299483D01*
X591322Y299496D01*
X591304Y299517D01*
X589756Y300784D01*
X589750Y300787D01*
X589746Y300792D01*
X588213Y301981D01*
X587293Y303144D01*
X588277Y304355D01*
X588290Y304380D01*
X588315Y304409D01*
X589356Y306102D01*
X589361Y306117D01*
X589417Y306252D01*
X589861Y308197D01*
X589862Y308241D01*
X589874Y308314D01*
X589848Y310311D01*
X589840Y310351D01*
X589836Y310413D01*
X589402Y312362D01*
X589385Y312401D01*
X589368Y312465D01*
X588525Y314274D01*
X588498Y314310D01*
X588457Y314382D01*
X587186Y315919D01*
X587170Y315932D01*
X587154Y315954D01*
X586153Y316955D01*
X586286Y317052D01*
X588132Y317145D01*
X588144Y317148D01*
X588157Y317147D01*
X588240Y317173D01*
X588324Y317194D01*
X588334Y317202D01*
X588347Y317206D01*
X588477Y317309D01*
X589679Y318640D01*
X589697Y318669D01*
X589721Y318693D01*
X589747Y318754D01*
X589781Y318811D01*
X589785Y318844D01*
X589798Y318876D01*
X589798Y318942D01*
X589807Y319008D01*
X589798Y319041D01*
X589798Y319075D01*
X589772Y319136D01*
X589754Y319200D01*
X589733Y319226D01*
X589720Y319258D01*
X589659Y319321D01*
X589631Y319356D01*
X589618Y319363D01*
X589604Y319377D01*
X588103Y320478D01*
X588078Y320490D01*
X588048Y320514D01*
X586677Y321265D01*
X586466Y322964D01*
X586437Y324934D01*
X586436Y328932D01*
X586428Y328968D01*
X586430Y329006D01*
X586405Y329083D01*
X586396Y329127D01*
X586386Y329142D01*
X586378Y329164D01*
X585689Y330476D01*
X585634Y330543D01*
X585582Y330614D01*
X585572Y330620D01*
X585564Y330630D01*
X585487Y330670D01*
X585411Y330715D01*
X585398Y330717D01*
X585388Y330723D01*
X585346Y330726D01*
X585247Y330743D01*
X575244Y330743D01*
X575183Y330730D01*
X575120Y330727D01*
X575086Y330711D01*
X575049Y330703D01*
X574998Y330668D01*
X574941Y330641D01*
X574916Y330612D01*
X574885Y330591D01*
X574852Y330538D01*
X574810Y330491D01*
X574795Y330450D01*
X574778Y330423D01*
X574772Y330386D01*
X574753Y330335D01*
X574439Y328649D01*
X574439Y328611D01*
X574430Y328558D01*
X574420Y324573D01*
X574296Y322710D01*
X573463Y321278D01*
X572118Y320209D01*
X572116Y320206D01*
X572113Y320205D01*
X572052Y320131D01*
X571990Y320057D01*
X571989Y320054D01*
X571987Y320051D01*
X571960Y319959D01*
X571932Y319867D01*
X571932Y319863D01*
X571931Y319860D01*
X571945Y319694D01*
X572423Y317824D01*
X572458Y317753D01*
X572486Y317679D01*
X572501Y317664D01*
X572510Y317645D01*
X572569Y317593D01*
X572624Y317536D01*
X572645Y317526D01*
X572659Y317514D01*
X572702Y317500D01*
X572775Y317466D01*
X573866Y317167D01*
X573200Y316427D01*
X573197Y316422D01*
X573192Y316418D01*
X571892Y314904D01*
X571871Y314866D01*
X571826Y314806D01*
X570919Y313028D01*
X570907Y312987D01*
X570880Y312927D01*
X570374Y310996D01*
X570372Y310954D01*
X570358Y310892D01*
X570267Y308897D01*
X570274Y308854D01*
X570275Y308785D01*
X570633Y306821D01*
X570650Y306779D01*
X570672Y306700D01*
X571516Y304893D01*
X571530Y304874D01*
X571541Y304845D01*
X572391Y303442D01*
X571503Y302372D01*
X569923Y301257D01*
X569915Y301248D01*
X569902Y301241D01*
X568330Y300004D01*
X568319Y299991D01*
X568302Y299980D01*
X566825Y298632D01*
X566808Y298609D01*
X566778Y298583D01*
X565499Y297047D01*
X565484Y297021D01*
X565458Y296991D01*
X564404Y295292D01*
X564394Y295264D01*
X564372Y295231D01*
X563561Y293404D01*
X563555Y293376D01*
X563539Y293341D01*
X562978Y291422D01*
X562976Y291394D01*
X562964Y291359D01*
X562656Y289384D01*
X562658Y289357D01*
X562651Y289321D01*
X562594Y287323D01*
X562598Y287296D01*
X562596Y287262D01*
X562783Y285271D01*
X562791Y285246D01*
X562792Y285211D01*
X563221Y283258D01*
X563231Y283234D01*
X563237Y283200D01*
X563898Y281313D01*
X563912Y281289D01*
X563922Y281255D01*
X564811Y279465D01*
X564828Y279443D01*
X564842Y279411D01*
X565948Y277745D01*
X565968Y277725D01*
X565987Y277694D01*
X567296Y276183D01*
X567319Y276166D01*
X567342Y276137D01*
X568837Y274810D01*
X568862Y274796D01*
X568889Y274770D01*
X570544Y273649D01*
X570567Y273640D01*
X570593Y273620D01*
X572031Y272868D01*
X572052Y272862D01*
X572075Y272848D01*
X573929Y272099D01*
X573961Y272093D01*
X574003Y272076D01*
X575949Y271624D01*
X575982Y271623D01*
X576025Y271612D01*
X578019Y271463D01*
X578039Y271466D01*
X578065Y271462D01*
X580065Y271499D01*
G37*
G36*
X298689Y213252D02*
X298689Y213252D01*
X298706Y213256D01*
X298728Y213254D01*
X300721Y213419D01*
X300736Y213424D01*
X300755Y213424D01*
X302733Y213728D01*
X302747Y213733D01*
X302765Y213734D01*
X304718Y214170D01*
X304732Y214176D01*
X304750Y214178D01*
X306669Y214745D01*
X306683Y214752D01*
X306703Y214756D01*
X308575Y215461D01*
X308591Y215471D01*
X308613Y215477D01*
X310420Y216333D01*
X310438Y216347D01*
X310465Y216357D01*
X312177Y217390D01*
X312198Y217409D01*
X312230Y217427D01*
X313793Y218674D01*
X313820Y218707D01*
X313871Y218752D01*
X315116Y220308D01*
X315135Y220346D01*
X315176Y220403D01*
X316044Y222204D01*
X316049Y222225D01*
X316063Y222251D01*
X316744Y224131D01*
X316746Y224146D01*
X316753Y224162D01*
X317313Y226082D01*
X317313Y226094D01*
X317319Y226106D01*
X317783Y228052D01*
X317783Y228062D01*
X317788Y228073D01*
X318169Y230036D01*
X318169Y230045D01*
X318173Y230056D01*
X318477Y232033D01*
X318476Y232042D01*
X318479Y232053D01*
X318703Y234041D01*
X318702Y234051D01*
X318705Y234063D01*
X318840Y236059D01*
X318839Y236071D01*
X318841Y236085D01*
X318872Y238085D01*
X318869Y238102D01*
X318871Y238124D01*
X318747Y240120D01*
X318742Y240140D01*
X318742Y240166D01*
X318436Y242142D01*
X318428Y242164D01*
X318425Y242193D01*
X317917Y244126D01*
X317906Y244149D01*
X317899Y244181D01*
X317171Y246044D01*
X317157Y246067D01*
X317145Y246101D01*
X316187Y247856D01*
X316168Y247879D01*
X316150Y247914D01*
X314960Y249520D01*
X314937Y249541D01*
X314912Y249576D01*
X313499Y250990D01*
X313473Y251007D01*
X313442Y251039D01*
X311834Y252225D01*
X311805Y252238D01*
X311771Y252264D01*
X310003Y253198D01*
X309974Y253206D01*
X309938Y253226D01*
X308056Y253900D01*
X308027Y253904D01*
X307992Y253918D01*
X306038Y254337D01*
X306011Y254337D01*
X305978Y254346D01*
X303987Y254528D01*
X303961Y254525D01*
X303926Y254530D01*
X301928Y254469D01*
X301898Y254462D01*
X301856Y254462D01*
X299888Y254111D01*
X299863Y254102D01*
X299829Y254097D01*
X297917Y253514D01*
X297898Y253503D01*
X297870Y253497D01*
X296025Y252727D01*
X296009Y252716D01*
X295986Y252709D01*
X294212Y251785D01*
X294199Y251775D01*
X294180Y251767D01*
X292480Y250713D01*
X292468Y250702D01*
X292451Y250693D01*
X290828Y249524D01*
X290818Y249513D01*
X290802Y249504D01*
X289259Y248231D01*
X289250Y248219D01*
X289235Y248209D01*
X287778Y246839D01*
X287769Y246827D01*
X287755Y246816D01*
X286390Y245353D01*
X286382Y245340D01*
X286368Y245328D01*
X285106Y243776D01*
X285098Y243761D01*
X285084Y243747D01*
X283939Y242107D01*
X283931Y242090D01*
X283917Y242073D01*
X282908Y240346D01*
X282901Y240327D01*
X282886Y240306D01*
X282039Y238494D01*
X282033Y238472D01*
X282019Y238446D01*
X281366Y236556D01*
X281362Y236532D01*
X281350Y236503D01*
X280909Y234553D01*
X280908Y234529D01*
X280900Y234500D01*
X280671Y232513D01*
X280673Y232490D01*
X280668Y232461D01*
X280649Y230461D01*
X280653Y230439D01*
X280651Y230410D01*
X280839Y228419D01*
X280845Y228397D01*
X280846Y228368D01*
X281236Y226407D01*
X281245Y226386D01*
X281249Y226357D01*
X281837Y224446D01*
X281848Y224426D01*
X281855Y224397D01*
X282638Y222557D01*
X282651Y222538D01*
X282661Y222509D01*
X283636Y220763D01*
X283652Y220745D01*
X283666Y220716D01*
X284829Y219090D01*
X284848Y219072D01*
X284866Y219044D01*
X286211Y217565D01*
X286233Y217549D01*
X286256Y217521D01*
X287776Y216222D01*
X287801Y216208D01*
X287829Y216182D01*
X289507Y215096D01*
X289535Y215085D01*
X289568Y215062D01*
X291381Y214220D01*
X291406Y214214D01*
X291437Y214198D01*
X292579Y213827D01*
X292604Y213824D01*
X292635Y213813D01*
X294595Y213418D01*
X294620Y213418D01*
X294651Y213410D01*
X296644Y213241D01*
X296664Y213244D01*
X296689Y213239D01*
X298689Y213252D01*
G37*
G36*
X337633Y325991D02*
X337633Y325991D01*
X337662Y325988D01*
X339658Y326102D01*
X339675Y326106D01*
X339696Y326106D01*
X341679Y326369D01*
X341692Y326374D01*
X341709Y326374D01*
X343672Y326760D01*
X343684Y326765D01*
X343700Y326767D01*
X345637Y327263D01*
X345648Y327268D01*
X345664Y327270D01*
X347571Y327874D01*
X347583Y327881D01*
X347599Y327884D01*
X349467Y328599D01*
X349480Y328607D01*
X349498Y328612D01*
X351313Y329453D01*
X351329Y329464D01*
X351352Y329473D01*
X353087Y330468D01*
X353107Y330486D01*
X353139Y330503D01*
X354734Y331706D01*
X354756Y331730D01*
X354791Y331756D01*
X356187Y333186D01*
X356206Y333216D01*
X356240Y333250D01*
X357379Y334891D01*
X357394Y334925D01*
X357423Y334968D01*
X358255Y336785D01*
X358257Y336790D01*
X358257Y336791D01*
X358258Y336798D01*
X358263Y336816D01*
X358281Y336855D01*
X358833Y338777D01*
X358834Y338801D01*
X358845Y338831D01*
X359179Y340803D01*
X359178Y340820D01*
X359184Y340841D01*
X359364Y342833D01*
X359363Y342845D01*
X359366Y342860D01*
X359441Y344859D01*
X359440Y344867D01*
X359441Y344877D01*
X359442Y346878D01*
X359441Y346884D01*
X359442Y346891D01*
X359390Y348891D01*
X359389Y348896D01*
X359390Y348902D01*
X359294Y350900D01*
X359292Y350908D01*
X359293Y350917D01*
X359130Y352911D01*
X359127Y352920D01*
X359127Y352932D01*
X358879Y354917D01*
X358875Y354928D01*
X358875Y354942D01*
X358526Y356912D01*
X358521Y356925D01*
X358520Y356943D01*
X358045Y358886D01*
X358038Y358902D01*
X358034Y358924D01*
X357408Y360823D01*
X357397Y360843D01*
X357389Y360871D01*
X356573Y362696D01*
X356556Y362719D01*
X356543Y362753D01*
X355499Y364458D01*
X355476Y364482D01*
X355451Y364522D01*
X354148Y366037D01*
X354117Y366061D01*
X354079Y366103D01*
X352513Y367342D01*
X352477Y367361D01*
X352428Y367397D01*
X350645Y368296D01*
X350607Y368306D01*
X350556Y368330D01*
X348634Y368875D01*
X348600Y368878D01*
X348554Y368891D01*
X346568Y369118D01*
X346540Y369115D01*
X346503Y369121D01*
X344504Y369087D01*
X344482Y369083D01*
X344453Y369084D01*
X342467Y368847D01*
X342451Y368842D01*
X342429Y368841D01*
X340467Y368450D01*
X340449Y368443D01*
X340425Y368440D01*
X338505Y367880D01*
X338472Y367862D01*
X338420Y367846D01*
X336638Y366947D01*
X336606Y366922D01*
X336553Y366892D01*
X334986Y365651D01*
X334971Y365633D01*
X334945Y365615D01*
X333524Y364208D01*
X333518Y364199D01*
X333508Y364191D01*
X332151Y362721D01*
X332147Y362713D01*
X332138Y362706D01*
X330841Y361183D01*
X330837Y361175D01*
X330829Y361168D01*
X329591Y359597D01*
X329587Y359589D01*
X329579Y359581D01*
X328405Y357962D01*
X328399Y357950D01*
X328388Y357937D01*
X327311Y356252D01*
X327299Y356220D01*
X327274Y356181D01*
X326483Y354348D01*
X326476Y354317D01*
X326458Y354278D01*
X325948Y352344D01*
X325947Y352329D01*
X325941Y352312D01*
X325558Y350349D01*
X325558Y350339D01*
X325554Y350328D01*
X325256Y348349D01*
X325257Y348341D01*
X325254Y348332D01*
X325024Y346345D01*
X325024Y346338D01*
X325022Y346329D01*
X324856Y344336D01*
X324857Y344328D01*
X324855Y344319D01*
X324753Y342322D01*
X324754Y342313D01*
X324753Y342302D01*
X324728Y340302D01*
X324731Y340290D01*
X324729Y340275D01*
X324813Y338276D01*
X324818Y338255D01*
X324817Y338227D01*
X325098Y336248D01*
X325112Y336211D01*
X325122Y336152D01*
X325789Y334269D01*
X325807Y334240D01*
X325823Y334195D01*
X326788Y332444D01*
X326805Y332423D01*
X326821Y332391D01*
X327999Y330775D01*
X328017Y330758D01*
X328035Y330731D01*
X329388Y329259D01*
X329410Y329243D01*
X329432Y329216D01*
X330957Y327923D01*
X330987Y327906D01*
X331022Y327876D01*
X332732Y326844D01*
X332772Y326830D01*
X332863Y326789D01*
X335509Y326093D01*
X335551Y326091D01*
X335613Y326077D01*
X337611Y325988D01*
X337633Y325991D01*
G37*
G36*
X431288Y439935D02*
X431288Y439935D01*
X431317Y439942D01*
X431356Y439942D01*
X433328Y440259D01*
X433369Y440275D01*
X433437Y440290D01*
X435286Y441045D01*
X435313Y441063D01*
X435354Y441079D01*
X437068Y442109D01*
X437078Y442118D01*
X437092Y442125D01*
X438745Y443251D01*
X438753Y443260D01*
X438766Y443266D01*
X440359Y444475D01*
X440372Y444489D01*
X440391Y444502D01*
X441878Y445839D01*
X441893Y445859D01*
X441918Y445879D01*
X443245Y447374D01*
X443260Y447400D01*
X443288Y447429D01*
X444394Y449094D01*
X444406Y449123D01*
X444431Y449159D01*
X445279Y450968D01*
X445286Y450997D01*
X445303Y451032D01*
X445899Y452940D01*
X445901Y452964D01*
X445912Y452992D01*
X446299Y454954D01*
X446299Y454972D01*
X446305Y454993D01*
X446536Y456981D01*
X446534Y456994D01*
X446538Y457010D01*
X446652Y459007D01*
X446649Y459023D01*
X446652Y459043D01*
X446621Y461043D01*
X446616Y461065D01*
X446617Y461094D01*
X446380Y463080D01*
X446371Y463107D01*
X446368Y463145D01*
X445869Y465081D01*
X445855Y465109D01*
X445846Y465149D01*
X445073Y466992D01*
X445057Y467015D01*
X445044Y467050D01*
X444041Y468780D01*
X444027Y468796D01*
X444015Y468820D01*
X442848Y470445D01*
X442837Y470455D01*
X442828Y470472D01*
X441554Y472015D01*
X441547Y472021D01*
X441540Y472031D01*
X440202Y473518D01*
X440190Y473527D01*
X440179Y473542D01*
X438746Y474936D01*
X438714Y474957D01*
X438675Y474994D01*
X437016Y476101D01*
X436979Y476116D01*
X436884Y476164D01*
X434975Y476743D01*
X434939Y476746D01*
X434889Y476761D01*
X432904Y476997D01*
X432876Y476995D01*
X432840Y477000D01*
X430841Y476982D01*
X430812Y476976D01*
X430771Y476976D01*
X428794Y476676D01*
X428767Y476666D01*
X428727Y476661D01*
X426811Y476090D01*
X426787Y476077D01*
X426752Y476068D01*
X424923Y475260D01*
X424903Y475247D01*
X424874Y475236D01*
X423144Y474231D01*
X423129Y474218D01*
X423106Y474206D01*
X421476Y473047D01*
X421465Y473034D01*
X421446Y473023D01*
X419910Y471741D01*
X419894Y471721D01*
X419867Y471700D01*
X418497Y470245D01*
X418484Y470225D01*
X418461Y470204D01*
X417257Y468607D01*
X417249Y468592D01*
X417235Y468576D01*
X416156Y466891D01*
X416151Y466878D01*
X416141Y466865D01*
X415167Y465117D01*
X415163Y465106D01*
X415155Y465094D01*
X414275Y463298D01*
X414272Y463287D01*
X414264Y463275D01*
X413475Y461437D01*
X413473Y461426D01*
X413466Y461414D01*
X412768Y459539D01*
X412766Y459527D01*
X412759Y459513D01*
X412164Y457603D01*
X412163Y457589D01*
X412156Y457573D01*
X411682Y455630D01*
X411681Y455611D01*
X411674Y455589D01*
X411365Y453613D01*
X411366Y453585D01*
X411359Y453550D01*
X411304Y451552D01*
X411311Y451509D01*
X411314Y451436D01*
X411721Y449485D01*
X411739Y449444D01*
X411761Y449369D01*
X412634Y447572D01*
X412653Y447546D01*
X412672Y447507D01*
X413807Y445861D01*
X413825Y445844D01*
X413842Y445816D01*
X415159Y444311D01*
X415178Y444296D01*
X415197Y444272D01*
X416669Y442919D01*
X416692Y442905D01*
X416718Y442880D01*
X418346Y441721D01*
X418380Y441705D01*
X418424Y441675D01*
X420233Y440830D01*
X420273Y440821D01*
X420329Y440797D01*
X421197Y440590D01*
X421216Y440590D01*
X421238Y440582D01*
X423217Y440287D01*
X423227Y440287D01*
X423240Y440284D01*
X425231Y440083D01*
X425239Y440084D01*
X425248Y440082D01*
X427244Y439949D01*
X427253Y439950D01*
X427263Y439948D01*
X429263Y439891D01*
X429274Y439893D01*
X429288Y439891D01*
X431288Y439935D01*
G37*
G36*
X386465Y553312D02*
X386465Y553312D01*
X386536Y553314D01*
X388496Y553698D01*
X388526Y553711D01*
X388570Y553719D01*
X390450Y554401D01*
X390471Y554413D01*
X390500Y554422D01*
X392294Y555304D01*
X392314Y555319D01*
X392343Y555332D01*
X394028Y556410D01*
X394043Y556424D01*
X394066Y556437D01*
X395643Y557667D01*
X395655Y557680D01*
X395673Y557692D01*
X397148Y559043D01*
X397157Y559056D01*
X397173Y559067D01*
X398553Y560515D01*
X398560Y560527D01*
X398573Y560538D01*
X399862Y562068D01*
X399868Y562080D01*
X399880Y562091D01*
X401077Y563694D01*
X401083Y563705D01*
X401094Y563716D01*
X402200Y565383D01*
X402204Y565395D01*
X402214Y565407D01*
X403226Y567132D01*
X403230Y567145D01*
X403239Y567158D01*
X404149Y568939D01*
X404153Y568953D01*
X404163Y568967D01*
X404960Y570802D01*
X404964Y570817D01*
X404973Y570833D01*
X405643Y572718D01*
X405646Y572735D01*
X405655Y572755D01*
X406177Y574686D01*
X406178Y574706D01*
X406187Y574731D01*
X406528Y576701D01*
X406527Y576725D01*
X406534Y576754D01*
X406666Y578749D01*
X406664Y578769D01*
X406666Y578783D01*
X406665Y578788D01*
X406667Y578803D01*
X406647Y579282D01*
X406647Y579283D01*
X406627Y579782D01*
X406606Y580281D01*
X406586Y580780D01*
X406585Y580800D01*
X406579Y580824D01*
X406579Y580856D01*
X406275Y582832D01*
X406266Y582857D01*
X406262Y582891D01*
X405722Y584816D01*
X405709Y584842D01*
X405699Y584880D01*
X404903Y586713D01*
X404883Y586741D01*
X404865Y586784D01*
X403787Y588466D01*
X403760Y588495D01*
X403727Y588544D01*
X402341Y589982D01*
X402305Y590007D01*
X402248Y590058D01*
X400560Y591120D01*
X400519Y591136D01*
X400455Y591170D01*
X398565Y591816D01*
X398532Y591821D01*
X398490Y591836D01*
X396521Y592182D01*
X396497Y592182D01*
X396465Y592189D01*
X394470Y592312D01*
X394449Y592309D01*
X394424Y592313D01*
X392425Y592252D01*
X392407Y592248D01*
X392384Y592249D01*
X390396Y592025D01*
X390379Y592020D01*
X390357Y592019D01*
X388394Y591638D01*
X388377Y591631D01*
X388354Y591628D01*
X386428Y591089D01*
X386410Y591080D01*
X386386Y591075D01*
X384516Y590364D01*
X384503Y590356D01*
X384484Y590351D01*
X382668Y589511D01*
X382655Y589502D01*
X382636Y589495D01*
X380885Y588529D01*
X380868Y588515D01*
X380843Y588503D01*
X379195Y587372D01*
X379176Y587352D01*
X379145Y587333D01*
X377654Y586002D01*
X377634Y585975D01*
X377600Y585946D01*
X376334Y584399D01*
X376318Y584367D01*
X376286Y584328D01*
X375305Y582588D01*
X375294Y582555D01*
X375270Y582513D01*
X374587Y580635D01*
X374583Y580605D01*
X374568Y580568D01*
X374150Y578613D01*
X374150Y578589D01*
X374142Y578560D01*
X373938Y576570D01*
X373940Y576552D01*
X373935Y576530D01*
X373891Y574530D01*
X373894Y574517D01*
X373892Y574500D01*
X373901Y574257D01*
X373958Y572759D01*
X373959Y572759D01*
X373968Y572501D01*
X373971Y572492D01*
X373970Y572480D01*
X374131Y570486D01*
X374133Y570480D01*
X374133Y570471D01*
X374353Y568483D01*
X374356Y568475D01*
X374355Y568465D01*
X374649Y566486D01*
X374653Y566475D01*
X374654Y566460D01*
X375051Y564499D01*
X375058Y564484D01*
X375060Y564464D01*
X375599Y562538D01*
X375609Y562518D01*
X375615Y562491D01*
X376340Y560628D01*
X376355Y560605D01*
X376357Y560598D01*
X376361Y560584D01*
X376364Y560580D01*
X376367Y560570D01*
X377321Y558814D01*
X377340Y558791D01*
X377358Y558755D01*
X378549Y557149D01*
X378574Y557127D01*
X378602Y557090D01*
X380522Y555214D01*
X380556Y555192D01*
X380601Y555151D01*
X382282Y554073D01*
X382324Y554057D01*
X382396Y554019D01*
X384292Y553400D01*
X384335Y553395D01*
X384429Y553376D01*
X386422Y553305D01*
X386465Y553312D01*
G37*
G36*
X477775Y545352D02*
X477775Y545352D01*
X477780Y545351D01*
X479774Y545426D01*
X479786Y545429D01*
X479935Y545459D01*
X481789Y546173D01*
X481816Y546191D01*
X481848Y546201D01*
X481918Y546256D01*
X481956Y546280D01*
X481965Y546292D01*
X481979Y546304D01*
X483310Y547768D01*
X483327Y547797D01*
X483351Y547820D01*
X483389Y547901D01*
X483412Y547939D01*
X483414Y547954D01*
X483422Y547971D01*
X483950Y549886D01*
X483952Y549904D01*
X483959Y549921D01*
X483963Y550072D01*
X483964Y550084D01*
X483964Y550086D01*
X483964Y550087D01*
X483692Y552052D01*
X483677Y552094D01*
X483655Y552183D01*
X482856Y554016D01*
X482844Y554033D01*
X482841Y554043D01*
X482840Y554048D01*
X482839Y554049D01*
X482836Y554058D01*
X481867Y555808D01*
X481860Y555816D01*
X481855Y555828D01*
X480804Y557531D01*
X480799Y557535D01*
X480796Y557543D01*
X479695Y559214D01*
X479692Y559217D01*
X479689Y559223D01*
X476279Y564157D01*
X474066Y567481D01*
X472983Y569154D01*
X471912Y570843D01*
X470865Y572537D01*
X469846Y574248D01*
X468860Y575983D01*
X468853Y575991D01*
X468849Y576002D01*
X467786Y577696D01*
X467778Y577704D01*
X467773Y577716D01*
X466633Y579360D01*
X466626Y579366D01*
X466621Y579376D01*
X465417Y580973D01*
X465410Y580980D01*
X465404Y580990D01*
X464134Y582535D01*
X464123Y582543D01*
X464114Y582557D01*
X462755Y584024D01*
X462741Y584035D01*
X462728Y584052D01*
X461258Y585409D01*
X461246Y585416D01*
X461235Y585428D01*
X459686Y586694D01*
X459650Y586713D01*
X459602Y586749D01*
X457837Y587673D01*
X457806Y587682D01*
X457690Y587723D01*
X455724Y588063D01*
X455693Y588062D01*
X455652Y588070D01*
X453652Y588123D01*
X453643Y588121D01*
X453633Y588123D01*
X451632Y588096D01*
X451622Y588094D01*
X451608Y588095D01*
X449611Y587974D01*
X449597Y587970D01*
X449579Y587971D01*
X447595Y587720D01*
X447577Y587714D01*
X447553Y587713D01*
X445598Y587294D01*
X445575Y587284D01*
X445544Y587279D01*
X443648Y586642D01*
X443622Y586627D01*
X443584Y586615D01*
X441796Y585722D01*
X441771Y585701D01*
X441730Y585682D01*
X440102Y584522D01*
X440081Y584500D01*
X440046Y584476D01*
X438603Y583094D01*
X438590Y583075D01*
X438568Y583057D01*
X437271Y581535D01*
X437259Y581514D01*
X437238Y581492D01*
X436113Y579838D01*
X436103Y579813D01*
X436081Y579783D01*
X435178Y577999D01*
X435174Y577985D01*
X435172Y577981D01*
X435170Y577970D01*
X435151Y577934D01*
X434510Y576041D01*
X434506Y576010D01*
X434492Y575972D01*
X434127Y574006D01*
X434127Y573978D01*
X434119Y573941D01*
X434015Y571945D01*
X434018Y571920D01*
X434015Y571888D01*
X434135Y569892D01*
X434141Y569872D01*
X434140Y569847D01*
X434444Y567870D01*
X434449Y567854D01*
X434450Y567833D01*
X434899Y565884D01*
X434905Y565871D01*
X434907Y565854D01*
X435475Y563936D01*
X435484Y563921D01*
X435488Y563900D01*
X436202Y562032D01*
X436213Y562014D01*
X436221Y561989D01*
X437105Y560195D01*
X437119Y560176D01*
X437131Y560148D01*
X438202Y558460D01*
X438222Y558440D01*
X438241Y558408D01*
X439522Y556873D01*
X439549Y556851D01*
X439581Y556814D01*
X441099Y555516D01*
X441137Y555496D01*
X441192Y555454D01*
X442960Y554529D01*
X442997Y554518D01*
X443101Y554480D01*
X445059Y554120D01*
X445104Y554121D01*
X445191Y554113D01*
X447182Y554281D01*
X447225Y554294D01*
X447301Y554306D01*
X449187Y554950D01*
X449201Y554958D01*
X449218Y554961D01*
X449355Y555048D01*
X449358Y555050D01*
X449359Y555050D01*
X450833Y556373D01*
X450860Y556410D01*
X450894Y556439D01*
X450926Y556499D01*
X450951Y556533D01*
X450957Y556557D01*
X450972Y556586D01*
X451601Y558463D01*
X451603Y558482D01*
X451612Y558499D01*
X451623Y558642D01*
X451625Y558661D01*
X451625Y558663D01*
X451625Y558665D01*
X451451Y560650D01*
X451439Y560693D01*
X451425Y560773D01*
X450758Y562656D01*
X450740Y562685D01*
X450725Y562729D01*
X449765Y564482D01*
X449750Y564499D01*
X449738Y564525D01*
X448611Y566165D01*
X447583Y567804D01*
X446963Y569539D01*
X447013Y571379D01*
X447492Y573186D01*
X448427Y574784D01*
X449774Y576021D01*
X451430Y576707D01*
X453165Y576654D01*
X454672Y575677D01*
X456032Y574321D01*
X457261Y572803D01*
X461759Y566212D01*
X465086Y561224D01*
X467256Y557870D01*
X470455Y552794D01*
X470456Y552792D01*
X470458Y552789D01*
X471544Y551110D01*
X471549Y551105D01*
X471552Y551097D01*
X472687Y549450D01*
X472695Y549442D01*
X472701Y549430D01*
X473915Y547840D01*
X473932Y547825D01*
X473948Y547801D01*
X475319Y546346D01*
X475339Y546332D01*
X475354Y546312D01*
X475451Y546253D01*
X475481Y546231D01*
X475488Y546230D01*
X475496Y546225D01*
X477575Y545387D01*
X477596Y545383D01*
X477615Y545372D01*
X477741Y545356D01*
X477770Y545351D01*
X477775Y545352D01*
G37*
G36*
X517635Y565511D02*
X517635Y565511D01*
X517660Y565508D01*
X519657Y565613D01*
X519678Y565618D01*
X519706Y565618D01*
X521684Y565919D01*
X521705Y565927D01*
X521735Y565930D01*
X523669Y566438D01*
X523691Y566449D01*
X523722Y566455D01*
X525588Y567175D01*
X525609Y567188D01*
X525640Y567199D01*
X527411Y568127D01*
X527430Y568143D01*
X527460Y568156D01*
X529114Y569279D01*
X529131Y569296D01*
X529158Y569312D01*
X530679Y570610D01*
X530693Y570628D01*
X530717Y570646D01*
X532094Y572095D01*
X532106Y572113D01*
X532126Y572132D01*
X533357Y573708D01*
X533365Y573723D01*
X533379Y573738D01*
X534491Y575400D01*
X534496Y575413D01*
X534507Y575427D01*
X535514Y577154D01*
X535526Y577191D01*
X535553Y577240D01*
X536215Y579122D01*
X536221Y579166D01*
X536241Y579240D01*
X536430Y581229D01*
X536428Y581254D01*
X536432Y581285D01*
X536396Y583286D01*
X536394Y583293D01*
X536395Y583303D01*
X536290Y585301D01*
X536288Y585311D01*
X536289Y585323D01*
X536092Y587314D01*
X536088Y587326D01*
X536088Y587343D01*
X535776Y589319D01*
X535771Y589332D01*
X535770Y589351D01*
X535329Y591302D01*
X535321Y591320D01*
X535317Y591344D01*
X534706Y593248D01*
X534691Y593274D01*
X534681Y593312D01*
X533817Y595114D01*
X533795Y595143D01*
X533773Y595189D01*
X532613Y596812D01*
X532605Y596819D01*
X532497Y596928D01*
X530878Y598086D01*
X530838Y598104D01*
X530781Y598141D01*
X528938Y598916D01*
X528922Y598919D01*
X528904Y598928D01*
X527009Y599568D01*
X527006Y599569D01*
X527003Y599570D01*
X523197Y600806D01*
X523163Y600810D01*
X523131Y600822D01*
X523044Y600823D01*
X523000Y600828D01*
X522985Y600824D01*
X522965Y600824D01*
X521144Y600535D01*
X521143Y600535D01*
X521142Y600535D01*
X520985Y600481D01*
X515706Y597624D01*
X515700Y597619D01*
X515692Y597616D01*
X513963Y596610D01*
X513955Y596603D01*
X513942Y596597D01*
X512265Y595507D01*
X512254Y595497D01*
X512237Y595488D01*
X510639Y594286D01*
X510624Y594270D01*
X510602Y594255D01*
X509126Y592905D01*
X509110Y592883D01*
X509082Y592859D01*
X507791Y591333D01*
X507775Y591304D01*
X507746Y591270D01*
X506709Y589561D01*
X506697Y589529D01*
X506672Y589488D01*
X505928Y587633D01*
X505923Y587602D01*
X505906Y587564D01*
X505439Y585620D01*
X505438Y585595D01*
X505429Y585565D01*
X505182Y583580D01*
X505184Y583563D01*
X505179Y583542D01*
X505082Y581545D01*
X505084Y581528D01*
X505082Y581508D01*
X505132Y579508D01*
X505137Y579486D01*
X505136Y579457D01*
X505392Y577474D01*
X505401Y577448D01*
X505404Y577412D01*
X505909Y575477D01*
X505920Y575455D01*
X505927Y575422D01*
X506653Y573558D01*
X506656Y573554D01*
X506658Y573548D01*
X507428Y571701D01*
X507431Y571696D01*
X507433Y571689D01*
X508251Y569863D01*
X508263Y569847D01*
X508271Y569823D01*
X509249Y568080D01*
X509267Y568058D01*
X509346Y567956D01*
X510801Y566616D01*
X510828Y566599D01*
X510850Y566576D01*
X510933Y566536D01*
X510971Y566513D01*
X510985Y566511D01*
X511000Y566504D01*
X512914Y565947D01*
X512939Y565945D01*
X512969Y565934D01*
X513566Y565832D01*
X513577Y565833D01*
X513590Y565829D01*
X515576Y565588D01*
X515594Y565589D01*
X515617Y565584D01*
X517615Y565508D01*
X517635Y565511D01*
G37*
G36*
X510796Y327616D02*
X510796Y327616D01*
X510836Y327625D01*
X510898Y327628D01*
X512850Y328054D01*
X512883Y328068D01*
X512932Y328079D01*
X514782Y328835D01*
X514808Y328852D01*
X514846Y328867D01*
X516571Y329879D01*
X516590Y329896D01*
X516619Y329912D01*
X518213Y331119D01*
X518228Y331135D01*
X518251Y331151D01*
X519718Y332510D01*
X519729Y332525D01*
X519747Y332540D01*
X521096Y334018D01*
X521104Y334032D01*
X521120Y334046D01*
X522354Y335619D01*
X522360Y335631D01*
X522372Y335643D01*
X523512Y337286D01*
X523518Y337300D01*
X523531Y337314D01*
X524557Y339030D01*
X524571Y339070D01*
X524603Y339129D01*
X525233Y341020D01*
X525238Y341063D01*
X525256Y341131D01*
X525443Y343121D01*
X525441Y343142D01*
X525445Y343168D01*
X525447Y345168D01*
X525446Y345175D01*
X525447Y345184D01*
X525434Y345588D01*
X525434Y345589D01*
X525388Y347086D01*
X525356Y348085D01*
X525325Y349083D01*
X525322Y349183D01*
X525322Y349185D01*
X525322Y349186D01*
X525105Y355185D01*
X525095Y355225D01*
X525091Y355287D01*
X524637Y357110D01*
X524610Y357167D01*
X524592Y357227D01*
X524565Y357261D01*
X524551Y357290D01*
X524523Y357315D01*
X524490Y357358D01*
X521538Y360060D01*
X521529Y360066D01*
X521520Y360075D01*
X519983Y361355D01*
X519950Y361373D01*
X519907Y361408D01*
X518166Y362379D01*
X518131Y362390D01*
X518025Y362432D01*
X516072Y362839D01*
X516036Y362839D01*
X515985Y362849D01*
X513987Y362909D01*
X513972Y362907D01*
X513953Y362909D01*
X511954Y362836D01*
X511940Y362833D01*
X511922Y362834D01*
X509932Y362630D01*
X509915Y362625D01*
X509893Y362625D01*
X507925Y362267D01*
X507906Y362259D01*
X507880Y362256D01*
X505955Y361716D01*
X505933Y361705D01*
X505902Y361698D01*
X504049Y360946D01*
X504025Y360930D01*
X503990Y360917D01*
X502253Y359927D01*
X502229Y359906D01*
X502191Y359885D01*
X500623Y358645D01*
X500601Y358619D01*
X500564Y358590D01*
X499218Y357112D01*
X499201Y357082D01*
X499169Y357047D01*
X498082Y355370D01*
X498066Y355329D01*
X498030Y355266D01*
X497361Y353388D01*
X497357Y353358D01*
X497342Y353321D01*
X496941Y351361D01*
X496941Y351350D01*
X496937Y351336D01*
X496633Y349359D01*
X496633Y349351D01*
X496631Y349341D01*
X496401Y347353D01*
X496402Y347345D01*
X496399Y347335D01*
X496242Y345341D01*
X496243Y345332D01*
X496240Y345322D01*
X496158Y343323D01*
X496159Y343312D01*
X496157Y343298D01*
X496174Y341298D01*
X496177Y341282D01*
X496175Y341263D01*
X496335Y339269D01*
X496341Y339246D01*
X496342Y339216D01*
X496713Y337251D01*
X496726Y337219D01*
X496736Y337170D01*
X497432Y335299D01*
X497456Y335261D01*
X497493Y335184D01*
X498648Y333560D01*
X498654Y333553D01*
X498763Y333443D01*
X500382Y332282D01*
X500396Y332276D01*
X500411Y332263D01*
X502094Y331225D01*
X505278Y328846D01*
X505313Y328829D01*
X505359Y328796D01*
X507154Y327925D01*
X507198Y327913D01*
X507278Y327883D01*
X508700Y327608D01*
X508741Y327608D01*
X508800Y327599D01*
X510796Y327616D01*
G37*
M02*
